<?xml version="1.0" encoding="UTF-8" standalone="no"?>
<svg xmlns:rdf="http://www.w3.org/1999/02/22-rdf-syntax-ns#" xmlns="http://www.w3.org/2000/svg" height="580" width="580" version="1.0" xmlns:cc="http://creativecommons.org/ns#" xmlns:dc="http://purl.org/dc/elements/1.1/">
 <title>helipad</title>
 <metadata>
  <rdf:RDF>
   <cc:Work rdf:about="">
    <dc:format>image/svg+xml</dc:format>
    <dc:type rdf:resource="http://purl.org/dc/dcmitype/StillImage"/>
    <dc:title>helipad</dc:title>
   </cc:Work>
  </rdf:RDF>
 </metadata>
 <path d="m290 72.5c-120.12 0-217.5 97.38-217.5 217.5s97.38 217.5 217.5 217.5 217.5-97.38 217.5-217.5-97.38-217.5-217.5-217.5zm0 29c104.11 0 188.5 84.39 188.5 188.5s-84.39 188.5-188.5 188.5-188.5-84.39-188.5-188.5 84.39-188.5 188.5-188.5z" fill-rule="evenodd" fill="#777"/>
 <path d="m217.5 145c-12.645 4.163-24.886 10.544-36.25 21.75v246.5c9.9043 11.971 22.507 18.096 36.25 21.75l14.5 0.00001v-116h116v116l14.5-0.00001c14.756-3.6862 27.268-10.365 36.25-21.75v-246.5c-10-10.72-22.4-17.45-36.25-21.75h-14.5v116h-116v-116z" fill-rule="evenodd" fill="#777"/>
</svg>
