<?xml version="1.0" encoding="UTF-8" standalone="no"?>
<svg xmlns:rdf="http://www.w3.org/1999/02/22-rdf-syntax-ns#" xmlns="http://www.w3.org/2000/svg" height="580" width="580" version="1.0" xmlns:cc="http://creativecommons.org/ns#" xmlns:dc="http://purl.org/dc/elements/1.1/">
 <title>arts_centre</title>
 <metadata>
  <rdf:RDF>
   <cc:Work rdf:about="">
    <dc:format>image/svg+xml</dc:format>
    <dc:type rdf:resource="http://purl.org/dc/dcmitype/StillImage"/>
    <dc:title>arts_centre</dc:title>
   </cc:Work>
  </rdf:RDF>
 </metadata>
 <g>
  <path opacity=".8" d="m92.323 80.38c2.4946 10.583 5.9671 20.873 11.355 30.575 13.986 21.228 36.151 35.678 50.812 54.312-16.936 32.074-12.045 72.551 6.1895 102.72-13.844-5.2461-27.431-12.567-42.639-12.525-25.592-1.5138-51.673 12.51-63.269 35.625-17.541 31.589-12.549 71.196 3.9384 102.13 15.396 30.007 36.923 56.738 61.643 79.565 48.756 42.926 114.05 64.999 178.69 64.473 56.515 1.3832 115.07-10.917 161.81-43.955 10.084 13.237 26.267 25.423 43.867 22.301 24.002-4.0649 39.756-35.02 26.172-56.043-4.3886-6.2221-9.9084-11.532-14.938-17.221 32.49-43.17 38.08-102.01 23.44-152.99-20.32-76.06-81.83-138.55-156.27-163.06-51.62-20.13-109.24-31.324-163.97-17.89-13.96 4.03-28.28-24.996-32.51-35.861-9.07-14.505-24.52-21.637-40.07-27.672-45.07-15.867-59.57 13.133-54.247 35.513z" fill="#fff"/>
  <path d="m472.93 465.03 19.636 21.026c5.7497 6.7712 19.582-4.9002 14.71-11.693l-20.03-22.01z" fill-rule="evenodd" stroke-width="1.062" fill="#202020"/>
  <path d="m150.51 117.25c-26.81-12.81-29.62-35.743-32.59-53.485 10.56 4.718 17.82 6.453 35.58 15.235 12.697 6.2774 10.894 15.452 15.759 23.881l-18.751 14.373z" fill-rule="evenodd" stroke-width="1.062" fill="#202020"/>
  <path d="m260.63 130.51c-17.309 0.15423-34.959 3.0037-54.354 13.661-3.238 0.9301-10.072 11.615-16.314 18.53-20.163 22.339-23.87 54.008-9.4829 80.769 14.955 27.817 12.442 47.001-6.9396 52.974-22.58 4.1081-35.877-12.833-59.586-13.298-32.078 3.4471-41.33 32.159-41.456 53.192-0.067 21.95 0.01 26.17 20.467 59.92 37.543 53.25 95.543 96.75 159.68 108.92 23.315 3.048 59.059 8.4054 118.59-2.0347 44.365-10.334 88.259-38.33 111.87-65.4 23.61-27.07 27.755-39.133 33.644-68.197 7.1747-35.407-2.672-84.046-24.489-121.06-42.75-74.48-129.75-117.98-231.62-117.97zm-8.2113 33.681c23.675 0 42.873 19.198 42.873 42.873s-19.198 42.909-42.873 42.909-42.909-19.234-42.909-42.909 19.234-42.873 42.909-42.873zm123.28 19.693c12.723 0.58071 24.193 4.9636 29.03 11.082 5.5455 7.0132 13.608 42.447 11.954 52.538-6.3278 14.766-16.068 26.588-29.539 31.392-9.1762 0.13674-16.356-5.8043-25.688-6.2493-10.583-0.34086-17.32-5.5543-22.49-17.404-7.9861-18.301-6.6893-29.136 4.9776-42.51 9.6093-10.69 19.225-29.264 31.755-28.848zm78.516 107.26c26.183 2.0513 33.755 12.336 26.923 36.551-2.0582 7.295-4.2674 17.866-4.905 23.544-2.6199 23.33-16.427 33.681-34.408 25.724-31.106-13.766-31.032-13.731-34.843-30.011-3.8645-16.507-2.489-20.061 14.424-36.951 10.807-11.662 17.258-20.042 32.809-18.857zm-315.84 39.639c10.015 1.504 34.156-0.75496 41.601 3.8513 3.9142 2.7991 14.497 26.842 14.497 32.954-4.7801 18.503-30.88 40.492-46.979 40.62-11.426 0.00003-20.456-6.2907-20.456-14.243-3.355-14.424-12.867-26.054-9.5556-39.022 3.0361-11.598 13.693-23.797 20.892-24.162zm206.08 38.004c14.076 2.1508 23.169 7.5224 37.241 11.954 5.3972 1.681 8.4188 5.5007 13.262 16.822 11.539 26.977 7.5331 39.644-14.206 44.98-6.5492 1.6075-15.658 4.6962-20.274 6.9033-18.963 9.0683-33.691 0.54465-36.66-21.255-5.1366-37.713-5.1449-37.604 5.2683-49.522 5.6091-6.4195 9.1816-9.5766 14.497-9.8463 0.2932-0.0149 0.56759-0.0389 0.87199-0.0364zm-96.247 2.6887c13.941 0.6006 40.919 22.41 41.638 34.698-1.0096 10.317-8.8574 17.991-9.3739 28.558-3.8136 16.632-17.97 19.935-27.977 20.783-13.334 1.0919-16.282 0.61809-17.476-2.943-7.278-9.9894-21.491-13.775-25.797-24.997-6.737-18.428-0.62749-43.688 11.009-45.562 9.8391-3.804 17.597-10.383 27.977-10.537z" fill="#672400"/>
  <path d="m177.39 112.05-19.033 16.323 110.55 118.32c8.1603-3.4594 13.615-7.6802 18.096-14.265z" fill-rule="evenodd" stroke-width="1.062" fill="#202020"/>
 </g>
</svg>
