<?xml version="1.0" encoding="UTF-8" standalone="no"?>
<svg xmlns:rdf="http://www.w3.org/1999/02/22-rdf-syntax-ns#" xmlns="http://www.w3.org/2000/svg" height="580" width="580" version="1.0" xmlns:cc="http://creativecommons.org/ns#" xmlns:dc="http://purl.org/dc/elements/1.1/">
 <title>bicycle_parking</title>
 <metadata>
  <rdf:RDF>
   <cc:Work rdf:about="">
    <dc:format>image/svg+xml</dc:format>
    <dc:type rdf:resource="http://purl.org/dc/dcmitype/StillImage"/>
    <dc:title>bicycle_parking</dc:title>
   </cc:Work>
  </rdf:RDF>
 </metadata>
 <path opacity=".8" d="m29 0v348h68.689c-29.203 26.57-46.519 66.73-39.281 105.48 9.602 56.31 64.622 101.72 122.07 97.83 59.53-2.83 111.64-57.6 110.59-117.35l28.7-19.31c-7.81 41.85 9.81 87.41 44.49 112.36 34.74 26.58 85.27 33.06 124.03 11.33 46.15-24.1 74.12-81.23 60-132.13-11.27-43.77-49.52-79.38-94.13-87.06l-10.5-31.56c28.74-26.64 27.6-79.67-5.01-102.78-10.26-7.79-19.84-11.62-32.8-11.34h-0.01-87v87h-15.62c9.23-12.99 8.02-33.47-3.37-45.01-9.73-11.19-20.21-12.19-35.19-12.83 25.56-24.9 37.98-62.79 33.87-98.22-2.76-40.691-27.46-81.545-66.72-96.088-13.28-5.2219-27.55-8.4398-41.81-8.322h-161zm116 238.74c1.64 18.87 12.64 40.53 28.84 50.74l-16.32 29c-4.24 0.65-8.41 1.58-12.52 2.74v-82.48z" fill="#fff"/>
 <path fill="#0069b6" d="m347.82 202.63v29l42.53-0.16c15.49 0 26.99 10.62-0.25 20.7-11.49 4.25-13.26 22.16-13.26 37.3h-145v-29l22.26-5.66c28.09-7.14 35.72-23.34 6.74-23.34l-86.84 0.53c-0.16 10.71-0.06 26.77 14.35 28.47h14.49v29l-27 57.89c-0.61-0.01-1.2 0-1.81 0-46.73 0-86.956 40.22-86.956 86.95s40.226 86.96 86.956 86.96 86.95-40.23 86.95-86.96c0-10.02-2.08-19.89-5.43-28.98h12.68c21.73 0 28.74-11.16 36.42-18.83l84.79-67.87 9.22 37.04c-29.64 14.05-50.73 44.74-50.73 78.8 0 46.73 40.23 86.96 86.96 86.96s86.95-40.22 86.95-86.95c0-46.74-40.22-86.96-86.96-86.96-0.91 0-1.81-0.03-2.71 0l-20.09-57.88-6.24-14.9c40-10.27 36-66.77-0.02-72.11h-58zm0.02 115.84l-76.89 57.87h-34.42c-7.64-8.2-16.95-15.62-27.08-20.49l16.39-37.37 122-0.01zm-173.81 57.87c29.15 0 57.97 28.82 57.97 57.97s-28.82 57.97-57.97 57.97-57.97-28.82-57.97-57.97 28.82-57.97 57.97-57.97zm260.86 0.16c29.15 0 57.97 28.82 57.97 57.97s-28.82 57.97-57.97 57.97-57.97-28.82-57.97-57.97 28.82-57.97 57.97-57.97z"/>
 <path fill="#0069b6" d="m58 29v290h58v-116h77.33c38.67 0 77.34-28.4 77.34-87-0.17-58.6-38.67-87-77.34-87h-135.33zm58 58h38.67c38.66 0 57.52 0 58 29 0 29-19.34 29-58 29h-38.67v-58z"/>
</svg>
