<?xml version="1.0" encoding="UTF-8" standalone="no"?>
<svg xmlns:rdf="http://www.w3.org/1999/02/22-rdf-syntax-ns#" xmlns="http://www.w3.org/2000/svg" height="580" width="580" version="1.0" xmlns:cc="http://creativecommons.org/ns#" xmlns:dc="http://purl.org/dc/elements/1.1/">
 <title>casino</title>
 <metadata>
  <rdf:RDF>
   <cc:Work rdf:about="">
    <dc:format>image/svg+xml</dc:format>
    <dc:type rdf:resource="http://purl.org/dc/dcmitype/StillImage"/>
    <dc:title>casino</dc:title>
   </cc:Work>
  </rdf:RDF>
 </metadata>
 <path opacity=".8" d="m43.5 134.5v280l198.5 165.5h62.5l246.5-145v-267.5l-217.5-167.5h-35.5z" fill-rule="evenodd" fill="#fff"/>
 <g stroke-linejoin="round" fill-rule="evenodd" stroke="#672400" stroke-linecap="round" stroke-width="17.886" fill="#672400">
  <path d="m89.06 153.27c61.1 47.01 122.2 94.02 183.3 141.03 75.71-40.05 151.43-80.11 227.14-120.17-60.95-45.99-121.89-91.97-182.84-137.96-75.87 39.038-151.73 78.07-227.6 117.1z"/>
  <path d="m77.497 183.91c3.0413 69.504 3.5092 139.09 6.7074 208.59 57.114 50.346 115.97 98.636 173.17 148.96-0.64001-74.096-1.2805-148.19-1.9214-222.29-59.35-45.65-118.69-91.31-178.03-136.97l0.0456 1.117 0.0243 0.59481z"/>
  <path d="m286.75 321.38c0.64046 73.56 1.2809 147.12 1.9214 220.68 73.921-43.086 147.84-86.171 221.76-129.26 0.87335-70.404 1.7467-140.81 2.6201-211.21-75.435 39.93-150.87 79.86-226.3 119.79z"/>
 </g>
 <g fill="#fff" fill-rule="evenodd">
  <path d="m297.58 122.08c18.682-0.91201 39.666 8.2789 45.973 27.109 6.8404 18.18-8.0709 36.766-24.908 42.34-21.097 7.5608-49.187 4.4035-62.253-15.72-9.4564-12.777-5.6323-31.362 6.1484-41.222 9.5189-8.4248 22.454-12.356 35.039-12.506z"/>
  <path d="m119.59 243.02c20.981 0.29885 35.638 19.86 40.139 38.742 6.4221 17.33-3.3668 41.627-23.266 43.773-22.016 0.93835-38.372-19.732-42.096-39.72-6.4219-17.643 4.9526-42.059 25.223-42.794z"/>
  <path d="m192.47 398.13c21.209 0.0227 35.612 19.987 40.279 38.812 6.2637 17.006-2.8763 40.332-21.974 43.458-20.793 2.3028-37.01-16.433-42.408-34.774-6.4594-15.996-1.6162-37.439 14.775-45.26 2.8969-1.4382 6.1197-2.0544 9.3274-2.2358z"/>
  <path d="m481.9 242.22c15.732-0.54973 27.975 14.973 26.445 30.113-0.76462 21.509-17.269 40.547-36.96 47.546-15.418 4.4878-35.234-5.8127-35.598-23.057-2.6179-26.523 19.627-52.607 46.113-54.602z"/>
  <path d="m418.18 334.83c15.3-0.54348 27.394 14.393 26.271 29.205-0.22384 21.451-16.389 40.928-36.017 48.244-15.614 4.951-36.188-5.2771-36.506-23.022-2.5658-26.477 19.772-52.484 46.253-54.428z"/>
  <path d="m353.55 424.64c15.16 0.002 26.759 14.734 25.677 29.38-0.3317 21.668-16.871 41.112-36.681 48.209-15.48 4.6253-35.373-5.4985-35.843-22.882-2.7913-26.74 20.068-53.28 46.847-54.707z"/>
 </g>
</svg>
