<?xml version="1.0" encoding="UTF-8" standalone="no"?>
<svg xmlns:rdf="http://www.w3.org/1999/02/22-rdf-syntax-ns#" xmlns="http://www.w3.org/2000/svg" height="580" width="580" version="1.0" xmlns:cc="http://creativecommons.org/ns#" xmlns:dc="http://purl.org/dc/elements/1.1/">
 <title>fuel</title>
 <metadata>
  <rdf:RDF>
   <cc:Work rdf:about="">
    <dc:format>image/svg+xml</dc:format>
    <dc:type rdf:resource="http://purl.org/dc/dcmitype/StillImage"/>
    <dc:title>fuel</dc:title>
   </cc:Work>
  </rdf:RDF>
 </metadata>
 <path opacity=".8" d="m145 87c-36.073 0-58 19.981-58 58v377h290v-83c56.547 66.512 116-4 116-62v-242l-87-77h-16.835c-8.31 11.681-20.03 28.188-29.91 38.842-12.01 12.558-11.25-9.842-40.25-9.842z" fill-rule="evenodd" fill="#fff"/>
 <path d="m399.66 87-18.125 20.844 34.437 31.719c1.0498 1.0498 2.4824 2.4563 3.625 3.625l-7.25 8.1562c-11.606 11.606-3.2787 26.627 0.90481 30.813l21.75 20.85v174c0 29-11.374 29-14.501 29-3.13 0-14.5 0-14.5-29v-116c0-37.146-29-58-58-58v-58c0-15.988-12.317-29-29-29h-174c-17.378 0-29 12.317-29 29v348h232v-261c4.1094 0 29-0.26369 29 29v116c0 58 35.95 58 43.499 58 7.99 0 43.5 0 43.5-58v-203c0-29-8.296-35.067-18.126-44.406l-46.22-42.59zm-254.66 87h174v87h-174z" fill="#0069b6"/>
</svg>
