<?xml version="1.0" encoding="UTF-8" standalone="no"?>
<svg xmlns:rdf="http://www.w3.org/1999/02/22-rdf-syntax-ns#" xmlns="http://www.w3.org/2000/svg" height="580" width="580" version="1.0" xmlns:cc="http://creativecommons.org/ns#" xmlns:dc="http://purl.org/dc/elements/1.1/">
 <title>clinic</title>
 <metadata>
  <rdf:RDF>
   <cc:Work rdf:about="">
    <dc:format>image/svg+xml</dc:format>
    <dc:type rdf:resource="http://purl.org/dc/dcmitype/StillImage"/>
    <dc:title>clinic</dc:title>
   </cc:Work>
  </rdf:RDF>
 </metadata>
 <path opacity=".8" d="m290 87c-68.04 0-154.32 56.25-168 122-77.805 9.2-93 110-93 197v145h522v-145c0-87-14.49-187.8-93-197-16.21-65.32-99.96-122-168-122z" fill="#fff"/>
 <path fill="#da0092" d="m290 116c-68.04 0-131.32 50.25-145 116-77.805 9.2-87 87-87 174v116h464v-116c0-87-8.49-164.8-87-174-16.21-65.32-76.96-116-145-116zm-0.01 29h0.01c33.66 0 67.7 14.58 90.62 43.5 19.45 24.54 25.37 43.5 28.09 72.5 83.99 0.69 84.28 31.37 84.28 232h-406c0.004-200.63 0.298-231.31 84.29-232 2.72-29 8.16-47.47 28.1-72.5 22.99-28.86 56.96-43.5 90.61-43.5zm0.01 58c-37.16 0.14-58 29-59.82 58h119.63c-1.81-29-22.65-58.14-59.81-58zm-29 87v58h-58v58h58v58h58v-58h58v-58h-58v-58h-58z"/>
</svg>
