<?xml version="1.0" encoding="UTF-8" standalone="no"?>
<svg xmlns:rdf="http://www.w3.org/1999/02/22-rdf-syntax-ns#" xmlns="http://www.w3.org/2000/svg" height="580" width="580" version="1.0" xmlns:cc="http://creativecommons.org/ns#" xmlns:dc="http://purl.org/dc/elements/1.1/">
 <title>recycling</title>
 <metadata>
  <rdf:RDF>
   <cc:Work rdf:about="">
    <dc:format>image/svg+xml</dc:format>
    <dc:type rdf:resource="http://purl.org/dc/dcmitype/StillImage"/>
    <dc:title>recycling</dc:title>
   </cc:Work>
  </rdf:RDF>
 </metadata>
 <path opacity=".8" d="m460.16 63.908-39.98 23.166c-4.13-8.196-8.63-16.808-14.08-24.597-21.08-28.512-43.51-27.304-74.76-28.143l-66.99 0.58043c-41.25 1.666-69.89 11.745-91.33 56.405l-68.47 122.96c-98.942-11.28-79.778 38.52-63.239 49.17l27.172 15.261c-26.144 36.14-30.708 56.61-9.744 91.77l47.13 79.023c14.996 31.271 38.908 46.234 82.765 45.498h141.48c20.86 71.78 75.88 56 75.88 36.87v-36.87c20.99 1.0765 43.709-0.20119 60.742-14.51 23.73-27.249 36.345-57.44 52.693-85.605 27.2-46.88 36.06-77.42 6.66-118.76l-70.34-122.49c51.341-74.796 25.252-99.08 4.4034-89.725z" fill="#fff"/>
 <g fill="#672400">
  <path d="m61.875 242.23 44.505 26.274-27.379 48.295c-2.4885 4.4346-3.7334 9.2471-3.7334 14.105 0 4.7221 1.1262 9.4593 3.6153 13.682 0 0 23.926 42.619 43.497 77.005 1.4225-4.8433 3.2154-9.5503 5.7039-14.105l53.557-94.561 44.446 26.274-54.743-96.861z"/>
  <path d="m166.56 377.79-22.164 39.108c-3.0962 5.2061-4.5187 11.033-4.5187 16.814 0 5.827 1.4225 11.472 4.4007 16.558 5.763 10.292 16.519 16.588 28.208 16.466h108.08v-88.946z"/>
  <path d="m454.31 99.453-44.51 26.277-27.26-48.509c-2.4295-4.3436-5.9852-7.9156-10.015-10.292-4.0447-2.4816-8.652-3.6926-13.453-3.6926h-87.069c3.3335 3.6926 6.4887 7.5672 8.9633 12.123l53.498 94.561-44.446 26.274h109.41z"/>
  <path d="m287.05 124.11-22.05-39.11c-2.948-5.2061-7.1114-9.5195-12.03-12.471-4.859-2.7848-10.356-4.3436-16.178-4.4647-11.54 0.122-22.4 6.538-27.95 16.936l-54.165 95.651 75.439 44.314z"/>
  <path d="m376.94 517.74v-52.381l54.579 0.15129c4.9782 0 9.8378-1.3315 13.868-3.8137 4.1038-2.361 7.5264-5.7667 9.8962-10.049 0 0 24.134-42.559 43.527-76.944-4.7403 1.0289-9.6595 1.9825-14.637 1.9825l-107.1-0.12116 0.11802-52.502-54.861 96.801z"/>
  <path d="m439.55 357.55h44.209c5.8665 0 11.6-1.5136 16.578-4.4948 4.8-2.8451 8.8893-6.886 11.867-12.032 5.6744-10.292 5.5558-22.944-0.23667-33.114l-54.046-95.772-75.38 44.435z"/>
 </g>
</svg>
