<?xml version="1.0" encoding="UTF-8" standalone="no"?>
<svg xmlns:rdf="http://www.w3.org/1999/02/22-rdf-syntax-ns#" xmlns="http://www.w3.org/2000/svg" height="580" width="580" version="1.0" xmlns:cc="http://creativecommons.org/ns#" xmlns:dc="http://purl.org/dc/elements/1.1/">
 <title>fire_station</title>
 <metadata>
  <rdf:RDF>
   <cc:Work rdf:about="">
    <dc:format>image/svg+xml</dc:format>
    <dc:type rdf:resource="http://purl.org/dc/dcmitype/StillImage"/>
    <dc:title>fire_station</dc:title>
   </cc:Work>
  </rdf:RDF>
 </metadata>
 <path d="m226.66 76.018c-59.23 42.092-101.14 107.76-114.91 179.04-8.6397 53.362-4.3776 109.46 15.798 159.84 19.258 46.953 55.291 87.516 101.72 108.82 26.979 10.917 51.429 10.578 78.057 10.207 17.352 0 36.989-0.17289 49.544-1.7582 21.49-5.2773 38.246-21.629 55.014-35.117 44.097-40.076 67.265-100.99 63.001-160.22-2.0117-36.803-14.675-72.047-30.863-104.84-14.401-31.859-29.484-65.321-26.764-101.05-0.12993-14.258-11.052-27.738-25.477-29.428-29.373-0.50515-52.897 17.34-72.525 35.26 1.6844-18.695 10.043-36.036 13.582-54.43 1.0409-16.313-9.0377-34.912-26.312-37.514-27.318-3.6604-60.284 18.746-79.878 31.18z" fill="#202020"/>
 <path d="m290 87c-103.7 36.001-145 145-145 232s50.603 152.53 116 174c-58-94.499-58-174 29-232-14.643 39.232 0 116 29 145 12.512-11.622 29-41.317 29-58 58 58 16.324 105.36 0 145 31.557-16.214 87-58 87-145s-58-116-58-203c-40.122 17.378-58 58-58 87-27.61-16.14-58-79.854-29-145z" fill="#fff"/>
</svg>
