<?xml version="1.0" encoding="UTF-8" standalone="no"?>
<svg xmlns:rdf="http://www.w3.org/1999/02/22-rdf-syntax-ns#" xmlns="http://www.w3.org/2000/svg" height="580" width="580" version="1.0" xmlns:cc="http://creativecommons.org/ns#" xmlns:dc="http://purl.org/dc/elements/1.1/">
 <title>charging_station</title>
 <metadata>
  <rdf:RDF>
   <cc:Work rdf:about="">
    <dc:format>image/svg+xml</dc:format>
    <dc:type rdf:resource="http://purl.org/dc/dcmitype/StillImage"/>
    <dc:title>charging_station</dc:title>
   </cc:Work>
  </rdf:RDF>
 </metadata>
 <path opacity=".8" d="m464 87c36.073 0 58 19.981 58 58v406h-290v-72.5c-58 87-159.5 43.5-159.5-58 0-72.5 29-116 72.5-145-14.5-29-29-72.5-29-101.5l14.5-29c0-29 14.5-52 29-52h58c2.8946 11.555 13.07 23 25 23 14.5 0 18.5-29 47.5-29z" fill-rule="evenodd" fill="#fff"/>
 <path fill="#0069b6" d="m290 116c-16.68 0-29 13.01-29 29v130.5c-20.38 0-39.96 3.18-58 8.99v-37.99c14.5 0 14.5-4.52 16.5-14.5 3.23-14.5 12.5-29 12.5-43.5v-14.5h-14.5v-43.5c0-14.5-14.5-14.5-14.5 0v43.5h-29v-43.5c0-14.5-14.5-14.5-14.5 0v43.5h-14.5v14.5c0 14.5 9.49 28.56 12.5 43.5 2 9.92 2 14.5 16.5 14.5v50.27c-43.42 23.23-72.5 63.32-72.5 109.23 0 58 29 87 58 87 23.5 0 43.5-19.5 43.5-43.5v-134.86c17.44-6.52 37.12-10.14 58-10.14v217.5h232v-377c0-16.68-11.62-29-29-29h-174zm0 58h174v87h-174v-87zm41.43 116h103.57v41.43h-62.14v41.43h62.14v41.43h-62.14v41.42h62.14v41.43h-103.57v-207.14zm-157.43 39.56v119.94c0 9.04-7.47 14.5-14.5 14.5-15.11-0.58-29-23.49-29-58 0-31.17 16.75-58.14 43.5-76.44z"/>
</svg>
