<?xml version="1.0" encoding="UTF-8" standalone="no"?>
<svg xmlns:rdf="http://www.w3.org/1999/02/22-rdf-syntax-ns#" xmlns="http://www.w3.org/2000/svg" height="580" width="580" version="1.0" xmlns:cc="http://creativecommons.org/ns#" xmlns:dc="http://purl.org/dc/elements/1.1/">
 <title>ferry_terminal</title>
 <metadata>
  <rdf:RDF>
   <cc:Work rdf:about="">
    <dc:format>image/svg+xml</dc:format>
    <dc:type rdf:resource="http://purl.org/dc/dcmitype/StillImage"/>
    <dc:title>ferry_terminal</dc:title>
   </cc:Work>
  </rdf:RDF>
 </metadata>
 <path opacity=".8" d="m406 116h-406v377c0 14.5 14.5 29 29 29 29 0 58-29 87-29s43.5 29 87 29 58-29 87-29 43.5 29 87 29 58-29 87-29 58 29 87 29c19.442 0 29-14.5 29-29v-29c-3.4984-14.5-15.549-20.932-29-29-16.303-7.8478-58-29-87-29 58-29 72.5-58 72.5-87s0-29-25-29l-52.66-152.22c-11.56-15.88-34.08-22.25-52.84-21.78z" fill-rule="evenodd" fill="#fff"/>
 <path d="m29 478.5c29 0 58-29 87-29s58 29 87 29 58-29 87-29 58 29 87 29 58-29 87-29 58 29 87 29" stroke="#0069b6" stroke-width="33" fill="none"/>
 <path d="m29 145v145h449.5l-43.5-130.5c-3.42-10.25-14.5-14.5-29-14.5h-377zm43.5 29h29c10.35 0 14.5 6.85 14.5 14.5v58c0 8.51-4.72 14.5-14.5 14.5h-29c-6.992 0-14.5-4.84-14.5-14.5v-58c0-9.16 4.898-14.5 14.5-14.5zm87 0h29c10.35 0 14.5 6.85 14.5 14.5v58c0 8.51-4.72 14.5-14.5 14.5h-29c-6.99 0-14.5-4.84-14.5-14.5v-58c0-9.16 4.9-14.5 14.5-14.5zm87 0h29c10.35 0 14.5 6.85 14.5 14.5v58c0 8.51-4.72 14.5-14.5 14.5h-29c-6.99 0-14.5-4.84-14.5-14.5v-58c0-9.16 4.9-14.5 14.5-14.5zm87 0l58 0.5c10.35 0 11.91 7.12 14.5 14.5l14.5 57.5c3.11 14.5-4.72 14.5-14.5 14.5h-72.5c-6.99 0-14.5-4.32-14.5-14.5v-58c0-8 5.53-14.5 14.5-14.5z" fill-rule="evenodd" fill="#0069b6"/>
 <path d="m29 406c29 0 58-29 87-29s58 29 87 29 58-29 87-29 58 29 87 29c47.599-8.2614 128.86-42.238 130.5-86.5h-478.5z" fill-rule="evenodd" fill="#0069b6"/>
</svg>
