<?xml version="1.0" encoding="UTF-8" standalone="no"?>
<svg xmlns:rdf="http://www.w3.org/1999/02/22-rdf-syntax-ns#" xmlns="http://www.w3.org/2000/svg" height="580" width="580" version="1.0" xmlns:cc="http://creativecommons.org/ns#" xmlns:dc="http://purl.org/dc/elements/1.1/">
 <title>drinking_water</title>
 <metadata>
  <rdf:RDF>
   <cc:Work rdf:about="">
    <dc:format>image/svg+xml</dc:format>
    <dc:type rdf:resource="http://purl.org/dc/dcmitype/StillImage"/>
    <dc:title>drinking_water</dc:title>
   </cc:Work>
  </rdf:RDF>
 </metadata>
 <g>
  <path opacity=".8" d="m362.5 0c-43.5 0-50.181 52.812-29 72.5 6.8618 5.6109 8.0569 10.142 9.7332 14.5-36.07-0.981-77.65-2.801-110.73 14.72-49.33 28.78-58.5 72.28-58.5 124.48-25.73 0.67-74.566 2.45-84.718 20.8l36.638 276.08c4.58 27.92 23.09 42.43 48.08 42.42 44.46 2.8593 87 4.76 130.5 0 22.393-5.9149 29-20.44 35.365-46.58l35.71-273.69c-8.63-24-78.13-13.23-85.57-20.63v-21.6l57.59-0.4c25.32 19.88 66.45 20.14 87.41 0.4h116v-116c-37.61-0.476-76.38 1.628-113.89 0.582-2.11-6.424 2.2-10.129 6.41-15.082 34.98-19.944 20.48-72.5-23.02-72.5z" fill="#fff"/>
  <path d="m203 217.5v-14.5c0-43.5 29-87 87-87h72.5c2.3736-5.3593 5.619-14.5 14.5-18.5v-39.5l-14.5-0.000004c-19.85 0-20.33-29 0-29h58c22.256 0 21.292 29 0 29h-14.5v39.5c9.3916 4 13.022 13.187 14.5 18.5h101.5v58h-101.5c-14.5 22.689-43.5 22.359-58 0h-72.5c-14.5 0-29 14.5-29 29v14.5z" fill="#0064fe"/>
  <path d="m345.32 260.68h-0.15776c0.18038-0.15587 0.27968-0.31299 0.27968-0.47137 0-3.7314-50.95-6.7563-113.8-6.7563-62.851 0-113.8 3.0249-113.8 6.7563 0 0.15838 0.0993 0.3155 0.2803 0.47137h-0.2803l35.517 270.84c-0.25068 0.11725-0.31859 0.36218-0.32053 0.51599 0 2.5781 35.193 4.6666 78.606 4.6666s78.606-2.0885 78.606-4.6666c0-0.17409-0.16718-0.34693-0.48079-0.51599z" fill="#0064fe"/>
  <path d="m148.7 282 31.97 223.39c33.519 1.4515 67.12 1.6631 100.68 0.7461 10.82-74.62 20.38-149.41 30.72-224.14-56.616 3.1388-115.12 3.6167-163.37 0z" fill="#d8e8ff"/>
 </g>
</svg>
