<?xml version="1.0" encoding="UTF-8" standalone="no"?>
<svg xmlns:rdf="http://www.w3.org/1999/02/22-rdf-syntax-ns#" xmlns="http://www.w3.org/2000/svg" height="580" width="580" version="1.0" xmlns:cc="http://creativecommons.org/ns#" xmlns:dc="http://purl.org/dc/elements/1.1/">
 <title>suction_point</title>
 <metadata>
  <rdf:RDF>
   <cc:Work rdf:about="">
    <dc:format>image/svg+xml</dc:format>
    <dc:type rdf:resource="http://purl.org/dc/dcmitype/StillImage"/>
    <dc:title>suction_point</dc:title>
   </cc:Work>
  </rdf:RDF>
 </metadata>
 <g fill-rule="evenodd">
  <path opacity=".8" d="m29 565.5c29 0 58-29 87-29s58 29 87 29 58-29 87-29 43.5 29 72.5 29 72.5-29 101.5-29 58 29 87 29c14.5 0 29-14.5 29-29v-29c0-14.5-14.5-29-29-29-29 0-58-29-87-29s-58 29-87 29v-275.5c0-72.5-50.75-130.5-123.25-130.5h-108.75v130.5h87c14.5 0 14.5 0 14.5 14.5v242.5c-10.851 7.7165-22.734 18.5-43.5 18.5-29 0-58-29-87-29s-58 29-87 29c-14.5 0-29 14.5-29 29v29c0 14.5 14.5 29 29 29z" fill="#fff"/>
  <path d="m203 101.5c-9.9487-4.0149-19.772-3.9253-29 0v72.5c10.128 4.0694 19.735 3.8429 29 0z" fill="#808080"/>
  <path d="m217.5 101.5v72.5h29c16.917 0 29 12.083 29 29v246.5h72.5v-246.5c0-58-43.5-101.5-101.5-101.5z" fill="#0064fe"/>
 </g>
 <path d="m29 522c29 0 58-29 87-29s58 29 87 29 58-29 87-29 58 29 87 29 58-29 87-29 58 29 87 29" stroke="#0064fe" stroke-width="33" fill="none"/>
</svg>
