<?xml version="1.0" encoding="UTF-8" standalone="no"?>
<svg xmlns:rdf="http://www.w3.org/1999/02/22-rdf-syntax-ns#" xmlns="http://www.w3.org/2000/svg" height="580" width="580" version="1.0" xmlns:cc="http://creativecommons.org/ns#" xmlns:dc="http://purl.org/dc/elements/1.1/">
 <title>fire_hydrant</title>
 <metadata>
  <rdf:RDF>
   <cc:Work rdf:about="">
    <dc:format>image/svg+xml</dc:format>
    <dc:type rdf:resource="http://purl.org/dc/dcmitype/StillImage"/>
    <dc:title>fire_hydrant</dc:title>
   </cc:Work>
  </rdf:RDF>
 </metadata>
 <g fill-rule="evenodd">
  <path opacity=".8" d="m290 0c-43.5 0-43.5 0-43.5 14.5h-25c-18.5 0-26.425 14.5-33 33l-14.5 68.5v12.5l-70.433 37.056c-20.606 12.13-16.57 29.11-10.57 43.44l31 58.5c11.142 17.932 35.5 18.064 50 10l19-12.5 14 199c-16.5 6.0745-33 29-33 43.5v43.5c0 14.5 14.5 29 29 29h174c14.5 0 29-14.5 29-29v-43.5c0-14.5-16.5-37.42-33-43.5l14-199 19 12.5c14.5 8.3716 38.155 8.9844 50-10l31-58.5c6-12.25 10.365-30.975-11.232-43.444l-69.77-37.06v-12.5l-14.5-68.5c-5.2465-18.5-14.5-33-33-33h-25c0-14.5 0-14.5-43.5-14.5z" fill="#fff"/>
  <path d="m203 551h174v-43.5c0-7.4514-35-7.6903-35-29l17.6-259.75 31.424 16.363 34.7-63.656-48.72-26.45v-14.5h-174v14.5l-48.724 26.457 34.7 63.656 31.42-16.36 17.6 259.75c0 21.583-35 21.694-35 29z" fill="#0064fe"/>
  <path d="m377 116-11.5-58c-3-14.5-3-14.5-17.5-14.5h-43.5v-14.5h-29v14.5h-43.5c-14.5 0-14.5 0-17.5 14.5l-11.5 58z" fill="#0064fe"/>
  <path d="m141.54 178.4c-10.66 1.17-19.27 5.9-25.54 13.72l34.32 63.862c10.848-1.2097 19.203-5.9572 25.545-13.728z" fill="#808080"/>
  <path d="m438.46 178.4c10.664 1.173 19.275 5.9021 25.545 13.728l-34.32 63.862c-10.848-1.2097-19.203-5.9572-25.545-13.728z" fill="#808080"/>
 </g>
</svg>
