<?xml version="1.0" encoding="UTF-8" standalone="no"?>
<svg xmlns:rdf="http://www.w3.org/1999/02/22-rdf-syntax-ns#" xmlns="http://www.w3.org/2000/svg" height="580" width="580" version="1.0" xmlns:cc="http://creativecommons.org/ns#" xmlns:dc="http://purl.org/dc/elements/1.1/">
 <title>archaeological_site</title>
 <metadata>
  <rdf:RDF>
   <cc:Work rdf:about="">
    <dc:format>image/svg+xml</dc:format>
    <dc:type rdf:resource="http://purl.org/dc/dcmitype/StillImage"/>
    <dc:title>archaeological_site</dc:title>
   </cc:Work>
  </rdf:RDF>
 </metadata>
 <path opacity=".8" d="m145 58v72.5c-43.5 14.5-87 43.5-87 87 0 87 65.806 117.71 101.5 159.5 14.5 29 31.451 58 38.387 69.793-7.529 3.9194-16.874 9.7896-24.887 12.682v63.53h234v-62.451c-7.5843-5.2498-16.427-8.2049-24.344-12.863 20.29-25.3 27.34-40.39 37.84-70.69 38.61-42.49 101.5-72.5 101.5-159.5 0-43.5-43.5-72.5-87-87v-72.5z" fill="#fff"/>
 <path fill="#672400" d="m174 87v29h29c17.37 0 24.39 30.25 27.19 55.28-27.19-26.28-70.69-11.78-99.69 2.72s-43.5 29-43.5 58c0 43.5 58 87 101.5 130.5 10.63 39.41 23.85 60.1 43.5 79.75v21.75l-29 14.5v14.5h174v-14.5l-29-14.5v-21.75c19.65-19.65 32.87-40.34 43.5-79.75 43.5-43.5 101.5-87 101.5-130.5 0-29-14.5-43.5-43.5-58s-72.5-29-99.69-2.72c2.8-25.03 9.82-55.28 27.19-55.28h29v-29h-232zm13.46 99.93c13.58-0.34 27.06 3.59 36.38 16.98-42.56 17.67-45.84 62.36-45.84 100.59-18.5-14.5-62-43.5-62-72.5 7.12-28.54 34.44-38.7 58-43.5 4.4-0.87 8.94-1.46 13.46-1.57zm205.15 0.18c4.53 0.07 9.05 0.59 13.39 1.39 26.26 6.33 57.48 21.41 58 43.5 0 29-43.5 58-62 72.5 0-39.35-6.49-85.53-45.84-100.59 9.13-13.1 22.85-17.01 36.45-16.8z"/>
</svg>
