<?xml version="1.0" encoding="UTF-8" standalone="no"?>
<svg xmlns:rdf="http://www.w3.org/1999/02/22-rdf-syntax-ns#" xmlns="http://www.w3.org/2000/svg" height="580" width="580" version="1.0" xmlns:cc="http://creativecommons.org/ns#" xmlns:dc="http://purl.org/dc/elements/1.1/">
 <title>monument</title>
 <metadata>
  <rdf:RDF>
   <cc:Work rdf:about="">
    <dc:format>image/svg+xml</dc:format>
    <dc:type rdf:resource="http://purl.org/dc/dcmitype/StillImage"/>
    <dc:title>monument</dc:title>
   </cc:Work>
  </rdf:RDF>
 </metadata>
 <path opacity=".8" d="m116 522h348c14.5 0 29-14.5 29-29v-14.5c0-29-29-43.5-58-43.5 0-29-29-58-58-58v-232c0-43.5-58-87-87-87s-87 43.5-87 87v232c-29 0-58 29-58 58-29 0-58 14.5-58 43.5v14.5c0 14.5 14.5 29 29 29z" fill-rule="evenodd" fill="#fff"/>
 <path d="m290 87c-14.5 0-58 43.5-58 58v232h116v-232c0-14.5-43.5-58-58-58zm-87 319c-14.5 0-29 14.5-29 29v29h-37c-15.185 0-21 6.8905-21 14.5v14.5h348l0.74421-14.855c0.36-7.12-7.48-14.14-21.74-14.14h-37v-29c0-14.5-14.5-29-29-29z" fill="#672400"/>
</svg>
