<?xml version="1.0" encoding="UTF-8" standalone="no"?>
<svg xmlns:rdf="http://www.w3.org/1999/02/22-rdf-syntax-ns#" xmlns="http://www.w3.org/2000/svg" height="580" width="580" version="1.0" xmlns:cc="http://creativecommons.org/ns#" xmlns:dc="http://purl.org/dc/elements/1.1/">
 <title>wreck</title>
 <metadata>
  <rdf:RDF>
   <cc:Work rdf:about="">
    <dc:format>image/svg+xml</dc:format>
    <dc:type rdf:resource="http://purl.org/dc/dcmitype/StillImage"/>
    <dc:title>wreck</dc:title>
   </cc:Work>
  </rdf:RDF>
 </metadata>
 <path opacity=".8" d="m334.13 103.25c-22.879-0.0725-41.836 19.971-45.428 41.713l-57.67 157.96-139.77-42.99c-18.76-8.19-47.76 9.04-37.155 31.44 14.197 28.11 28.496 56.17 41.756 84.417-17.767-0.62305-38.476-0.0203-51.609 13.723-16.347 20.052-4.5542 56.107 21.611 60.385l445.79-0.10156c12.889-0.85881 24.497-9.7834 28.49-22.098 6.9807-17.719-0.22092-41.872-19.344-48.324-22.68-8.4099-48.206 2.0666-70.267-8.5873l-134.48-41.64 63.72-179.27c2.2894-24.929-21.187-47.397-45.639-46.619z" fill="#fff"/>
 <path fill="#672400" d="m334.31 133.38c-5.4 0.04-10.66 2.87-12.87 9.4l-72.01 197.2-162.43-49.98 58 116h-72.5c-7.884 0-7.64 14.5 0 14.5h435c7.82 0 6.47-14.5 0-14.5h-43.5l-186.82-57.48 71.73-196.44c3.01-8.9-2.38-15.58-9.27-17.86-1.72-0.57-3.53-0.86-5.33-0.84z"/>
</svg>
