<?xml version="1.0" encoding="UTF-8" standalone="no"?>
<svg xmlns:rdf="http://www.w3.org/1999/02/22-rdf-syntax-ns#" xmlns="http://www.w3.org/2000/svg" height="580" width="580" version="1.0" xmlns:cc="http://creativecommons.org/ns#" xmlns:dc="http://purl.org/dc/elements/1.1/">
 <title>battlefield</title>
 <metadata>
  <rdf:RDF>
   <cc:Work rdf:about="">
    <dc:format>image/svg+xml</dc:format>
    <dc:type rdf:resource="http://purl.org/dc/dcmitype/StillImage"/>
    <dc:title>battlefield</dc:title>
   </cc:Work>
  </rdf:RDF>
 </metadata>
 <path opacity=".8" d="m550.74 48.488c-95.08 22.565-184.6 67.972-259.38 130.84-75.54-63.41-165.98-109.51-262.28-131.26-29.08 1.089-43.291 38.93-7.516 65.82 66.684 42.75 130.67 89.9 189.92 142.54-16.73 17.33-33.16 34.95-49.28 52.85-29.01-14.31-65.433-20.11-94.911-3.91-67.289 42.63-57.007 110.79-19.113 155.59 0.94531 61.045 52.617 79.952 90.658 45.701 19.223-18.908 35.106-48.513 53.789-62.346 26.093-2.9773 47.63-28.594 45.109-54.916 17.618-19.214 35.245-38.429 53.516-57.027 17.349 18.193 36.077 35.264 50.975 55.631-3.2245 28.716 22.138 57.323 51.215 56.666 22.847 25.498 40.487 56.925 70.027 75.564 63.76 14.08 77.4-27.23 71.9-63.74 37.54-21.49 32.4-89.18 4.75-128.05-32.65-40.68-78.23-39.67-119.81-19.43-16.02-17.9-32.48-35.39-49.17-52.67 58.14-51.81 121.47-97.19 186.12-140.46 38.29-23.203 22.72-75.179-6.54-67.392z" fill-rule="evenodd" fill="#fff"/>
 <g fill="#672400">
  <g fill-rule="evenodd">
   <path d="m466.51 486.54c-112.7-138.65-233.71-277.65-450.8-411.79 104.85 25.39 204.32 74.24 288.96 157.08 75.891 74.28 139.84 147.2 194.2 218.68 0 0 13.237 19.732 0 36.032s-33.094 0.85789-32.358 0z"/>
   <path d="m116.26 486.54c112.7-138.65 233.71-277.65 450.8-411.79-104.85 25.39-204.32 74.24-288.96 157.08-75.89 74.28-139.83 147.2-194.2 218.68 0 0-13.237 19.732 0 36.032s33.094 0.85789 32.358 0z"/>
   <path d="m493.21 451.92s40.866-24.162 38.659-59.335c-2.21-35.16-24.36-64.29-50.74-66.91-34.57-3.43-67.4 22.33-67.4 22.33l26.475 36.032s40.918-31.764 56.362-11.174-12.185 70.488-12.185 70.488z"/>
   <path d="m86.788 451.92s-40.866-24.162-38.659-59.335c2.206-35.16 24.364-64.29 50.743-66.91 34.568-3.43 70.948 22.33 70.948 22.33l-26.475 36.032s-44.475-31.764-59.919-11.174 12.185 70.488 12.185 70.488z"/>
  </g>
  <ellipse rx="20.714" ry="20.714" cy="393.57" cx="393"/>
  <ellipse rx="20.714" ry="20.714" cy="393.57" cx="187"/>
 </g>
</svg>
