<?xml version="1.0" encoding="UTF-8" standalone="no"?>
<svg xmlns:rdf="http://www.w3.org/1999/02/22-rdf-syntax-ns#" xmlns="http://www.w3.org/2000/svg" height="580" width="580" version="1.0" xmlns:cc="http://creativecommons.org/ns#" xmlns:dc="http://purl.org/dc/elements/1.1/">
 <title>stadium</title>
 <metadata>
  <rdf:RDF>
   <cc:Work rdf:about="">
    <dc:format>image/svg+xml</dc:format>
    <dc:type rdf:resource="http://purl.org/dc/dcmitype/StillImage"/>
    <dc:title>stadium</dc:title>
   </cc:Work>
  </rdf:RDF>
 </metadata>
 <path opacity=".8" d="m287.88 129.31c-79.056 0.90317-160.58 7.5581-233.11 41.611-26.708 13.279-50.127 38.443-52.61 69.274-1.1887 23.486 13.726 44.146 14.429 67.313 7.2067 41.311 10.552 83.957 25.761 123.35 17.307 27.606 48.763 41.383 78.35 51.679 23.429 7.753 48.058 11.278 72.082 16.141 10.22 16.36 29.63 23.33 48.06 23.33h99.394c19.867 0 36.762-6.566 47.34-23.969 48.06-6.6084 98.087-18.417 136.26-50.125 19.473-17.57 24.76-44.838 27.727-69.711 7.158-42.392 14.525-84.801 25.963-126.21 3.3375-30.726-15.724-60.759-42.449-74.934-41.474-26.07-91.013-33.449-138.47-41.189-36.022-4.7949-72.393-6.7274-108.72-6.5515z" fill="#fff"/>
 <g fill="#aaa">
  <path d="m290 250.73c-57.192 0-126.38 10.897-185.57 28.001 55.07 15.55 127.57 24.79 185.57 24.79s145-10.011 202.08-28.052c-64.17-15.18-144.89-24.74-202.08-24.74z"/>
  <g fill-rule="evenodd">
   <path d="m234.3 190.69 13.946 67.127 11.66-0.67746-3.9924-67.32z"/>
   <path d="m337.21 190.22-4.0338 66.318 12.796 0.53689 12.851-66.798z"/>
   <path d="m430.08 201.29-26.643 59.245 13.028 2.2761 37.664-56.13z"/>
   <path d="m137.7 205.19 41.269 60.601 12.652-2.0275-28.829-64.082z"/>
  </g>
 </g>
 <g fill="#202020">
  <path d="m36.186 246.17 26.678 156c4.3972 19.317 15.655 25.683 25.736 32.701 12.672 8.8147 29.253 15.584 49.178 21.379 39.85 11.589 93.242 18.445 152.22 18.445 58.981 0 112.32-6.8561 152.17-18.445 19.925-5.7946 36.509-12.633 49.229-21.379 12.717-8.7441 22.59-18.208 24.33-28.482 9.7762-53.352 19.556-106.7 29.334-160.05l-27.03-4.97-30.07 166.72c-38.63 24.38-112.79 40.88-197.95 40.88-85.149 0-159.31-16.481-197.95-40.855l-28.763-166.59z"/>
  <path d="m362.5 414v65c0 7.7333-9.1118 14-21.5 14h-102.5c-12.388 0-21-6.2667-21-14v-65c0-51.5 145-51.5 145 0z"/>
  <path d="m290 159.21c-67.738 0-129.02 7.6453-174.79 20.568-22.883 6.4613-41.873 14.083-56.482 23.835-14.608 9.7521-26.551 23.171-26.551 40.6 0 17.43 11.942 30.848 26.551 40.6 14.608 9.7521 33.598 17.427 56.482 23.889 45.767 12.923 107.05 20.568 174.79 20.568 67.738 0 129.02-7.6453 174.79-20.568 22.883-6.4613 41.928-14.137 56.536-23.889 14.608-9.7521 26.551-23.171 26.551-40.6 0-17.43-11.942-30.848-26.551-40.6-14.608-9.7521-33.653-17.374-56.536-23.835-45.77-12.92-107.05-20.57-174.79-20.57zm0 34.28c65.028 0 123.95 7.5848 165.19 19.229 20.619 5.822 36.784 12.793 46.505 19.282 9.7208 6.4893 11.285 10.898 11.285 12.212 0 1.3142-1.5646 5.7765-11.285 12.266-9.7208 6.4893-25.885 13.46-46.505 19.282-41.25 11.65-100.17 19.24-165.2 19.24-65.028 0-123.9-7.5848-165.14-19.229-20.619-5.822-36.838-12.793-46.559-19.282-9.7208-6.4893-11.231-10.952-11.231-12.266 0-1.3142 1.5101-5.7229 11.231-12.212 9.7208-6.4893 25.94-13.46 46.559-19.282 41.24-11.65 100.11-19.24 165.14-19.24z"/>
 </g>
</svg>
