<?xml version="1.0" encoding="UTF-8" standalone="no"?>
<svg xmlns:rdf="http://www.w3.org/1999/02/22-rdf-syntax-ns#" xmlns="http://www.w3.org/2000/svg" height="580" width="580" version="1.1" xmlns:cc="http://creativecommons.org/ns#" xmlns:dc="http://purl.org/dc/elements/1.1/">
 <title>water_tower</title>
 <metadata>
  <rdf:RDF>
   <cc:Work rdf:about="">
    <dc:format>image/svg+xml</dc:format>
    <dc:type rdf:resource="http://purl.org/dc/dcmitype/StillImage"/>
    <dc:title>water_tower</dc:title>
   </cc:Work>
  </rdf:RDF>
 </metadata>
 <g>
  <path opacity=".8" d="m116 58v145c0 29 14.5 72.5 50 94.5l-21 224.5h101.5v-43.5l43.5-36 43.5 36v43.5h101.5l-22-225c36.5-21.5 51-65 51-94v-145h-101.5v29h-145v-29z" fill-rule="evenodd" fill="#fff"/>
  <path d="m290 275.5c87 0 130.5-58 116-145-8.0184-0.32751-20.963-0.8125-29-0.8125-32.686 14.5-58 14.5-87 0s-56.894-14.5-87 0c-9.757 0.64335-19.358-0.54505-28.968-1.8925-14.53 89.7 28.97 147.7 115.97 147.7z" fill="#0064fe"/>
  <path fill="#202020" d="m145 87v101.5c0 41.96 22.93 71.12 55.28 89.81l-26.28 214.69h43.5l5.44-43.41 67.06-44.4 67.06 45.31 5.44 42.5h43.5l-26.28-213.78c32.61-18.65 55.28-48.3 55.28-90.72v-101.5h-43.5v101.5c0 43.5-41.9 68.5-101.5 68.5s-101.5-25-101.5-68.5v-101.5h-43.5zm96.97 207.62c31.01 7.75 65.04 8.52 96.06 0.91l5.44 45.31-53.47 35.35-53.47-35.35 5.44-46.22zm-9.06 72.5l35.34 23.57-41.69 28.09 6.35-51.66zm114.18 0l6.35 51.66-41.69-28.09 35.34-23.57z"/>
 </g>
</svg>
