<?xml version="1.0" encoding="UTF-8" standalone="no"?>
<svg xmlns:rdf="http://www.w3.org/1999/02/22-rdf-syntax-ns#" xmlns="http://www.w3.org/2000/svg" height="580" width="580" version="1.1" xmlns:cc="http://creativecommons.org/ns#" xmlns:dc="http://purl.org/dc/elements/1.1/">
 <title>mineshaft</title>
 <metadata>
  <rdf:RDF>
   <cc:Work rdf:about="">
    <dc:format>image/svg+xml</dc:format>
    <dc:type rdf:resource="http://purl.org/dc/dcmitype/StillImage"/>
    <dc:title>mineshaft</dc:title>
   </cc:Work>
  </rdf:RDF>
 </metadata>
 <path opacity=".8" d="m396.06 61.551-93.904 93.906 37.672 37.672-45.844 45.844-47.729-47.729c13.741-11.502 28.231-22.045 42.707-32.641l-96.47-96.463c-55.08 42.963-107.24 92.333-141.17 154.15l95.975 88.941c10.513-15.272 20.952-30.548 32.369-45.096l46.57 46.58-145.14 145.15 67.74 67.73 145.14-145.14 145.14 145.14 67.74-67.73-145.09-145.1 46.04-45.73c7.9456 9.1036 18.342 19.863 31.619 17.953h81.568v-95.32l-123.53-123.53-0.7071 0.70711z" fill="#fff"/>
 <path d="m453.2 465.93-286.59-286.59" stroke="#4c4c4c" stroke-width="39.804" fill="none"/>
 <path stroke-linejoin="round" d="m134.76 465.93 286.59-286.59" stroke="#4c4c4c" stroke-width="39.804" fill="none"/>
 <path d="m341.75 155.46 55.726-55.726 95.53 95.53v55.726h-55.726z" stroke-width="0" fill="#4c4c4c"/>
 <path d="m190.49 99.731 55.726 55.726c-41.265 31.275-75.173 67.453-103.49 107.36l-55.73-51.64c27.468-43.355 63.854-78.836 103.49-111.45z" stroke-width="0" fill="#4c4c4c"/>
</svg>
