<?xml version="1.0" encoding="UTF-8" standalone="no"?>
<svg xmlns:rdf="http://www.w3.org/1999/02/22-rdf-syntax-ns#" xmlns="http://www.w3.org/2000/svg" height="580" width="580" version="1.0" xmlns:cc="http://creativecommons.org/ns#" xmlns:dc="http://purl.org/dc/elements/1.1/">
 <title>watermill</title>
 <metadata>
  <rdf:RDF>
   <cc:Work rdf:about="">
    <dc:format>image/svg+xml</dc:format>
    <dc:type rdf:resource="http://purl.org/dc/dcmitype/StillImage"/>
    <dc:title>watermill</dc:title>
   </cc:Work>
  </rdf:RDF>
 </metadata>
 <path opacity=".8" d="m290 58c-130.5 0-232 101.5-232.93 233.42 0.93 27.58 6.788 63.75 19.637 92.76l-52.789 21c-22.349 6.55-23.87 25.38-23.918 44.32v29.707c0 13.79 14.8 18.53 28.293 18.6 36.201 1.66 58.707-28.03 87.707-28.03s58 27.901 87 28.183c29 0.28249 58-28.209 87-28.209s58 28.723 87 28.723 58-28.598 87-28.598 58 27.259 87.043 27.698c14.46 0.17 28.96-4.58 28.96-19.08l0.54185-43.157c-0.41553-22.502-9.0397-27.748-29.018-33.153-17.786-3.0064-31.027-10.244-47.816-18.631 13.15-29.37 18.29-64.56 19.18-93.56-0.89-130.5-102.39-232-232.89-232z" fill-rule="evenodd" fill="#fff"/>
 <path fill-rule="evenodd" fill="#672400" d="m290 86.996c-112.11 0-203 90.894-203 203-0.004 26.17 4.962 51.19 13.99 74.17 4.77-1.05 9.77-1.67 15.01-1.67 16.87 0.25 32.46 8.99 45.15 15.33l67.33-67.32 41.01 41.01-27.95 27.95c16.16-7.97 32.31-16.96 48.46-16.96s32.31 8.99 48.46 16.97l-27.95-27.96 41.01-41.01 67.32 67.32c15.05-7.52 30.1-15.32 45.16-15.32 5.24 0 10.23 0.62 15.01 1.66 9.03-22.97 13.99-47.99 13.99-74.17 0-112.12-90.89-203-203-203zm0 43.504c22.79 0 44.46 4.79 64.07 13.4l-64.07 64.07-64.07-64.07c19.61-8.61 41.28-13.4 64.07-13.4zm-90.4 28.09l69.89 69.89-41.01 41.01-69.89-69.89c11.05-16.04 24.97-29.96 41.01-41.01zm180.8 0c16.04 11.05 29.96 24.97 41.01 41.01l-69.89 69.89-41.01-41.01 69.89-69.89zm-236.5 67.34l64.07 64.07-64.07 64.08c-8.62-19.61-13.4-41.29-13.4-64.08s4.79-44.46 13.4-64.07zm292.2 0c8.61 19.61 13.4 41.28 13.4 64.07s-4.78 44.47-13.39 64.08l-64.08-64.08 64.07-64.07zm-146.1 23.06l41.01 41.01-41.01 41.01-41.01-41.01 41.01-41.01z"/>
 <path stroke="#0064fe" stroke-width="33" d="m29 451.5c29 0 58-29 87-29s58 29 87 29 58-29 87-29 58 29 87 29 58-29 87-29 58 29 87 29" fill="none"/>
</svg>
