<?xml version="1.0" encoding="UTF-8" standalone="no"?>
<svg xmlns:rdf="http://www.w3.org/1999/02/22-rdf-syntax-ns#" xmlns="http://www.w3.org/2000/svg" height="580" width="580" version="1.1" xmlns:cc="http://creativecommons.org/ns#" xmlns:dc="http://purl.org/dc/elements/1.1/">
 <title>mineshaft_disused</title>
 <metadata>
  <rdf:RDF>
   <cc:Work rdf:about="">
    <dc:format>image/svg+xml</dc:format>
    <dc:type rdf:resource="http://purl.org/dc/dcmitype/StillImage"/>
    <dc:title>mineshaft_disused</dc:title>
   </cc:Work>
  </rdf:RDF>
 </metadata>
 <path opacity=".8" d="m81.098 127.87 145.14 145.14-46.57 46.58c-11.42-14.57-21.88-29.85-32.4-45.07l-95.947 88.91c33.929 61.825 86.094 111.2 141.17 154.16l96.459-96.467c-14.482-10.597-28.984-21.154-42.701-32.643l47.727-47.727 45.844 45.844-37.672 37.672 95.318 95.32 123.53-123.53v-95.318h-95.318l-18.117 18.117-45.84-45.85 145.14-145.14-67.74-67.739-145.14 145.15-145.14-145.15z" fill="#fff"/>
 <path d="m453.2 113.8-286.59 286.59" stroke="#4c4c4c" stroke-width="39.804" fill="none"/>
 <path stroke-linejoin="round" d="m134.76 113.8 286.59 286.59" stroke="#4c4c4c" stroke-width="39.804" fill="none"/>
 <path d="m341.75 424.27 55.726 55.726 95.53-95.53v-55.726h-55.726z" stroke-width="0" fill="#4c4c4c"/>
 <path d="m190.49 480 55.726-55.726c-41.27-31.28-75.18-67.45-103.49-107.36l-55.73 51.63c27.468 43.355 63.854 78.836 103.49 111.45z" stroke-width="0" fill="#4c4c4c"/>
</svg>
