<?xml version="1.0" encoding="UTF-8" standalone="no"?>
<svg xmlns:rdf="http://www.w3.org/1999/02/22-rdf-syntax-ns#" xmlns="http://www.w3.org/2000/svg" height="580" width="580" version="1.0" xmlns:cc="http://creativecommons.org/ns#" xmlns:dc="http://purl.org/dc/elements/1.1/">
 <title>stone</title>
 <metadata>
  <rdf:RDF>
   <cc:Work rdf:about="">
    <dc:format>image/svg+xml</dc:format>
    <dc:type rdf:resource="http://purl.org/dc/dcmitype/StillImage"/>
    <dc:title>stone</dc:title>
   </cc:Work>
  </rdf:RDF>
 </metadata>
 <path opacity=".8" d="m137.93 348c9.0059-19.26 20.385-37.993 34.248-54.027l40.02-32.97s19.8-133.28 48.8-203c5.2504-12.622 16.37-23.768 29-29 12.852-5.3233 29.406-6.448 41.732 0 25.832 13.514 40.625 43.882 49.876 71.845 19.929 64.555 56.203 144.28 69.054 190.34 12.851 46.057 3.944 57.768-1.7138 85.813-3.6442 18.064-19.323 29-20.412 51.378-7.4557 18.077-19.559 38.396-40.496 42.423-20.89 8.46-49.16 11.72-69.04 22.21 0 0-11.414 29-29 29-23.818 0-37.848-14.147-58-38.231-13.769 9.0036-25.353 20.925-43.185 20.156-11.52-1.14-14.82-1.26-26.92-11.16-17.75-15.91-38.48-35.54-37.99-58.94 0.74-35.69 1.6-59.27 14.02-85.82z" fill-rule="evenodd" fill="#fff"/>
 <path d="m309.17 58l-3.07 6.137c-2.87 0.899-4.76 4.239-6.37 8.261l-2.6-8.261c-5.13 3.784-9.65 8.028-12.27 13.689l-6.85 25.024-25.49 116.12c-5.97 22.66-10.91 45.32-19.82 67.98-7.83 2.98-17.89 5.32-21.72 9.44-8.82 8.95-17.12 19.06-27.38 24.78-8.17 9.77-13.45 20.37-17.23 31.39l-2.83 33.75-9.92 16.53 0.02 12.29-3.08 3.05c2.25 5.38 2.38 12.88 8.02 14.87 2.86 8.42 4.31 16.84 4.01 25.25 7.64 8.58 16.1 12.98 24.32 18.65 8.52-5.5 17.79-5.76 26.9-7.08v0.71l8.03-4.72c4.29-13.22 8.67-26.4 16.05-37.77l-0.27-7.4 6.64 1.97c0.33 6.3 2.2 12.59-0.94 18.88l18.17 17.94c0.89 0.01 1.78 0.02 2.68 0.03l-7.4 4.93-1.42 6.85 13.22 18.64 13.46 3.07 29.5-28.56-2.95-3.75c8.86-0.05 17.65-0.53 26.31-1.91 21.99-22.7 42.65-21.56 63.97-32.34 4.38-12.07 7.87-24.44 8.5-37.76l20.29-36.35-3.17-42.18-27.2-82.61-19.66-43.97-12.51-42.02c-4.14-12.4-6.89-22.87-12.75-34.46-1.39-2.19-3.42-3.92-7.32-4.24l-4.72-15.11c-8.6-5.339-10.79-16.596-20.53-23.603l-3.31 4.011c-2.16-4.772-4.52-8.514-7.31-10.148z" fill-rule="evenodd" fill="#672400"/>
 <g stroke="#fff" stroke-linecap="round" fill="none">
  <g stroke-width="10">
   <path d="m211.17 378.11s-4.7277 8.0202-4.6754 12.454c0.0771 6.5301 6.0747 11.763 7.3169 18.174 3.1126 16.066-4.3856 33.328 0 49.094 0.98143 3.5282 5.6732 9.4084 5.6732 9.4084"/>
   <path d="m334.9 458.78c9.0028-31.417 31.8-54.952 48.622-81.902 9.9726-7.4084 20.13-14.694 26.435-24.547 6.9454-3.6565 11.872-0.2485 17.702 0"/>
   <path d="m229.5 283.35-18.328 94.759-23.794 3.0131-36.821 37.057"/>
  </g>
  <path d="m260.07 458.08s22.067-6.5341 29.93-5.93c5.466 1.9481 21.529 12.289 21.529 12.289" stroke-width="8"/>
 </g>
</svg>
