<?xml version="1.0" encoding="UTF-8" standalone="no"?>
<svg xmlns:rdf="http://www.w3.org/1999/02/22-rdf-syntax-ns#" xmlns="http://www.w3.org/2000/svg" height="580" width="580" version="1.0" xmlns:cc="http://creativecommons.org/ns#" xmlns:dc="http://purl.org/dc/elements/1.1/">
 <title>cave_entrance</title>
 <metadata>
  <rdf:RDF>
   <cc:Work rdf:about="">
    <dc:format>image/svg+xml</dc:format>
    <dc:type rdf:resource="http://purl.org/dc/dcmitype/StillImage"/>
    <dc:title>cave_entrance</dc:title>
   </cc:Work>
  </rdf:RDF>
 </metadata>
 <path opacity=".8" fill="#fff" d="m330.84 128.84c-79.26 5.38-158.83 36.12-214.31 94.26-42.53 43.92-75.747 95.62-110.37 145.7-19.802 34.184 13.723 67.798 43.218 69.86 168.12 19.939 342.12 21.469 491.16-1.675 42.941-13.818 47.322-50.156 26.669-81.379-51.53-75.58-114.28-148.27-176.12-205.7-18.81-16.01-35.54-22.3-60.25-21.07z"/>
 <path fill="#e8e8e8" d="m35.625 399.85c2.3672-5.4809 36.631-50.023 70.976-96.358 49.255-66.449 74.332-83.691 119.77-103.24 71.11-30.59 121.97-33.86 148.33-6.06 63.34 66.81 148.55 158.51 170.33 204.25 8.59 17.65-182.54 25.79-255.04 25.83s-265.65-9.78-254.39-24.42z"/>
 <path d="m148.56 399.33c0-32.367 90.192-134.77 118.7-134.77 45.606 0 92.847 28.288 127.26 76.201 20.306 28.276 37.164 54.529 36.92 58.323-0.45 6.92-63.65 6.92-141.44 6.92-77.791 0-141.22-1.4429-141.44-6.6681z" fill="#202020"/>
 <path fill="#202020" d="m317.41 159.59c-29.652 3.2743-114.06 21.445-165.42 70.506-48.173 46.011-81.576 99.11-119.98 152.38-4.7996 6.4949-3.3686 15.659 3.1825 20.382 6.5511 4.7226 15.698 3.1835 20.343-3.4229 39.051-54.172 71.566-105.47 116.48-148.37 41.725-39.852 126.16-60.179 148.58-62.654 23.089-2.5496 28.304 1.2315 40.854 13.086 10.997 10.388 123.63 128.65 162.02 196.23 3.8977 7.0842 12.836 9.6123 19.867 5.6191 7.0308-3.9933 9.4377-12.965 5.3497-19.941-42.91-75.55-150.51-187.11-167.32-202.99-22.23-19.05-39.25-23.37-63.95-20.83z" fill-rule="evenodd"/>
</svg>
