<?xml version="1.0" encoding="UTF-8" standalone="no"?>
<svg xmlns:rdf="http://www.w3.org/1999/02/22-rdf-syntax-ns#" xmlns="http://www.w3.org/2000/svg" height="580" width="580" version="1.1" xmlns:cc="http://creativecommons.org/ns#" xmlns:dc="http://purl.org/dc/elements/1.1/">
 <title>spring</title>
 <metadata>
  <rdf:RDF>
   <cc:Work rdf:about="">
    <dc:format>image/svg+xml</dc:format>
    <dc:type rdf:resource="http://purl.org/dc/dcmitype/StillImage"/>
    <dc:title>spring</dc:title>
   </cc:Work>
  </rdf:RDF>
 </metadata>
 <path opacity=".8" d="m290 0c-94.238 0-174 79.109-174 174 0 53.668 21.023 100.22 67.164 136.12-20.487 43.5 0.13296 100.27 42.521 122.17 19.097 11.457 41.446 17.427 60.867 27.191-11.914 7.061-26.502 3.5938-39.416 7.373-58.637 15.005-53.913 88.796-9.0703 107.22 27.407 10.593 57.51 3.2055 84.545-4.8148 48.145-16.979 84.151-65.772 82.464-117.36-2.85-60.4-38.25-89.4-94.4-106.5 103.44-11.9 153.33-89.62 153.33-171.4 0-93.318-79.76-174-174-174z" fill="#fff"/>
 <path d="m290 29a145 145 0 0 0 -145 145 145 145 0 0 0 77.42 128.19c-11.13 11.86-19.42 26.52-19.42 45.81 0 24.17 14.82 44.83 30.36 55.84 21.59 14.7 44.72 20.42 66.87 30.29 18.28 8.57 21.62 13.74 17.07 30.04-7.75 24.46-39.73 28.68-56.3 28.83-16.18-0.23-29.41 12.82-29.41 29s13.23 29.23 29.41 29c33.83 0 63.15-8.57 84.35-27.11 21.19-18.55 31.65-46.2 31.65-74.39 0-24.17-14.82-44.83-30.36-55.84-23.59-18.4-56.2-20.97-79.75-37.15-13.63-8.74 4.77-21.08 11.3-25.97 5.39-3.95 11.75-7.93 18.57-11.78a145 145 0 0 0 138.24 -144.76 145 145 0 0 0 -145 -145z" fill="#0064fe"/>
</svg>
