<?xml version="1.0" encoding="UTF-8" standalone="no"?>
<svg xmlns:rdf="http://www.w3.org/1999/02/22-rdf-syntax-ns#" xmlns="http://www.w3.org/2000/svg" height="580" width="580" version="1.0" xmlns:cc="http://creativecommons.org/ns#" xmlns:dc="http://purl.org/dc/elements/1.1/">
 <title>sac_scale_t5</title>
 <metadata>
  <rdf:RDF>
   <cc:Work rdf:about="">
    <dc:format>image/svg+xml</dc:format>
    <dc:type rdf:resource="http://purl.org/dc/dcmitype/StillImage"/>
    <dc:title>sac_scale_t5</dc:title>
   </cc:Work>
  </rdf:RDF>
 </metadata>
 <g>
  <path d="m0 145c0-29 29-58 58-58h464c29 0 58 29 58 58v290c0 29-29 58-58 58h-464c-29 0-58-29-58-58z" fill="#7695ff"/>
  <path d="m183.58 402.69v-189.22h-67.58v-38.529h180.99v38.529h-67.425v189.22h-45.986z"/>
  <path d="m317.19 344.12 43.5-4.5054c1.2429 9.8393 4.9196 17.659 11.03 23.459 6.1107 5.6964 13.154 8.5446 21.129 8.5446 9.1143 0 16.83-3.6768 23.148-11.03 6.3179-7.4571 9.4768-18.643 9.4768-33.557 0-13.982-3.1589-24.443-9.4768-31.382-6.2143-7.0429-14.345-10.564-24.391-10.564-12.532 0-23.77 5.5411-33.712 16.623l-35.421-5.1268 22.371-118.54h115.43v40.859h-82.339l-6.8357 38.684c9.7357-4.8679 19.679-7.3018 29.829-7.3018 19.368 0 35.784 7.0429 49.248 21.129s20.196 32.366 20.196 54.841c0 18.746-5.4375 35.473-16.312 50.18-14.811 20.093-35.37 30.139-61.677 30.139-21.025 0-38.166-5.6446-51.423-16.934s-21.18-26.462-23.77-45.52z"/>
 </g>
</svg>
