<?xml version="1.0" encoding="UTF-8" standalone="no"?>
<svg xmlns:rdf="http://www.w3.org/1999/02/22-rdf-syntax-ns#" xmlns="http://www.w3.org/2000/svg" height="580" width="580" version="1.0" xmlns:cc="http://creativecommons.org/ns#" xmlns:dc="http://purl.org/dc/elements/1.1/">
 <title>sac_scale_t2</title>
 <metadata>
  <rdf:RDF>
   <cc:Work rdf:about="">
    <dc:format>image/svg+xml</dc:format>
    <dc:type rdf:resource="http://purl.org/dc/dcmitype/StillImage"/>
    <dc:title>sac_scale_t2</dc:title>
   </cc:Work>
  </rdf:RDF>
 </metadata>
 <path d="m0 145c0-29 29-58 58-58h464c29 0 58 29 58 58v290c0 29-29 58-58 58h-464c-29 0-58-29-58-58z" fill="#ee7676"/>
 <path d="m182.91 404.17v-190.44h-68.017v-38.777h182.16v38.777h-67.861v190.44h-46.283z"/>
 <path d="m465.14 363.36v40.809h-154.02c1.6678-15.427 6.6715-30.021 15.011-43.781 8.3393-13.863 24.809-32.21 49.409-55.039 19.805-18.45 31.949-30.959 36.431-37.527 6.0459-9.0687 9.0689-18.033 9.0689-26.894 0-9.7987-2.6581-17.304-7.9744-22.516-5.212-5.3163-12.457-7.9744-21.734-7.9744-9.1727 0-16.47 2.7623-21.891 8.287-5.4205 5.5247-8.5477 14.698-9.3816 27.519l-43.781-4.3781c2.606-24.183 10.789-41.539 24.548-52.067s30.959-15.792 51.598-15.792c22.62 0 40.393 6.098 53.319 18.294s19.389 27.363 19.389 45.5c0 10.32-1.8763 20.171-5.6289 29.552-3.6484 9.2773-9.4857 19.024-17.512 29.239-5.3163 6.7753-14.906 16.522-28.77 29.239-13.863 12.717-22.672 21.161-26.425 25.33-3.6484 4.1696-6.6192 8.2349-8.9125 12.196l87.256 0.004z"/>
</svg>
