<?xml version="1.0" encoding="UTF-8" standalone="no"?>
<svg xmlns:rdf="http://www.w3.org/1999/02/22-rdf-syntax-ns#" xmlns="http://www.w3.org/2000/svg" height="580" width="580" version="1.0" xmlns:cc="http://creativecommons.org/ns#" xmlns:dc="http://purl.org/dc/elements/1.1/">
 <title>sac_scale_t6</title>
 <metadata>
  <rdf:RDF>
   <cc:Work rdf:about="">
    <dc:format>image/svg+xml</dc:format>
    <dc:type rdf:resource="http://purl.org/dc/dcmitype/StillImage"/>
    <dc:title>sac_scale_t6</dc:title>
   </cc:Work>
  </rdf:RDF>
 </metadata>
 <g>
  <path d="m0 145c0-29 29-58 58-58h464c29 0 58 29 58 58v290c0 29-29 58-58 58h-464c-29 0-58-29-58-58z" fill="#7695ff"/>
  <path d="m183.58 402.69v-189.22h-67.58v-38.529h180.99v38.529h-67.425v189.22h-45.986z"/>
  <path d="m464.47 230.71-42.257 4.6607c-1.0357-8.7-3.7286-15.121-8.0786-19.264-4.35-4.1428-9.9946-6.2143-16.934-6.2143-9.2179 0-17.038 4.1429-23.459 12.429-6.3179 8.2857-10.305 25.53-11.963 51.734 10.875-12.843 24.391-19.264 40.548-19.264 18.229 0 33.816 6.9393 46.762 20.818 13.05 13.879 19.575 31.796 19.575 53.754 0 23.304-6.8357 41.998-20.507 56.084s-31.227 21.129-52.666 21.129c-22.993 0-41.895-8.9071-56.705-26.721-14.811-17.918-22.216-47.229-22.216-87.932 0-41.739 7.7161-71.827 23.148-90.263 15.43-18.44 35.47-27.66 60.12-27.66 17.296 0 31.589 4.8679 42.879 14.604 11.393 9.6322 18.643 23.666 21.75 42.102zm-98.962 95.234c0 14.189 3.2625 25.168 9.7875 32.936 6.525 7.6643 13.982 11.496 22.371 11.496 8.0786 0 14.811-3.1589 20.196-9.4768 5.3857-6.3178 8.0786-16.675 8.0786-31.071 0-14.811-2.9-25.634-8.7-32.47-5.8-6.9393-13.05-10.409-21.75-10.409-8.3893 0-15.484 3.3143-21.284 9.9428-5.8 6.525-8.7 16.209-8.7 29.052z"/>
 </g>
</svg>
