<?xml version="1.0" encoding="UTF-8" standalone="no"?>
<svg xmlns:rdf="http://www.w3.org/1999/02/22-rdf-syntax-ns#" xmlns="http://www.w3.org/2000/svg" height="580" width="580" version="1.0" xmlns:cc="http://creativecommons.org/ns#" xmlns:dc="http://purl.org/dc/elements/1.1/">
 <title>sac_scale_t3</title>
 <metadata>
  <rdf:RDF>
   <cc:Work rdf:about="">
    <dc:format>image/svg+xml</dc:format>
    <dc:type rdf:resource="http://purl.org/dc/dcmitype/StillImage"/>
    <dc:title>sac_scale_t3</dc:title>
   </cc:Work>
  </rdf:RDF>
 </metadata>
 <g>
  <path d="m0 145c0-29 29-58 58-58h464c29 0 58 29 58 58v290c0 29-29 58-58 58h-464c-29 0-58-29-58-58z" fill="#ee7676"/>
  <path d="m183.58 402.69v-189.22h-67.58v-38.529h180.99v38.529h-67.425v189.22h-45.986z"/>
  <path d="m315.01 342.25 42.257-5.1268c1.3464 10.771 4.9714 19.005 10.875 24.702 5.9036 5.6964 13.05 8.5446 21.439 8.5446 9.0107 0 16.571-3.4179 22.682-10.254 6.2143-6.8357 9.3214-16.054 9.3214-27.654 0-10.979-2.9518-19.679-8.8554-26.1-5.9036-6.4214-13.102-9.6321-21.595-9.6321-5.5928 0-12.273 1.0875-20.041 3.2625l4.8161-35.577c11.807 0.31071 20.818-2.2268 27.032-7.6125 6.2143-5.4893 9.3214-12.739 9.3214-21.75 0-7.6643-2.2786-13.775-6.8357-18.332-4.5571-4.5571-10.616-6.8357-18.177-6.8357-7.4572 0-13.827 2.5893-19.109 7.7679-5.2822 5.1786-8.4929 12.739-9.6321 22.682l-40.238-6.8357c2.7964-13.775 6.9911-24.754 12.584-32.936 5.6964-8.2857 13.568-14.759 23.614-19.42 10.15-4.7643 21.491-7.1464 34.023-7.1464 21.439 0 38.632 6.8357 51.579 20.507 10.668 11.186 16.002 23.821 16.002 37.907 0 19.989-10.927 35.939-32.78 47.85 13.05 2.7964 23.459 9.0625 31.227 18.798 7.8714 9.7357 11.807 21.491 11.807 35.266 0 19.989-7.3018 37.027-21.905 51.112-14.604 14.086-32.78 21.129-54.53 21.129-20.611 0-37.7-5.9036-51.268-17.711-13.58-11.9-21.45-27.44-23.63-46.6z"/>
 </g>
</svg>
