<?xml version="1.0" encoding="UTF-8" standalone="no"?>
<svg xmlns:rdf="http://www.w3.org/1999/02/22-rdf-syntax-ns#" xmlns="http://www.w3.org/2000/svg" height="580" width="580" version="1.0" xmlns:cc="http://creativecommons.org/ns#" xmlns:dc="http://purl.org/dc/elements/1.1/">
 <title>bag</title>
 <metadata>
  <rdf:RDF>
   <cc:Work rdf:about="">
    <dc:format>image/svg+xml</dc:format>
    <dc:type rdf:resource="http://purl.org/dc/dcmitype/StillImage"/>
    <dc:title>bag</dc:title>
   </cc:Work>
  </rdf:RDF>
 </metadata>
 <path opacity=".8" d="m319 87h-58c-51.28 0-87 47.614-87 87h-29c-58 0-87 29-87 87v145c0 58 29 87 87 87h290c58 0 87-29 87-87v-145c0-58-29-87-87-87h-29c0-37.221-34.659-87-87-87z" fill="#fff"/>
 <path fill="#1e1ef0" d="m261 116c-29 0-58 29.61-58 58v29h-21.75v261h217.5v-261h-21.75v-29c0-29-29.3-58-58-58h-58zm14.5 36.25h29c24.94 0 36.25 15.38 36.25 34.25v16.5h-101.5v-16.5c0-18.25 8.87-34.25 36.25-34.25zm-130.5 50.75c-39.34 0-58 18.66-58 58v145c0 39.34 21.7 58 58 58v-261zm290 0v261c36.3 0 58-21.7 58-58v-145c0-38.12-18.05-58-58-58z"/>
</svg>
