<?xml version="1.0" encoding="UTF-8" standalone="no"?>
<svg xmlns:rdf="http://www.w3.org/1999/02/22-rdf-syntax-ns#" xmlns="http://www.w3.org/2000/svg" height="580" width="580" version="1.0" xmlns:cc="http://creativecommons.org/ns#" xmlns:dc="http://purl.org/dc/elements/1.1/">
 <title>tea</title>
 <metadata>
  <rdf:RDF>
   <cc:Work rdf:about="">
    <dc:format>image/svg+xml</dc:format>
    <dc:type rdf:resource="http://purl.org/dc/dcmitype/StillImage"/>
    <dc:title>tea</dc:title>
   </cc:Work>
  </rdf:RDF>
 </metadata>
 <path opacity=".8" d="m264.93 99.041c-41.716 0-74.107 38.077-64.844 74.299-23.926 9.5884-44.976 25.311-62.963 43.6-32.54-8.45-71.057-3.5-95.421 21.34-26.469 27.68-33.875 68.87-28.187 105.73 15.488 53.31 44.488 72.12 105.42 80.47 11.25 27.64 29.27 53.58 54.95 69.52h189.12c28.672-17.172 46.115-47.387 58.77-77.361 27.666-9.3205 45.632-34.186 62.76-56.301 29.343-42.845 37.097-95.443 47.599-145.13 2.7623-13.593 5.4564-27.201 8.156-40.808-11.531-22.347-43.726-4.4767-68.5-8.3601-15.249-6.1704-40.169-8.9413-44.511 9.3745-6.5092 18.734-8.4445 38.772-15.922 57.227-18.581-26.284-45.028-46.555-74.42-59.4 3.5779-47.813-30.286-74.195-72.002-74.195z" fill="#fff"/>
 <path d="m268.45 129.09a39.953 31.442 0 0 0 -39.938 31.458 39.953 31.442 0 0 0 27.833 29.969c-45.661 3.6787-85.095 27.15-108.23 61.816-0.46398-0.19884-0.8915-0.65288-1.3588-0.84178-21.502-8.7506-53.755-13.143-74.632 0.38775-20.328 13.176-28.872 36.749-30.034 66.153-2.3613 59.752 42.425 71.726 87.06 77.739 3.616 0.48717 7.1817 0.23198 10.745 0.0663 9.8032 28.296 24.431 54.87 43.303 68.159h170.56c20.314-14.327 35.67-44.056 45.375-74.762 7.7527 1.5543 16.148 0.0663 27.769-9.1913 20.188-16.072 41.284-47.932 48.158-63.499 12.4-26.9 30.94-123.45 30.94-123.45s-29.21 7.927-52.495-0.13256c-5.1296 17.473-11.499 50.458-21.166 66.217-8.3227 13.568-13.906 25.351-27.639 27.51-15.948-52.518-64.659-91.397-124.21-96.187a39.953 31.442 0 0 0 27.898 -29.969 39.953 31.442 0 0 0 -39.938 -31.458zm-160.86 140.85c10.701-0.33142 19.62 3.0589 27.639 7.638-5.5783 14.369-9.1294 29.704-9.1267 45.893 0.0213 12.974 2.194 28.914 6.0198 45.439-25.654-0.43746-55.884-3.6975-54.113-48.482 0.9876-24.975 7.7098-46.683 20.131-49.323 3.2876-0.69928 6.4204-1.0704 9.4502-1.1666z" fill="#1e1ef0"/>
</svg>
