<?xml version="1.0" encoding="UTF-8" standalone="no"?>
<svg xmlns:rdf="http://www.w3.org/1999/02/22-rdf-syntax-ns#" xmlns="http://www.w3.org/2000/svg" height="580" width="580" version="1.0" xmlns:cc="http://creativecommons.org/ns#" xmlns:dc="http://purl.org/dc/elements/1.1/">
 <title>hearing_aids</title>
 <metadata>
  <rdf:RDF>
   <cc:Work rdf:about="">
    <dc:format>image/svg+xml</dc:format>
    <dc:type rdf:resource="http://purl.org/dc/dcmitype/StillImage"/>
    <dc:title>hearing_aids</dc:title>
   </cc:Work>
  </rdf:RDF>
 </metadata>
 <g>
  <path opacity=".8" d="m390.69 27.844c-12.01-0.388-22.86 6.322-31.51 14.058-73.71-32.928-169.63-6.085-213.31 62.428-23.954 35.058-36.898 79.817-26.744 121.87 13.544 35.789 65.629 47.745 93.771 22.062 4.288-3.6047 7.7765-8.0565 10.713-12.805 13.536 27.541 45.389 46.024 76.129 40.924-18.007 26.374-26.415 58.579-25.311 90.371-0.18088 11.986 1.0744 24.396-2.0996 35.795-7.8649 6.3091-20.998 1.1474-22.912-8.5625-13.638-23.64-43.71-38.413-70.434-29.66-24.587 6.823-43.507 31.788-40.785 57.617 1.4712 30.238 22.332 55.568 45.512 73.101 36.572 28.187 88.524 36.646 131.15 17.606 40.423-16.289 73.845-54.101 77.494-98.537 2.4161-26.387-5.9746-54.942 8.3855-78.915 19.133-30.64 49.183-55.618 58.413-91.843 14.394-49.944 0.73871-105.26-29.99-146.36 11.971-19.568 7.9166-49.023-12.492-61.395-7.5812-5.1684-16.774-8.0687-25.975-7.75z" fill="#fff"/>
  <path d="m261 435c29 0 43.5-16.179 43.5-36.25v-36.25c0-87 72.5-101.5 72.5-159.5 0-46.402-32.717-87-87-87s-87 38.016-87 87c0 19.042-14.5 29-29 29s-29-9.4532-29-29c0-72.5 58-145 145-145s145 72.5 145 145c0 78.093-72.5 94.25-72.5 159.5v43.5c0 50.75-50.75 87-101.5 87-31.215 0-68.794-21.75-88.359-54.98-7.42-13.9-5.89-32.02 5.59-40.63s32.02-5.89 40.63 5.59c11.48 17.71 20.39 32.02 42.14 32.02z" fill="#1e1ef0"/>
  <path d="m246.5 204.22c0.36864-25.199 19.354-44.904 43.5-44.715 23.409-0.1893 42.394 19.705 43.5 44.715-1.106 23.305-20.091 43.199-43.5 42.252-24.146 0.94734-43.131-18.947-43.5-42.252z" fill="#1e1ef0"/>
 </g>
 <path d="m281.37 209.77 110.15-137.26" stroke="#1e1ef0" stroke-linecap="round" stroke-width="29" fill="none"/>
</svg>
