<?xml version="1.0" encoding="UTF-8" standalone="no"?>
<svg xmlns:rdf="http://www.w3.org/1999/02/22-rdf-syntax-ns#" xmlns="http://www.w3.org/2000/svg" height="580" width="580" version="1.0" xmlns:cc="http://creativecommons.org/ns#" xmlns:dc="http://purl.org/dc/elements/1.1/">
 <title>watches</title>
 <metadata>
  <rdf:RDF>
   <cc:Work rdf:about="">
    <dc:format>image/svg+xml</dc:format>
    <dc:type rdf:resource="http://purl.org/dc/dcmitype/StillImage"/>
    <dc:title>watches</dc:title>
   </cc:Work>
  </rdf:RDF>
 </metadata>
 <path opacity=".8" d="m181.25 0c-28.57 0-36.25 9.1564-36.25 34.801v113.3c-35.85 36.63-58 86.73-58 141.9s22.15 105.27 58 141.9v113.3c-0.21 27.18 8.92 34.81 36.25 34.8h217.5c28.57 0 36.25-9.16 36.25-34.8v-113.3c19.26-19.68 34.56-43.25 44.6-69.4h27.9c7.23 0 14.5-8.69 14.5-24.17v-96.66c0-13.6-5.33-24.17-14.5-24.17h-27.9c-10.04-26.16-25.34-49.72-44.6-69.4v-113.3c0.21-27.184-8.92-34.814-36.25-34.8h-217.5z" fill-rule="evenodd" fill="#fff"/>
 <path d="m203 29c-22.853 0-29 7.6297-29 29v116c61.435-58 174-58 232 0v-116c0.17124-22.654-7.1356-29.012-29-29z" fill-rule="evenodd" fill="#1e1ef0"/>
 <path d="m290 116.5c-95.65 0-173.5 77.85-173.5 173.5s77.85 173.5 173.5 173.5 173.5-77.85 173.5-173.5-77.85-173.5-173.5-173.5z" fill="#1e1ef0"/>
 <path d="m290 145.5c79.977 0 144.5 64.523 144.5 144.5s-64.523 144.5-144.5 144.5-144.5-64.523-144.5-144.5 64.523-144.5 144.5-144.5z" fill="#f1eee9"/>
 <path d="m449.5 246.5h29c9.1658 0 14.5 6.3438 14.5 14.5v58c0 9.2876-7.2686 14.5-14.5 14.5h-29z" fill-rule="evenodd" fill="#1e1ef0"/>
 <path d="m377 551c22.853 0 29-7.6297 29-29v-116c-61.435 58-174 58-232 0v116c-0.17124 22.654 7.1356 29.012 29 29z" fill-rule="evenodd" fill="#1e1ef0"/>
 <path stroke-linejoin="round" d="m232 246.5 58 43.5 72.5-72.5" stroke="#1e1ef0" stroke-linecap="round" stroke-width="29" fill="none"/>
 </svg>
