<?xml version="1.0" encoding="UTF-8" standalone="no"?>
<svg xmlns:rdf="http://www.w3.org/1999/02/22-rdf-syntax-ns#" xmlns="http://www.w3.org/2000/svg" height="580" width="580" version="1.0" xmlns:cc="http://creativecommons.org/ns#" xmlns:dc="http://purl.org/dc/elements/1.1/">
 <title>miniature_golf</title>
 <metadata>
  <rdf:RDF>
   <cc:Work rdf:about="">
    <dc:format>image/svg+xml</dc:format>
    <dc:type rdf:resource="http://purl.org/dc/dcmitype/StillImage"/>
    <dc:title>miniature_golf</dc:title>
   </cc:Work>
  </rdf:RDF>
 </metadata>
 <g>
  <path opacity=".8" d="m306.65 2.6289c-8.29-0.019-16.39 2.9378-21.32 9.2461-12.76 17.348-26.94 33.999-31.61 55.426-2.87 16.807 11.92 33.579 26.52 41.249-16.63 17.72-21.42 48.54-18.51 68.33 0.91 3.61 2.12 7.12 3.56 10.53l-0.18-0.18c-20.67-20.43-45.82-29.66-68.05-4.27l-52.06 67.93-56.816-72.75c-20.769-21.48-41.707-10.18-63.688 10.88-21.98 21.05-37.322 42.98-15.699 64.95l70.75 64.2c-21.153 18.73-44.183 35.63-64.346 55.45-30.98 25.48-10.852 51.33 8.217 68.95 19.068 17.62 29.292 27.72 42.73 27.59l-10.812 87.84h177.6c16.89 12.27 41.93 14.96 58.77-4.23l70.02-93.16c-2.54 27.31-6.85 55.11-2.9 82.47 8.84 26.62 48.11 36.47 67.79 16.01 17.83-16.62 19.58-42.67 24.67-64.94 7.72-34.79 18.3-69.34 21.92-104.98-6.58-41.36-22.88-83.1-32.19-123.67 28.72-8.31 73.52-13.44 97.17-27.63 19.34-17.26 16.78-50.28-5.16-66.41l-206.03-162.09c-5.58-4.3918-13.04-6.7243-20.35-6.7411zm-18.59 245.97c2.54 11.58 7.02 23.06 9.6 34.28 6.01 22.55 12.04 45.11 18.06 67.66l-24.93 41.52c-1.59-5.49-4.84-10.78-10.32-15.63l-68.81-58.88 69.7-60.96c2.7-2.74 4.91-5.4 6.7-7.99zm-40.85 216.02l-19.91 33.14-3.37-27.77c9.98-0.15 17.1-1.97 23.28-5.37z" fill-rule="evenodd" fill="#fff"/>
  <path fill="#008040" d="m377 159.51c-0.00033-12.236-4.3169-22.546-12.95-30.932-8.63-8.39-18.93-12.58-30.88-12.58-11.943 0.00039-22.123 4.1931-30.54 12.578-8.4172 8.3859-12.626 18.697-12.625 30.932-0.00023 12.223 4.2082 22.526 12.625 30.911 8.4167 8.3858 18.597 12.578 30.54 12.578 11.956 0.00028 22.251-4.1925 30.885-12.578 8.6328-8.3851 12.949-18.689 12.95-30.911z"/>
  <path d="m273.08 529.91 119.1-160.81 5.82 22.68-11.67 130.22c-2.9887 23.123 22.789 25.426 28.035 0l28.99-126.14c0.39003-4.2701 0.004-8.7296-1.1533-13.378l-36.2-139.07 97.11-21.44c25.822-6.2492 21.405-21.093 6.9731-30.883l-200.1-157-20.35 29.653c-8.9987 17.835 12.531 25.815 21.505 14.532l11.64-17.442 170.22 134.35-160.24 21.49c-13.76 1.97-19.31 10.84-15.71 22.68l30.95 115.81-98.64 159.94c-12.232 20.822 12.388 31.778 23.714 14.811z" fill="#008040"/>
  <path d="m87 530 29-236 29-16 29 16 29 236z" fill-rule="evenodd" fill="#80c0a0"/>
 </g>
 <g stroke-linejoin="round" fill-rule="evenodd" stroke="#008040" stroke-linecap="round" stroke-width="13.22" fill="#008040">
  <path d="m30.702 230.54 32.626-30.532 79.062 107.79-10.072 9.7436z"/>
  <path d="m260.62 230.54-32.626-30.532-79.062 107.79 10.072 9.7436z"/>
  <path d="m260.62 405.24-32.63 30.53-79.06-107.79 10.07-9.75z"/>
  <path d="m30.702 405.24 32.626 30.532 79.062-107.79-10.072-9.7436z"/>
 </g>
</svg>
