<?xml version="1.0" encoding="UTF-8" standalone="no"?>
<svg xmlns:rdf="http://www.w3.org/1999/02/22-rdf-syntax-ns#" xmlns="http://www.w3.org/2000/svg" height="580" width="580" version="1.0" xmlns:cc="http://creativecommons.org/ns#" xmlns:dc="http://purl.org/dc/elements/1.1/">
 <title>swimming</title>
 <metadata>
  <rdf:RDF>
   <cc:Work rdf:about="">
    <dc:format>image/svg+xml</dc:format>
    <dc:type rdf:resource="http://purl.org/dc/dcmitype/StillImage"/>
    <dc:title>swimming</dc:title>
   </cc:Work>
  </rdf:RDF>
 </metadata>
 <path opacity=".8" d="m354.03 44.723c-63.17 20.384-161.31 69.194-188.56 88.811-29.26 26.91-9.5199 68.91 17.33 99.77l-116.27 67.67c-14.102 8.6178-23.07 15.75-22.957 32.391l0.27539 37.014c2.16 13.352 8.7764 19.508 16.564 20.951-0.0041 0.003-0.0077 0.005-0.01172 0.008-13.519 7.67-28.556 13.679-44.289 14.539-13.715 4.44-16.111 20.311-16.111 34.141v59.955c0 22.02 13.463 31.455 35.172 31.889 31.768-0.79945 59.737-31.97 80.828-32.41 29-0.6049 58 31.791 87 31.387 29-0.40412 58-31.646 87-32.205 29-0.55914 58 30.89 87 30.896 29 0.007 59.277-30.79 87.639-30.197 28.362 0.59332 48.505 23.922 71.789 29.025 12.47 2.8192 28.199 3.2008 37.545-6.9434 6.02-4.52 6.0195-28.42 6.0195-43.83 0-60.07-0.00086-71.589-32.881-74.939-27.67-10.09-54.119-30.69-83.629-30.25l0.01 0.006c-15.508 0.23114-30.23 9.0325-45.045 17.311 1.2241-2.4513 2.0861-5.1063 2.4824-7.9355 0.0268-23.653-21.494-46.321-32.488-65.023 25.913 17.785 60.879 21.644 89.689 8.6816 38.984-16.675 65.496-61.18 56.98-103.48-6.9826-46.445-52.625-84.005-99.809-79.756-52.28 1.8322-96.551 54.171-89.318 106.06l-37.77-58.49c31.26-20.17 66.371-36.361 91.291-64.799 30.12-37.95-5.71-88.729-45.48-80.227z" fill="#fff"/>
 <path fill="#008040" d="m355.23 75.301c-7.37 0.054-16.05 2.121-25.57 6.863l-128.02 61.026c-16.73 7.91-23.27 32.72-12.24 47.58l39.06 52.02-155.96 90.71-0.438 27.56c5.662-3.17 22.441-16.5 43.938-16.68 20.61-0.18 61.91 32.62 87 32.62 21.9 0 65.08-32.62 87-32.62 22.81 0 64.33 35.13 87 32.62h14.95l-123.7-195.75 85.08-53.58c39.53-21.82 30.81-52.583 1.9-52.369zm87.02 97.459c-36.04 0-65.25 29.21-65.25 65.25 0 36.03 29.21 65.25 65.25 65.25s65.25-29.22 65.25-65.25c0-36.04-29.21-65.25-65.25-65.25zm22.86 229.58c-0.38 0.01-0.75 0.02-1.11 0.04-20.8 0-63.74 32.62-87 32.62-19.35 0-65.07-32.62-87-32.62s-67.6 32.62-87 32.62c-20.68 0-63.78-32.62-87-32.62-23.225 0-64.914 32.62-87 32.62v65.25c23.368 0 66.356-32.63 87-32.63 21.93 0 63.78 32.63 87 32.63 20.68 0 64.92-32.63 87-32.63 21.93 0 66.2 32.63 87 32.63 21.93 0 66.36-32.63 87-32.63s65.07 32.63 87 32.63v-65.25c-17.78 0-62.36-32.87-85.89-32.66z"/>
</svg>
