<?xml version="1.0" encoding="UTF-8" standalone="no"?>
<svg xmlns:rdf="http://www.w3.org/1999/02/22-rdf-syntax-ns#" xmlns="http://www.w3.org/2000/svg" height="580" width="580" version="1.0" xmlns:cc="http://creativecommons.org/ns#" xmlns:dc="http://purl.org/dc/elements/1.1/">
 <title>basketball</title>
 <metadata>
  <rdf:RDF>
   <cc:Work rdf:about="">
    <dc:format>image/svg+xml</dc:format>
    <dc:type rdf:resource="http://purl.org/dc/dcmitype/StillImage"/>
    <dc:title>basketball</dc:title>
   </cc:Work>
  </rdf:RDF>
 </metadata>
 <g>
  <path opacity=".8" d="m105.77 108.73c-0.41549 14.5 3.4953 50.774 33.976 50.774l26.47 188.5h181.78v145c0 33.817 14.5 53.093 51.159 52.75 36.66-0.34 50.34-18.45 50.34-52.75v-339.5c29-23 29-73.726 0-81 0-29-30.189-37.318-51.208-37.478-21.02-0.159-37.35 8.458-50.29 22.98h-188.5c-35.262 0-53.727 14.5-53.727 50.726z" fill="#fff"/>
  <path d="m377 72.5v435c0 14.5 43.5 14.5 43.5 0v-435c0-14.5-43.5-14.5-43.5 0z" fill="#008040"/>
  <path d="m435 87h-290c-14.5 0-14.5 43.5 0 43.5h290c14.5 0 14.5-43.5 0-43.5z" fill="#008040"/>
 </g>
 <g stroke="#008040" stroke-width="5" fill="none">
  <path d="m173.9 131.89 20.666 188.5"/>
  <path d="m313.08 320.39 20.329-188.5"/>
  <path d="m202.9 131.89 112.23 168.34"/>
  <path d="m246.4 131.89 74.72 112.08"/>
  <path d="m289.9 131.89 36.841 55.262"/>
  <path d="m176.78 157.94 108.35 162.53"/>
  <path d="m185.05 235.61 56.77 85.155"/>
  <path d="m326.57 186.55-89.2 133.79"/>
  <path d="m319.32 132.16-124.66 187"/>
  <path d="m275.82 132.16-87.267 130.9"/>
  <path d="m319.29 262.71-38.686 58.03"/>
  <path d="m232.32 132.16-50.945 76.417"/>
  <path d="m188.4 131.89-12.325 18.487"/>
 </g>
</svg>
