<?xml version="1.0" encoding="UTF-8" standalone="no"?>
<svg xmlns:rdf="http://www.w3.org/1999/02/22-rdf-syntax-ns#" xmlns="http://www.w3.org/2000/svg" height="580" width="580" version="1.0" xmlns:cc="http://creativecommons.org/ns#" xmlns:dc="http://purl.org/dc/elements/1.1/">
 <title>golf</title>
 <metadata>
  <rdf:RDF>
   <cc:Work rdf:about="">
    <dc:format>image/svg+xml</dc:format>
    <dc:type rdf:resource="http://purl.org/dc/dcmitype/StillImage"/>
    <dc:title>golf</dc:title>
   </cc:Work>
  </rdf:RDF>
 </metadata>
 <path opacity=".8" d="m285.33 11.875c-12.757 17.348-26.932 33.999-31.603 55.426-2.8694 16.807 11.917 33.58 26.519 41.252-2.6903 2.8202-5.1361 5.8717-7.3418 9.084l-156.9-59.64v-29h-87v522h87v-319l145.73-55.117c4.0783 16.148 13.838 30.65 26.766 41.066-7.2914 21.907 4.3244 43.867 9.1639 64.929 6.014 22.556 12.038 45.109 18.067 67.661l-98.8 164.48c-13.93 35.98 44.07 73.76 74.78 38.75l70.018-93.156c-2.5386 27.306-6.848 55.109-2.8984 82.467 8.8362 26.618 48.105 36.474 67.787 16.012 17.833-16.626 19.582-42.67 24.672-64.945 7.7166-34.782 18.301-69.332 21.918-104.98-6.5729-41.352-22.881-83.098-32.184-123.67 28.714-8.3106 73.519-13.439 97.162-27.63 19.348-17.257 16.785-50.272-5.1551-66.403l-206.03-162.09c-11.89-9.37-32.38-9.37-41.67 2.505z" fill="#fff"/>
 <g fill="#008040">
  <path d="m58 58h29v464h-29z"/>
  <path d="m72.5 72.5 188.5 72.5-188.5 72.5z" fill-rule="evenodd"/>
  <path d="m377 159.51c-0.00033-12.236-4.3169-22.546-12.95-30.932-8.63-8.39-18.93-12.58-30.88-12.58-11.943 0.00039-22.123 4.1931-30.54 12.578-8.4172 8.3859-12.626 18.697-12.625 30.932-0.00023 12.223 4.2082 22.526 12.625 30.911 8.4167 8.3858 18.597 12.578 30.54 12.578 11.956 0.00028 22.251-4.1925 30.885-12.578 8.6328-8.3851 12.949-18.689 12.95-30.911z"/>
  <path d="m273.08 529.91 119.1-160.81 5.82 22.68-11.67 130.22c-2.9887 23.123 22.789 25.426 28.035 0l28.99-126.14c0.39003-4.2701 0.004-8.7296-1.1533-13.378l-36.2-139.07 97.11-21.44c25.822-6.2492 21.405-21.093 6.9731-30.883l-200.1-157-20.35 29.653c-8.9987 17.835 12.531 25.815 21.505 14.532l11.64-17.442 170.22 134.35-160.24 21.49c-13.76 1.97-19.31 10.84-15.71 22.68l30.95 115.81-98.64 159.94c-12.232 20.822 12.388 31.778 23.714 14.811z"/>
 </g>
</svg>
