<?xml version="1.0" encoding="UTF-8" standalone="no"?>
<svg xmlns:rdf="http://www.w3.org/1999/02/22-rdf-syntax-ns#" xmlns="http://www.w3.org/2000/svg" height="580" width="580" version="1.0" xmlns:cc="http://creativecommons.org/ns#" xmlns:dc="http://purl.org/dc/elements/1.1/">
 <title>canoe</title>
 <metadata>
  <rdf:RDF>
   <cc:Work rdf:about="">
    <dc:format>image/svg+xml</dc:format>
    <dc:type rdf:resource="http://purl.org/dc/dcmitype/StillImage"/>
    <dc:title>canoe</dc:title>
   </cc:Work>
  </rdf:RDF>
 </metadata>
 <path opacity=".8" d="m312.22 261.48 6.3818-8.9264c21.9-4.0326 48.169-26.332 37.856-59.641-1.29-3.63 6.94-18.91 13.18-19.82 22.631-4.4238 33.236-49.824 12.12-61.173l-29.89-16.071c-26.466-14.224-50.382 16.532-47.382 38.593l-22.803 36.121c-6.7333 3.4375-36.647 0.10387-43.916-5.709 25.134-13.015 34.235-42.76 35.732-48.851 10.72-43.657-27-87-70.5-87s-82.488 45.548-69.316 93.296c-14.5 0-31.288 19.732-36.205 25.963l-64.495 112.74c-19.063-0.003-33 0-33 14.37v217.63c0 14.5 14.5 29 29 29 29 0 58-29 87-29s43.5 29 87 29 58-29 87-29 43.5 29 87 29 58-29 87-29 58 29 87 29c19.442 0 29-14.5 29-29v-29c-3.5-14.5-15.55-20.93-29-29-10.02-4.82-29.62-14.66-49.97-21.54 35.47-7.46 49.97-50.96 49.97-94.46s-29-101.5-87-101.5-22.368 43.5-58 43.5z" fill-rule="evenodd" fill="#fff"/>
 <path stroke="#008040" stroke-width="33" d="m29 478.5c29 0 58-29 87-29s58 29 87 29 58-29 87-29 58 29 87 29 58-29 87-29 58 29 87 29" fill="none"/>
 <g fill="#008040">
  <path fill-rule="evenodd" d="m154.68 145.5c-19.871-0.18674-31.913 14.97-38.928 25.457l-52.57 90.051c-10.084 14.5-5.18 20.17 0.58203 29h-34.762v116c29 0 58-29 87-29 9.5138 0 19.027 3.1279 28.541 7.3223 5.1789-9.1551 11.216-17.886 17.227-26.412 12.619-15.648 24.48-33.391 42.748-42.99 5.6276-8.1967 11.066-16.523 16.398-24.92h-39.311l-22.1-12.18 37.5-60.32c48.801 25.991 87.051 12.449 113.24 7.8652 27.402-4.7222 29.239-34.255-4.6504-29.609l-0.01-0.006c-37.944 5.6732-61.404 3.8901-73.896-2.6426-18.364-8.4489-39.999-32.485-49.916-39.148-10.342-5.9709-19.316-8.3937-27.092-8.4668z"/>
  <path fill-rule="evenodd" d="m279.89 290c-10.336 16.71-20.7 33.402-31.268 49.963-2.2345 21.442-10.675 41.659-21.021 60.391 20.8-8.4367 41.6-23.354 62.4-23.354 29 0 58 29 87 29s58-29 87-29c11.289 0 22.575 4.3943 33.863 9.7617 53.14-54.88 10.841-144.52-33.859-140.26-3.3154 0.38442-6.0002 0.44451-9 2 0 27-26 41.5-55 41.5h-120.12z"/>
  <path d="m246.71 101.71a43.707 43.707 0 0 1 -43.71 43.7 43.707 43.707 0 0 1 -43.71 -43.7 43.707 43.707 0 0 1 43.71 -43.71 43.707 43.707 0 0 1 43.707 43.707z"/>
  <path d="m308.92 180.14 27.513-43.819c-9.9609-6.4187-0.0227-21.136 9.5503-15.29l14.763 9.2211c10.956 6.9207 1.5922 22.327-9.5503 15.29l-22.126 35.167c-6.4082-0.95383-14.476-0.8171-20.15-0.56929z"/>
  <path d="m153.23 424.34c-5.358-3.3283-4.0696-17.138-0.19662-23.372 22.988-36.914 30.685-49.177 53.765-69.021 2.9898-2.3071 6.2881-4.6288 8.7258-3.1145l50.19-80.72c6.3066 1.8575 19.227-0.0374 21.672-0.49102l-56.439 90.788c2.4892 1.5463 1.5352 5.4013 0.49342 8.8414-7.2346 29.577-15.122 41.873-38.05 78.783-3.8117 6.1362-15.978 13.325-21.04 10.181z"/>
 </g>
</svg>
