<?xml version="1.0" encoding="UTF-8" standalone="no"?>
<svg xmlns:rdf="http://www.w3.org/1999/02/22-rdf-syntax-ns#" xmlns="http://www.w3.org/2000/svg" height="580" width="580" version="1.0" xmlns:cc="http://creativecommons.org/ns#" xmlns:dc="http://purl.org/dc/elements/1.1/">
 <title>beachvolleyball</title>
 <metadata>
  <rdf:RDF>
   <cc:Work rdf:about="">
    <dc:format>image/svg+xml</dc:format>
    <dc:type rdf:resource="http://purl.org/dc/dcmitype/StillImage"/>
    <dc:title>beachvolleyball</dc:title>
   </cc:Work>
  </rdf:RDF>
 </metadata>
 <path opacity=".8" d="m77.342 43.621c-28.361 0.169-41.188-3.691-63.863 14.379-22.731 21.406-13.614 53.25 16.067 63.35-15.552 15.26-29.546 30.65-29.546 52.65v34.611c4.0461 18.484 22.529 27.27 37.74 15.672 9.0135-5.0985 16.73-14.231 24.871-19.025-13.291 51.301-13.631 106.01-0.35938 157.34-77.23-0.2704-74.922 73.525-26.182 73.086l196.07-3.0606c23.126-1.5679 29.952-42.838 6.1502-53.76-30.891-8.7289-62.887-21.129-93.863-17.626l-12.547-45.557 305.34 69.33c-3.0015 20.334-7.4561 40.863-15.949 59.844-33.835 2.7125-91.015 3.3149-110.87 26.215-15.087 17.598 0.34292 48.71 23.117 48.721l187.87 1.2862c58.61 0.94 52.563-37.726 39.32-50.67s-49.289-19.164-54.168-26.786c14.806-58.048 14.724-122.52-1.7793-180.07 21.721 13.227 23.743 18.667 46.24 30.512 14.027 7.7671 29-14.651 29-33.049 0.3823-40.615-10.447-58.233-40.717-85.629 15.14-2.34 24.65-1.37 37.26-14.84 8.92-15.53-0.8-45.45-18.67-52.01-21.48-15.053-48.424-7.8292-66.22-14.02-36.06-43.236-103.84 5.8024-107.03 44.309-14.28 4.3678-27.211 13.024-36.705 24.549-14.899-59.937-85.09-62.57-108.27-19.576-12.569 20.547-12.072 49.418 4.3438 67.777l-33.238-6.2031 0.41602-37.621c36.36-31.78-2.8-72.115-32.95-84.637-18.54-29.847-75.03-82.295-100.89-39.492zm257.74 170.18 11.709 16.448-26.793-4.9224z" fill="#fff"/>
 <g fill="#008040">
  <path d="m115.84 219.17c-9.1889 0.0596-10.234 13.414-1.166 14.902l327.5 60.943c4.0932 0.76918 8.0293-3.1569 8.7673-7.2558 0.73802-4.0989-2.0047-8.801-6.1091-9.5078l-327.5-58.95c-0.49088-0.0958-0.99011-0.14225-1.4902-0.13867z" fill-rule="evenodd"/>
  <path d="m116.16 266.08c-9.1705-0.31552-10.776 12.958-1.7949 14.838l332.09 76.396c4.0763 0.98875 8.1711-2.7706 9.0876-6.8637s-1.7016-8.9291-5.8103-9.773l-332.09-74.396c-0.4862-0.11629-0.98281-0.18369-1.4824-0.20118z" fill-rule="evenodd"/>
  <path d="m319 174a29 29 0 0 1 -29 29 29 29 0 0 1 -29 -29 29 29 0 0 1 29 -29 29 29 0 0 1 29 29z"/>
  <path d="m106.49 58.001c19.052 0.04518 38.204 15.053 42.865 33.59 1.425 5.6672 1.9996 12.171 1.2766 14.452-1.1517 3.6339-0.17595 4.1479 7.8722 4.1479 12.528 0 26.449 8.4891 33.4 20.368 7.083 12.104 6.9139 13.445-0.96098 7.6139-4.2314-3.133-10.75-5.1316-18.959-5.8134l-12.51-1.0388 6.9733 7.953c10.767 12.281 14.183 20.691 15.28 37.626 1.0426 16.095-0.67149 31.169-3.5443 31.169-0.90044 0-2.8312-3.3073-4.2907-7.3493-4.0435-11.199-14.25-24.117-26.943-34.103-10.001-7.868-16.959-16.7-19.835-24.237-0.96631-2.5327-3.5859-2.1891-6.1081-1.1116-0.11741 5.1746-5.8335 8.1397-24.092 14.624-27.015 9.5943-41.706 17.193-59.191 30.614l-14.674 11.263 1.5496-8.4431c4.2188-22.977 25.278-51.681 44.001-59.975 9.9937-4.4272 24.051-6.818 34.851-6.4207-4.0508-2.6155-9.6384-7.1439-19.494-14.225-11.545-8.29-31.355-15.302-48.725-17.247-6.974-0.78-14.046-2.143-15.716-3.027-4.104-2.173 17.224-10.073 34.993-12.96 32.786-5.329 52.154-0.677 60.114 14.437l4.3865 8.3241 0.0957-6.9267c0.13143-9.4865-2.7281-16.202-10.842-25.457-6.7877-7.7421-6.8135-7.8549-1.7748-7.8429z"/>
  <path d="m461.45 108.22c-20.988 0.0497-42.085 16.557-47.219 36.947-1.5697 6.2338-2.2027 13.387-1.4062 15.896 1.2687 3.9972 0.19382 4.5625-8.6719 4.5625-13.801 0-29.135 9.3377-36.793 22.404-7.8025 13.314-7.6162 14.789 1.0586 8.375 4.6612-3.4462 11.842-5.6446 20.885-6.3945l13.781-1.1426-7.6816 8.748c-11.861 13.509-15.624 22.76-16.832 41.387-1.1484 17.703 0.7397 34.285 3.9043 34.285 0.99191 0 3.1188-3.6379 4.7266-8.084 4.4543-12.318 15.698-26.527 29.68-37.512 11.016-8.6544 18.682-18.37 21.85-26.66 1.0645-2.7859 3.9502-2.4079 6.7285-1.2227 0.12933 5.6918 6.426 8.9533 26.539 16.086 29.759 10.553 45.943 18.912 65.203 33.674l16.164 12.389-1.707-9.2871c-4.6473-25.274-27.845-56.847-48.471-65.971-11.009-4.8697-26.494-7.4996-38.391-7.0625 4.4623-2.8769 10.617-7.858 21.475-15.646 12.716-9.1216 34.538-16.835 53.672-18.975 7.6824-0.85886 15.473-2.3575 17.312-3.3301 4.5217-2.3902-18.973-11.079-38.547-14.256-36.117-5.861-57.449-0.74429-66.221 15.881l-4.832 9.1562-0.10547-7.6191c-0.14479-10.435 3.0052-17.822 11.943-28.002 7.4772-8.5161 7.5056-8.6401 1.9551-8.627z"/>
  <path d="m47.755 399.8c13.085-8.31 34.005-10.75 42.004-10.14l13.163 1.0014-7.6527-22.177c-13.804-40.005-15.385-85.693-9.6542-125.46 1.9947-13.841 4.3621-26.634 5.2609-28.428 0.8988-1.7944 2.8187-8.1199 4.2665-14.057 1.4478-5.9367 4.9961-15.969 7.8851-22.294 4.1956-9.1861 6.2924-11.501 10.419-11.501h5.1658l-6.3249 19.032c-11.234 33.802-17.753 93.056-12.744 115.82 1.1845 5.3833 3.2651 17.588 4.6234 27.121 1.3584 9.5332 3.5076 19.81 4.776 22.838 1.2684 3.0278 5.3166 13.335 8.9959 22.906l6.6897 17.401 26.12-0.75762c24.221-0.70255 26.746-0.38751 34.736 4.3334 6.0151 3.5542 14.849 5.831 29.264 7.5424 17.77 2.1098 6.893 2.491-78.055 2.7356l-98.712 0.29z"/>
  <path d="m526.14 484.19c-14.415-9.1416-37.46-11.824-46.271-11.155l-14.5 1.1015 8.43-24.394c15.206-44.003 16.948-94.259 10.635-138-2.1973-15.225-4.8052-29.296-5.7953-31.27-0.9901-1.9738-3.105-8.9316-4.6999-15.462-1.5948-6.5301-5.5036-17.566-8.686-24.523-4.6218-10.104-6.9315-12.65-11.477-12.65h-5.6906l6.9674 20.934c12.375 37.181 19.557 102.36 14.038 127.4-1.31 5.91-3.6 19.33-5.1 29.82-1.4964 10.486-3.8639 21.791-5.2611 25.121-1.3973 3.3305-5.8566 14.668-9.9097 25.195l-7.3692 19.14-28.773-0.83336c-26.681-0.77277-29.463-0.42624-38.264 4.7666-6.6261 3.9095-16.357 6.4139-32.236 8.2964-19.575 2.3207-7.5932 2.74 85.984 3.009l108.73 0.31258z"/>
 </g>
</svg>
