<?xml version="1.0" encoding="UTF-8" standalone="no"?>
<svg xmlns:rdf="http://www.w3.org/1999/02/22-rdf-syntax-ns#" xmlns="http://www.w3.org/2000/svg" height="580" width="580" version="1.0" xmlns:cc="http://creativecommons.org/ns#" xmlns:dc="http://purl.org/dc/elements/1.1/">
 <title>fitness</title>
 <metadata>
  <rdf:RDF>
   <cc:Work rdf:about="">
    <dc:format>image/svg+xml</dc:format>
    <dc:type rdf:resource="http://purl.org/dc/dcmitype/StillImage"/>
    <dc:title>fitness</dc:title>
   </cc:Work>
  </rdf:RDF>
 </metadata>
 <path opacity=".8" d="m333.5 0l-0.01 0.0039062c-43.5 0-79.59 42.099-71.82 83.717-6.43-0.693-12.61 0.002-18.64 1.488l-52.92 20.961c-25.56 12.68-33.17 40.58-23.74 65.66l22.16 45.53c5.18 8.88 11.67 16.69 21.17 21.57l-52.27 137.67c-5.98 14.74-3.43 29.4 4.18 36.54l-89.11 12.86c-65.162 9-52.377 105.68 22.207 93.99l412.79-30.87c69.72-5.72 58-112.12 5.78-118.13l43.07-205.16c14.57-8.06 23.49-24.08 23.65-35.33 0-33.151-37.18-51.805-58-37.879l-96.77 64.609c-2.2-18.37-12.84-34.33-41.9-33.43 22.3-21.6 30.48-58.469 14.33-85.96-12.5-23.406-36.4-37.84-64.16-37.84zm79.94 200.03c8.98 17.47 24.25 28.76 42.1 26.7l-31.24 150.41-134.75 18.44 65.46-22.99c31.05-12.04 34.85-47.85 20.04-75.75l-26.57-44.46c-3.6-5.11-7.65-9.87-12.5-13.96 11.67 1.32 22.97-2 33.05-7.64l44.41-30.75z" fill="#fff"/>
 <g fill="#008040">
  <path d="m272.18 124.55c-3.5925-9.0433-13.786-13.486-22.847-10.012l-43.863 17.419c-14.589 5.119-15.52 18.743-11.549 26.774l19.899 42.7c3.6927 8.974 11.459 14.495 20.502 10.902 9.0424-3.593 9.5699-11.761 6.8273-21.4l-9.9011-34.086 31.187-9.3358c8.974-3.6927 13.338-13.919 9.7447-22.962z"/>
  <path d="m351.35 316.55-29.117-49.887c-5.71-9.631-18.113-12.909-27.838-7.3025-9.7249 5.6069-14.401 19.722-7.6242 27.75l24.347 30.258-34.342 25.59c-9.3406 6.5922-15.653 14.719-10.985 22.927 4.6679 8.2084 11.651 7.5632 22.43 2.5214l52.503-22.089c12.515-5.8862 16.299-18.38 10.626-29.769z"/>
  <path d="m398.09 160.22c-4.592-8.2004-12.602-7.83-20.546-3.4931l-31.28 14.66-18.35-37.96c-1.395-6.1628-5.5944-11.601-11.842-14.296-10.308-4.446-22.249 0.24565-26.807 10.472l-60.012 139.14-41.928 108.78c-4.4798 10.387-4.6833 22.438 5.704 26.917 10.387 4.4798 18.755-1.1268 23.235-11.515l50.417-107.56 46.558-107.97 11.572 20.681c5.9794 10.876 16.755 13.701 27.105 7.6474l36.448-24.019c8.1223-4.6763 14.325-13.29 9.7335-21.49z"/>
  <circle cy="71.383" cx="333.5" r="42.383"/>
  <path d="m532.07 117.6-87 58c-5.8686 3.7807-7.5036 11.635-3.6313 17.444 3.8724 5.8085 11.751 7.3202 17.498 3.3572l36.57-24.381-47.793 230.12-371.43 51.051c-11.046 1.3935-18.828 11.539-17.312 22.569 1.5161 11.03 11.747 18.699 22.759 17.06l409.39-28.43c28.663-2.5955 37.907-20.985 36.077-38.339-2.0884-19.808-19.239-33.452-47.957-28.255l51.816-249.49 14.863-9.9082c13.497-8.7102-0.0311-30.093-13.867-20.801z" fill-rule="evenodd"/>
 </g>
</svg>
