<?xml version="1.0" encoding="UTF-8" standalone="no"?>
<svg xmlns:rdf="http://www.w3.org/1999/02/22-rdf-syntax-ns#" xmlns="http://www.w3.org/2000/svg" height="580" width="580" version="1.0" xmlns:cc="http://creativecommons.org/ns#" xmlns:dc="http://purl.org/dc/elements/1.1/">
 <title>chess</title>
 <metadata>
  <rdf:RDF>
   <cc:Work rdf:about="">
    <dc:format>image/svg+xml</dc:format>
    <dc:type rdf:resource="http://purl.org/dc/dcmitype/StillImage"/>
    <dc:title>chess</dc:title>
   </cc:Work>
  </rdf:RDF>
 </metadata>
 <path opacity=".8" d="m264.01 55.179c-12.897 0.13047-17.814 8.76-17.403 20.087 0.82901 8.7484 2.2744 17.207-0.39063 25.531-28.805 14.966-45.156 45.068-70.922 63.719-18.4 15.846-40.03 29.315-52.955 50.439-8.2643 20.053-6.4034 43.444 1.8563 63.154 16.204 31.491 57.463 38.995 89.634 26.76-25.556 30.246-39.234 70.995-37.817 105.34-14.782 7.2767-24.213 18.058-22.558 40.462l0.0443 71.329h274.66l0.31419-72.921c-0.45681-19.258-9.417-32.641-25.828-40.388 4.2238-34.328 21.425-65.471 27.189-99.627 10.734-46.943 8.5726-98.779-15.785-141.32-18.68-33.91-49.6-61.58-86.59-73.822-18.64-23.209-34.86-38.772-63.45-38.739z" fill="#fff"/>
 <path d="m182.55 449.66c0-8.2589 7.5829-14.5 14.5-14.5h14.5c-0.21263-0.84719-5.1194-20.262-5.493-24.863-1.5387-18.949 3.142-39.075 13.393-57.588 16.077-33.986 44.414-57.455 67.841-86.989-17.741 2.3874-29.235 1.1625-43.061-4.061-16.657-6.0767-25.218 2.2131-34.869 10.457-13.904 11.86-34.005 13.164-49.471 3.1532-7.9174-6.8152-13.324-17.609-12.329-27.263 0.50257-4.4227 0.54194-7.3685 0.19582-14.655 0.10124-5.3466 1.5883-7.406 5.2561-10.949 13.948-11.412 29.214-24.615 41.308-35.406 6.5137-5.821 25.812-19.488 31.728-27.336 13.004-21.246 35.766-34.238 40.536-34.661 4.5232-0.36614 6.9247-3.742 8.6153-6.3223 2.3641-11.034 1.518-19.67 1.6682-33.963 9.9299 5.8508 17.688 15.767 24.175 25.543 4.6399 7.0692 6.5391 8.5491 14.658 11.422 38.144 13.496 61.078 35.159 78.298 73.957 8.63 20.75 12.89 39.78 12 65.36-0.66699 21.378-4.518 41.235-13.824 71.283-6.8347 26.03-19.698 59.378-20.289 77.331-0.54185 8.5309 1.3184 16.942 2.5074 25.547h11.158c8.6659 0 14.5 7.9297 14.5 14.5v43.5h-217.5z" fill="#008040"/>
</svg>
