<?xml version="1.0" encoding="UTF-8" standalone="no"?>
<svg xmlns:rdf="http://www.w3.org/1999/02/22-rdf-syntax-ns#" xmlns="http://www.w3.org/2000/svg" height="580" width="580" version="1.0" xmlns:cc="http://creativecommons.org/ns#" xmlns:dc="http://purl.org/dc/elements/1.1/">
 <title>rowing</title>
 <metadata>
  <rdf:RDF>
   <cc:Work rdf:about="">
    <dc:format>image/svg+xml</dc:format>
    <dc:type rdf:resource="http://purl.org/dc/dcmitype/StillImage"/>
    <dc:title>rowing</dc:title>
   </cc:Work>
  </rdf:RDF>
 </metadata>
 <path opacity=".8" d="m203 43.5c-58 0-87 58-68.476 101.5h-76.52c-43.5 0-52.246 46-38.184 70.82l42.857 117.68h-40.349c-22.324 0-24.703 37.99-20.324 58 5.7442 26.253 30.385 58.003 56 58h53.699l36.336 92.088c9.889 22.774 27.16 37.907 50.264 27.129 23.1-10.78 24.63-24.86 19.2-46.72l-25.979-72.5h180.89l33.59 87c10.651 23.52 26.999 42.234 51.541 32.877 24.54-9.36 25.87-26.75 20.96-47.38l-26.275-72.5 70.488 0.41448c39.64-0.41 46.31-27.72 54.38-54.95 6.55-20.81 2.91-61.46-14.62-61.46h-16.534l-52.668-89.979c48.437-1.1811 56.787-59.815 31.799-86.484 21.49-31.08 14.4-79.159-17.58-100.47-31.01-20.592-77.3-15.964-98.92 11.17-17.73 20.54-23.52 52.08-12.85 77.26h-76.72c-21.313 0.12877-37.338 13.056-43.195 31.414-2.3598-7.2372-6.4304-13.974-11.781-19.342 25.98-55.57-3.02-113.57-61.02-113.57zm123.2 290h-41.109l-52.814-89.986c24.11-2.7134 39.025-15.371 44.406-35.357z" fill="#fff"/>
 <path fill="#008040" d="m203 72.5a43.5 43.5 0 0 0 -43.5 43.5 43.5 43.5 0 0 0 43.5 43.5 43.5 43.5 0 0 0 43.5 -43.5 43.5 43.5 0 0 0 -43.5 -43.5zm261 0.004a43.5 43.5 0 0 0 -43.5 43.496 43.5 43.5 0 0 0 43.5 43.5 43.5 43.5 0 0 0 43.5 -43.5 43.5 43.5 0 0 0 -43.5 -43.496zm-406 101.5c-15.207 0-18.957 16.87-11.795 26.12l49.744 127.67-19.773 26.07c-2.295 2.83-3.726 5.77-4.455 8.64h-42.721c-14.5 0 14.5 58 29 58h74.07l44.23 113.51c5.26 13.51 18.78 8.25 13.51-5.26l-42.18-108.25h245.44l44.23 113.52c5.26 13.51 18.78 8.24 13.51-5.27l-42.18-108.25h120.63c14.5 0 36.24-58 21.74-58h-29.54c1.28-5.26 0.75-11.34-2.34-18.07l-61.11-100.91c-6.14-13.71-24.63-16.01-33.95-4.22l-56.83 74.93-42.06-107.94 167.83 7.71c22-0.2 22-40 0-40h-174c-15.21 0-18.96 16.87-11.79 26.12l49.74 127.67-19.77 26.07c-2.3 2.83-3.73 5.77-4.46 8.64h-72.26c1.28-5.26 0.75-11.35-2.34-18.07l-61.11-100.91c-6.14-13.71-24.63-16.01-33.95-4.23l-56.83 74.94-42.06-107.95 167.83 7.72c22-0.21 22-40 0-40h-174zm116 116l27.95 72.5h-76.91l-3.63-9.31 52.59-63.19zm261 0l27.95 72.5h-76.91l-3.63-9.31 52.59-63.19z"/>
</svg>
