<?xml version="1.0" encoding="UTF-8" standalone="no"?>
<svg xmlns:rdf="http://www.w3.org/1999/02/22-rdf-syntax-ns#" xmlns="http://www.w3.org/2000/svg" height="580" width="580" version="1.0" xmlns:cc="http://creativecommons.org/ns#" xmlns:dc="http://purl.org/dc/elements/1.1/">
 <title>skateboard</title>
 <metadata>
  <rdf:RDF>
   <cc:Work rdf:about="">
    <dc:format>image/svg+xml</dc:format>
    <dc:type rdf:resource="http://purl.org/dc/dcmitype/StillImage"/>
    <dc:title>skateboard</dc:title>
   </cc:Work>
  </rdf:RDF>
 </metadata>
 <path opacity=".8" d="m432.56 132.65c-51.603 9.0144-97.522 36.289-147.48 50.626-59.486 21.175-118.57 43.946-180.05 58.784-15.65-3.6111-30.866-15.264-47.715-10.646-23.035 3.9092-35.29 31.949-27.097 52.743 9.0992 33.269 27.44 64.009 51.956 88.201 16.894 15.425 39.9 23.372 62.697 22.23 9.977-0.17165 19.859-1.6788 29.77-2.6869-7.4034 27.441 8.0534 59.662 35.469 68.848 26.537 10.493 61.132 0.10848 73.92-26.354 11.722-22.03 7.784-51.172-9.2031-69.412 44.072-13.817 87.138-30.612 129.95-47.883-1.4109 27.479 19.05 54.619 46.439 59.389 27.033 6.238 58.515-8.4325 67.719-35.371 8.9208-23.282 2.0016-51.981-17.279-68.006 19.608-9.0926 40.36-22.07 47.555-43.664 6.4469-22.251-5.6329-45.425-21.705-60.35-24.916-24.483-60.357-36.666-94.943-36.447z" fill="#fff"/>
 <g fill="#008040">
  <path d="m184.32 359.28c-22.323 6.8295-57.409 6.671-70.526-0.31845-30.387-16.192-71.549-98.245-49.479-98.633 3.5597-0.0626 13.432 3.2066 21.939 7.2651 13.231 6.3121 19.076 6.4592 40.428 1.0181 33.219-8.4654 211.25-70.849 258.03-90.413 20.415-8.5392 43.012-15.617 50.214-15.729 34.702-0.53967 74.265 20.87 84.142 45.535 6.2027 15.488 0.38665 22.255-35.284 41.057-109.74 49.485-183.25 81.387-299.46 110.22z"/>
  <path d="m261 406a29 29 0 0 1 -29 29 29 29 0 0 1 -29 -29 29 29 0 0 1 29 -29 29 29 0 0 1 29 29z"/>
  <path d="m493 319a29 29 0 0 1 -29 29 29 29 0 0 1 -29 -29 29 29 0 0 1 29 -29 29 29 0 0 1 29 29z"/>
 </g>
</svg>
