<?xml version="1.0" encoding="UTF-8" standalone="no"?>
<svg xmlns:rdf="http://www.w3.org/1999/02/22-rdf-syntax-ns#" xmlns="http://www.w3.org/2000/svg" height="580" width="580" version="1.0" xmlns:cc="http://creativecommons.org/ns#" xmlns:dc="http://purl.org/dc/elements/1.1/">
 <title>model_aerodrome</title>
 <metadata>
  <rdf:RDF>
   <cc:Work rdf:about="">
    <dc:format>image/svg+xml</dc:format>
    <dc:type rdf:resource="http://purl.org/dc/dcmitype/StillImage"/>
    <dc:title>model_aerodrome</dc:title>
   </cc:Work>
  </rdf:RDF>
 </metadata>
 <g>
  <path opacity=".8" d="m502.84 306.22-100.48 143.28h-54.36c-29 0-43.5 14.5-43.5 43.5v43.5c0 29 14.5 43.5 43.5 43.5h101.5c29 0 43.5-14.5 43.5-43.5v-43.5c0-14.5-3.733-26.093-11.592-32.984l81.386-119.38c10.427-18.06 4.4593-34.454-10.076-44.266-14.536-9.8125-36.788-7.6742-49.882 9.8533z" fill="#fff"/>
  <path opacity=".8" d="m507.5 261c0-37.404-29-72.5-72.5-72.5h-128.5l-103.5-188.5h-94.5l56.5 188.5h-49l-29-43.5h-87l14.5 116-14.5 116h87l29-43.5 49 1-56.5 187.5h94.5l103.5-188.5h128.5c43.5 0 72.5-35.096 72.5-72.5z" fill="#fff"/>
  <path d="m435 217.5c58 0 58 87 0 87h-145l-101.5 188.5h-43.5l58-188.5h-101.5l-29 43.5h-43.5l14.5-87-14.5-87h43.5l29 43.5h101.5l-58-188.5h43.5l101.5 188.5z" fill="#008040"/>
  <path d="m348 478.5h101.5c14.5 0 14.5 0 14.5 14.5v43.5c0 14.5 0 14.5-14.5 14.5h-101.5c-14.5 0-14.5 0-14.5-14.5v-43.5c0-14.5 0-14.5 14.5-14.5z" fill-rule="evenodd" fill="#008040"/>
 </g>
 <path d="m406 507.5 130.5-188.5" stroke="#008040" stroke-linecap="round" stroke-width="14.5" fill="none"/>
</svg>
