<?xml version="1.0" encoding="UTF-8" standalone="no"?>
<svg xmlns:rdf="http://www.w3.org/1999/02/22-rdf-syntax-ns#" xmlns="http://www.w3.org/2000/svg" height="580" width="580" version="1.0" xmlns:cc="http://creativecommons.org/ns#" xmlns:dc="http://purl.org/dc/elements/1.1/">
 <title>climbing</title>
 <metadata>
  <rdf:RDF>
   <cc:Work rdf:about="">
    <dc:format>image/svg+xml</dc:format>
    <dc:type rdf:resource="http://purl.org/dc/dcmitype/StillImage"/>
    <dc:title>climbing</dc:title>
   </cc:Work>
  </rdf:RDF>
 </metadata>
 <path opacity=".8" d="m424.78 40.984c-18.78-26.484-47.78-34.121-63.26-15.489l-42.91 55.864c-20.24-26.716-63.48-33.34-89.22-10.775-22.42 18.026-30.75 52.506-16.61 78.036l-27.148 12.6-47.154-55.006c-29.59-24.243-73.448 15.25-60.489 46.55l50.922 95.705c19.07 24.53 49.43 23.8 74.09 12.54 0.53724 19.249 1.074 39.623-8.4236 57.201l-62.92 164.8c-15.66 48.89 62.5 77.3 91.26 26.05l52.58-107.44v149.39h72.5v-153.82c21.18 62.91 101.5 37.82 92.68-9.78l-17.127-108.44c-4.5242-14.03-10.48-24.613-21.646-32.416 45.58-58.29 88.49-133.4 97.62-198.69 8.22-52.478-57.74-47.85-74.74-6.866z" fill="#fff"/>
 <g fill="#008040">
  <path d="m292.5 360c-11.385 5.0825-21.576 3.2681-31.5 0.5l-62.375 129.88c-4.2702 10.341-17.675 17.231-27.293 11.788-9.6182-5.443-12.559-15.127-7.1298-27.342l67.8-170.33h87v-14.5l45.603-21.227c11.944-5.809 27.471 4.126 30.619 16.776l14.66 91.45c1.9792 13.038 1.9183 24.093-9.5539 26.954-11.48 2.87-20.18-5.25-23.33-17.95l-20-62.5z"/>
  <path d="m333.5 261c98.75-48.97 137.75-210.25 137.75-224.75h-14.5c-5.52 36.25-47.3 169.64-123.25 210.25z"/>
  <path d="m151.84 230.28c5.1575 8.0892 15.581 11.672 24.81 7.872l55.35-22.15v74h87v-83l74.804-134.6c5.92-9.442 7.24-18.077-0.37-23.446-7.61-5.37-16.58-0.183-21.9 9.046l-74.03 107h-41.5c-2.6602 0-7.3398 0.46849-10 1.5l-69.13 31.95-44.43-58.638c-6.0262-9.3378-14.548-10.636-20.392-7.1977-5.8438 3.4383-8.4226 10.498-2.3965 19.944z"/>
  <path d="m319 522v-159.5l-14.5 7.25v152.25z"/>
  <path d="m301.25 119.62a32.625 32.625 0 0 1 -32.63 32.63 32.625 32.625 0 0 1 -32.62 -32.63 32.625 32.625 0 0 1 32.62 -32.62 32.625 32.625 0 0 1 32.63 32.62z"/>
 </g>
</svg>
