<?xml version="1.0" encoding="UTF-8" standalone="no"?>
<svg xmlns:rdf="http://www.w3.org/1999/02/22-rdf-syntax-ns#" xmlns="http://www.w3.org/2000/svg" height="580" width="580" version="1.0" xmlns:cc="http://creativecommons.org/ns#" xmlns:dc="http://purl.org/dc/elements/1.1/">
 <title>volleyball</title>
 <metadata>
  <rdf:RDF>
   <cc:Work rdf:about="">
    <dc:format>image/svg+xml</dc:format>
    <dc:type rdf:resource="http://purl.org/dc/dcmitype/StillImage"/>
    <dc:title>volleyball</dc:title>
   </cc:Work>
  </rdf:RDF>
 </metadata>
 <path opacity=".8" d="m507.5 290a217.5 217.5 0 0 1 -217.5 217.5 217.5 217.5 0 0 1 -217.5 -217.5 217.5 217.5 0 0 1 217.5 -217.5 217.5 217.5 0 0 1 217.5 217.5z" fill="#fff"/>
 <g stroke="#008040" stroke-width="29" fill="none">
  <path d="m463.5 289.5a173.5 173.5 0 0 1 -173.5 173.5 173.5 173.5 0 0 1 -173.5 -173.5 173.5 173.5 0 0 1 173.5 -173.5 173.5 173.5 0 0 1 173.5 173.5z"/>
  <path d="m290 289.5c50.75-10.942 115.56 1.3599 164.71 54.511"/>
  <path d="m290 289.5c-18.88 50.75-65.25 91.438-133.36 110.98"/>
  <path d="m290 289.5c-52.88-54.91-58-99.06-48.78-166.75"/>
  <path d="m242.2 210.42c62.3-15.17 141.09-15.17 213.59 28.33"/>
  <path d="m227.94 367.33c-45.6-52.81-69.02-128.01-49.27-210.82"/>
  <path d="m389.24 298.35c-33.91 84.79-86.08 135.48-155.22 155.37"/>
 </g>
</svg>
