<?xml version="1.0" encoding="UTF-8" standalone="no"?>
<svg xmlns:rdf="http://www.w3.org/1999/02/22-rdf-syntax-ns#" xmlns="http://www.w3.org/2000/svg" height="580" width="580" version="1.0" xmlns:cc="http://creativecommons.org/ns#" xmlns:dc="http://purl.org/dc/elements/1.1/">
 <title>boules</title>
 <metadata>
  <rdf:RDF>
   <cc:Work rdf:about="">
    <dc:format>image/svg+xml</dc:format>
    <dc:type rdf:resource="http://purl.org/dc/dcmitype/StillImage"/>
    <dc:title>boules</dc:title>
   </cc:Work>
  </rdf:RDF>
 </metadata>
 <g opacity=".8" fill="#fff">
  <path d="m232 159.5a72.5 72.5 0 0 1 -72.5 72.5 72.5 72.5 0 0 1 -72.5 -72.5 72.5 72.5 0 0 1 72.5 -72.5 72.5 72.5 0 0 1 72.5 72.5z"/>
  <path d="m522 391.5a101.5 101.5 0 0 1 -101.5 101.5 101.5 101.5 0 0 1 -101.5 -101.5 101.5 101.5 0 0 1 101.5 -101.5 101.5 101.5 0 0 1 101.5 101.5z"/>
  <path d="m232 362.5a101.5 101.5 0 0 1 -101.5 101.5 101.5 101.5 0 0 1 -101.5 -101.5 101.5 101.5 0 0 1 101.5 -101.5 101.5 101.5 0 0 1 101.5 101.5z"/>
  <path d="m435 159.5a101.5 101.5 0 0 1 -101.5 101.5 101.5 101.5 0 0 1 -101.5 -101.5 101.5 101.5 0 0 1 101.5 -101.5 101.5 101.5 0 0 1 101.5 101.5z"/>
 </g>
 <g fill="#008040">
  <path d="m203 159.43a43.55 43.57 0 0 1 -43.55 43.57 43.55 43.57 0 0 1 -43.55 -43.57 43.55 43.57 0 0 1 43.55 -43.57 43.55 43.57 0 0 1 43.55 43.57z"/>
  <path d="m203 362.5a72.5 72.5 0 0 1 -72.5 72.5 72.5 72.5 0 0 1 -72.5 -72.5 72.5 72.5 0 0 1 72.5 -72.5 72.5 72.5 0 0 1 72.5 72.5z"/>
  <path d="m406 159.5a72.5 72.5 0 0 1 -72.5 72.5 72.5 72.5 0 0 1 -72.5 -72.5 72.5 72.5 0 0 1 72.5 -72.5 72.5 72.5 0 0 1 72.5 72.5z"/>
  <path d="m493 391.5a72.5 72.5 0 0 1 -72.5 72.5 72.5 72.5 0 0 1 -72.5 -72.5 72.5 72.5 0 0 1 72.5 -72.5 72.5 72.5 0 0 1 72.5 72.5z"/>
 </g>
</svg>
