<?xml version="1.0" encoding="UTF-8" standalone="no"?>
<svg xmlns:rdf="http://www.w3.org/1999/02/22-rdf-syntax-ns#" xmlns="http://www.w3.org/2000/svg" height="580" width="580" version="1.0" xmlns:cc="http://creativecommons.org/ns#" xmlns:dc="http://purl.org/dc/elements/1.1/">
 <title>gymnastics</title>
 <metadata>
  <rdf:RDF>
   <cc:Work rdf:about="">
    <dc:format>image/svg+xml</dc:format>
    <dc:type rdf:resource="http://purl.org/dc/dcmitype/StillImage"/>
    <dc:title>gymnastics</dc:title>
   </cc:Work>
  </rdf:RDF>
 </metadata>
 <path opacity=".8" fill="#fff" d="m211.6 28.646c-30.08 0.377-56.29 35.996-38.72 66.231l53.49 90.633-7.96 6.44-120.04-91.973c-47.502-34.383-104.21 33.193-62.759 74.433l135.99 129.16 10.92 185.43c4.32 70.63 97.13 67.17 100.96 0l6.86-163.58 80.56-60.73 142.39-34.91c61.48-17.68 28.76-96.82-18.59-90.92l-72.48 9.58c5.69-21.99 0.47-47.01-17.32-62.063-12.18-10.888-28.53-17.28-44.93-16.647-25.48 0-47.38 18.829-56.1 42.1l-59.99-67.838c-10-11.007-21.4-15.482-32.28-15.346z"/>
 <path d="m398.75 132.06a36.25 36.25 0 0 1 -36.26 36.25 36.25 36.25 0 0 1 -36.24 -36.25 36.25 36.25 0 0 1 36.24 -36.249 36.25 36.25 0 0 1 36.26 36.249z" fill="#008040"/>
 <path fill="#008040" d="m199 290 12 199c0 29 40.483 29 42 0l8-179.02 96.83-73.01 148.91-33.97c21.14-5.67 15.26-37.68-8.47-34.44l-124.7 17.43c-19.06 3.37-37.58 2.23-54.57-11.99l-90.22-104.85c-15.58-19.091-39.35-4.326-25.78 17.85l61.68 104.03-43.48 40.97-134.2-105.1c-22.252-22.252-52.577 4.075-29 27.53z"/>
</svg>
