<?xml version="1.0" encoding="UTF-8" standalone="no"?>
<svg xmlns:rdf="http://www.w3.org/1999/02/22-rdf-syntax-ns#" xmlns="http://www.w3.org/2000/svg" height="580" width="580" version="1.0" xmlns:cc="http://creativecommons.org/ns#" xmlns:dc="http://purl.org/dc/elements/1.1/">
 <title>dance</title>
 <metadata>
  <rdf:RDF>
   <cc:Work rdf:about="">
    <dc:format>image/svg+xml</dc:format>
    <dc:type rdf:resource="http://purl.org/dc/dcmitype/StillImage"/>
    <dc:title>dance</dc:title>
   </cc:Work>
  </rdf:RDF>
 </metadata>
 <path opacity=".8" d="m145 29c-58 0-88.561 62.584-64.475 108.22-38.571 37.23-67.989 102.41-78.378 148.95-0.57339 27.869 34.051 49.554 58.505 35.278 17.472-9.2954 25.782-28.421 35.576-44.523 3.0008 11.804 6.1791 23.573 9.209 35.346-16.557 23.944-38.616 45.501-47.175 74.002 5.5038 40.836 26.76 106.59 56.864 127.62 21.709 12.428 54.151-0.59495 58.783-25.852 20.448 27.983 45.416 77.11 83.205 50.492 14.048-9.6569 21.405-28.302 16.303-44.806-2.86-31.02-40.4-65.77-29.77-93.05 17.36-52.67 21.7-85.08 10.16-126.53 36.2 37.18 94.2-3.42 68.97-41.95-28.51-36.99-70.49-85.61-110.42-100.91 19.65-54.348-9.35-102.28-67.35-102.28zm233.41 74.645-2.7734 211.79c-42.327-4.7008-88.432 18.317-104.67 58.771-13.202 31.959-0.31508 72.458 29.627 90.135 76.4 41.48 163.4 7.3 164.89-71.77l-0.254-164.28c16.658 13.724 38.097 25.685 60.42 21.756 34.994-17.844 38.008-34.603 17.231-69.918l-96.04-115.35c-33.77-27.938-69.85 3.988-68.44 38.86z" fill="#fff"/>
 <g fill="#008040">
  <path d="m188.5 101.51c0-12.235-4.32-22.546-12.95-30.932-8.63-8.385-18.93-12.578-30.88-12.578-11.943 0.00039-22.123 4.1931-30.54 12.578-8.4172 8.3859-12.626 18.697-12.625 30.932-0.00023 12.223 4.2082 22.526 12.625 30.911 8.4167 8.3858 18.597 12.578 30.54 12.578 11.956 0.00028 22.251-4.1925 30.885-12.578 8.6328-8.3851 12.949-18.689 12.95-30.911z"/>
  <path d="m219.67 505.97-42.36-72.619c-2.789-6.3308-2.9458-11.286-2.1006-17.759l8.293-90.158-59.251 65.747 20.346 73.24c6.9805 28.337-16.298 32.494-25.113 9.6487l-30.619-72.99c-2.1089-8.4269-1.7471-13.47 3.0447-19.835l46.037-63.152-30.426-116.73-52.647 85.975c-10.089 16.623-30.02 6.571-19.305-12.626l48.03-100c5.0086-11.178 20.667-15.804 31.97-15.804h80c8.1683 0.54167 14.337 2.4698 20.767 6.492l70.09 66.366c19.893 16.675 5.0945 33.142-13.606 19.443l-75.992-57.654 30.683 97.402c2.8864 14.388 4.1766 20.116 2.7654 34.887l-20.713 91.035 32.871 76.675c10.177 23.027-13.858 30.355-22.773 12.411z"/>
  <path d="m327.28 445.16c-32.79-14.64-41.41-47.77-19.4-74.6 20.35-24.82 55.93-32.31 89.24-18.79 5.64 2.29 7.71-0.54 8.88-32.77 0.49572-13.651-0.48689-110.06-0.10924-136.11 1.3524-93.263 1.5705-94.956 12.433-96.542 7.9067-1.1542 13.156 2.5506 18.426 13.005 4.0531 8.0404 20.638 27.354 36.856 42.919 38.709 37.151 52.182 55.921 52.182 72.695-8.3644 14.163-30.925 0.33891-49.811-17.164-39.51-36.63-40.97-40.79-40.98 34.18-0.00092 5.5753 1.3237 89.074 1.3237 95.544 0 75.588-0.85458 83.377-10.532 95.998-21.441 27.961-63.588 37.209-98.515 21.615z"/>
 </g>
</svg>
