<?xml version="1.0" encoding="UTF-8" standalone="no"?>
<svg xmlns:rdf="http://www.w3.org/1999/02/22-rdf-syntax-ns#" xmlns="http://www.w3.org/2000/svg" height="580" width="580" version="1.0" xmlns:cc="http://creativecommons.org/ns#" xmlns:dc="http://purl.org/dc/elements/1.1/">
 <title>multi</title>
 <metadata>
  <rdf:RDF>
   <cc:Work rdf:about="">
    <dc:format>image/svg+xml</dc:format>
    <dc:type rdf:resource="http://purl.org/dc/dcmitype/StillImage"/>
    <dc:title>multi</dc:title>
   </cc:Work>
  </rdf:RDF>
 </metadata>
 <path opacity=".8" d="m290 68.875c-18.47 0-36.94 10.875-49.5 32.625l-74.5 130.5c-11.74 20.33-12.38 40.59-3.07 54.5-19.59-1.43-39.59 9.4-52.93 32.5l-74.5 130.5c-21 36.37-6.5 72.5 37 72.5h174c22.73 0 37.53-9.86 43.5-24.47 5.97 14.61 20.77 24.47 43.5 24.47h174c43.5 0 58-36.13 37-72.5l-74.5-130.5c-13.34-23.1-33.34-33.93-52.93-32.5 9.31-13.91 8.67-34.17-3.07-54.5l-74.5-130.5c-12.56-21.75-31.03-32.625-49.5-32.625zm-91.8 235.46c1.56 0.1 3.16 0.16 4.8 0.16h174c1.64 0 3.24-0.06 4.8-0.16-3.92 4.16-7.56 9.05-10.8 14.66l-74.5 130.5c-2.8 4.85-4.95 9.69-6.5 14.44-1.55-4.75-3.7-9.59-6.5-14.44l-74.5-130.5c-3.24-5.61-6.88-10.5-10.8-14.66z" fill-rule="evenodd" fill="#fff"/>
 <g fill-rule="evenodd" fill="#008040">
  <path d="m258.22 463.64c7.73 12.88-1.55 29.36-16.64 29.36h-164.16c-15.089 0-24.365-16.48-16.637-29.36l82.097-136.82c7.5344-12.54 25.715-12.515 33.233 0l82.1 136.82z"/>
  <path d="m519.22 463.64c7.73 12.88-1.55 29.36-16.64 29.36h-164.17c-15.086 0-24.362-16.481-16.633-29.36l82.1-136.82c7.5344-12.54 25.715-12.515 33.233 0l82.1 136.82z"/>
  <path d="m388.72 247.72c7.7289 12.879-1.5475 29.36-16.633 29.36h-164.17c-15.086 0-24.362-16.481-16.633-29.36l82.09-136.82c7.5344-12.54 25.715-12.515 33.233 0l82.1 136.82z"/>
 </g>
</svg>
