<?xml version="1.0" encoding="UTF-8" standalone="no"?>
<svg xmlns:rdf="http://www.w3.org/1999/02/22-rdf-syntax-ns#" xmlns="http://www.w3.org/2000/svg" height="580" width="580" version="1.0" xmlns:cc="http://creativecommons.org/ns#" xmlns:dc="http://purl.org/dc/elements/1.1/">
 <title>exercise</title>
 <metadata>
  <rdf:RDF>
   <cc:Work rdf:about="">
    <dc:format>image/svg+xml</dc:format>
    <dc:type rdf:resource="http://purl.org/dc/dcmitype/StillImage"/>
    <dc:title>exercise</dc:title>
   </cc:Work>
  </rdf:RDF>
 </metadata>
 <path opacity=".8" d="m275.5 29c-51.99 0-87.78 58.696-68.03 100.94-16.2-3.42-34.56 2.26-45.48 15.06h-132.99c-23.03 0-29 14.5-29 37.46s7.9141 35.04 29 35.04h122.83l0.66761 73.008c0.61396 23.852 2.9854 39.592 24.143 44.791-1.27 3.32-2.33 8.4-2.64 12.7l4 182c0 58 83 50.537 97.246 23.307 14.75 27.81 97.75 34.69 97.75-23.31l4-182c0.0895-4.0733 0-8.6633-2.4949-12.715 22.21-3.34 26.29-22.88 25.16-45.28l-0.59488-72.5h137.43c21.952 0 29-14.497 29-35.803-0.01-21.31-6.05-36.7-29.01-36.7h-147.74c-10.71-13.01-29.55-18.7-45.22-16.06 14.34-50.843-16.05-99.94-68.04-99.94z" fill="#fff"/>
 <g fill="#008040">
  <path d="m319 101.5a43.5 43.5 0 0 1 -43.5 43.5 43.5 43.5 0 0 1 -43.5 -43.5 43.5 43.5 0 0 1 43.5 -43.496 43.5 43.5 0 0 1 43.5 43.496z"/>
  <g fill-rule="evenodd">
   <path d="m536.5 188.5c14.5 0 14.5-14.5 0-14.5h-507.5c-14.5 0-14.5 14.5 0 14.5z"/>
   <path d="m181.5 174c0-20.631 30.609-20.175 32 0l8 116c-0.20438 22-40 22-40 0z"/>
   <path d="m301.5 530c1.6094 25.47 41.95 25.01 42.5 0l4-182c-0.20438-27.214-59.716-27.16-58 0z"/>
   <path d="m249.5 530c-1.6094 25.47-41.95 25.01-42.5 0l-4-182c0.20438-27.214 59.716-27.16 58 0z"/>
   <path d="m369.5 173.41c0-20.631-30.609-20.175-32 0l-8 116c0.20438 22 40 22 40 0z"/>
  </g>
 </g>
</svg>
