<?xml version="1.0" encoding="UTF-8" standalone="no"?>
<svg xmlns:rdf="http://www.w3.org/1999/02/22-rdf-syntax-ns#" xmlns="http://www.w3.org/2000/svg" height="580" width="580" version="1.0" xmlns:cc="http://creativecommons.org/ns#" xmlns:dc="http://purl.org/dc/elements/1.1/">
 <title>table_tennis</title>
 <metadata>
  <rdf:RDF>
   <cc:Work rdf:about="">
    <dc:format>image/svg+xml</dc:format>
    <dc:type rdf:resource="http://purl.org/dc/dcmitype/StillImage"/>
    <dc:title>table_tennis</dc:title>
   </cc:Work>
  </rdf:RDF>
 </metadata>
 <path opacity=".8" d="m263.37 42.965c-78.09 1.372-150.42 56.043-178.34 128.1-27.03 75.44-3.811 146.07 39.02 204.97-37.469-0.9641-72.859 27.465-80.578 64.053-6.4788 27.555 2.9758 58.3 24.716 76.681 25.223 22.775 65.646 29.147 94.97 10.474 29.743-17.391 46.542-54.933 38.4-88.607 24.989 12.338 48.375 17.994 73.594 20.492 35.01-0.31735 87.346-19.222 103.26-15.103 19.585 5.0704 56.588 63.482 89.038 87.63 25.233 9.5651 52.742 0.70632 70.68-18.29 19.161-16.978 29.34-41.643 23.937-67.75-17.68-39.6-85.61-75.21-89.62-97.6s20.55-87 7.59-146.74c-30.54-94.41-122.76-159.3-216.67-158.3z" fill="#fff"/>
 <g fill="#008040">
  <path d="m173.32 457.2a50.75 50.75 0 0 1 -50.75 50.75 50.75 50.75 0 0 1 -50.75 -50.75 50.75 50.75 0 0 1 50.75 -50.75 50.75 50.75 0 0 1 50.75 50.75z"/>
  <path d="m532.89 473.15c-5.1455 10.875-12.123 21.428-28.073 30.396-9.6259 5.4123-19.265 2.7782-27.785-5.6769-25.3-26.312-56.529-59.452-78.226-78.744-9.7418-6.6197-37.561-6.9359-56.015-0.63667-19.74 5.8854-34.535 7.9483-52.788 9.3418l166.74-166.83c0.17802 17.696-2.7532 36.525-8.4978 52.84-4.9688 13.626-7.8665 34.335-1.8416 49.824 19.963 26.017 47.869 50.326 80.628 81.683 10.415 9.6118 10.332 18.357 5.8618 27.806z"/>
  <path d="m253.18 424.45c-17.844-3.8243-35.986-10.574-50.818-18.926-47.528-27.269-87.136-84.17-96.985-139.33-8.3739-46.9 3.9342-93.06 34.545-129.56 45.632-54.407 105.23-74.708 170.14-57.952 33.402 8.6229 66.554 27.813 94.955 54.965 24.304 23.235 42.127 54.84 48.949 86.801z"/>
 </g>
</svg>
