<?xml version="1.0" encoding="UTF-8" standalone="no"?>
<svg xmlns:rdf="http://www.w3.org/1999/02/22-rdf-syntax-ns#" xmlns="http://www.w3.org/2000/svg" height="580" width="580" version="1.0" xmlns:cc="http://creativecommons.org/ns#" xmlns:dc="http://purl.org/dc/elements/1.1/">
 <title>equestrian</title>
 <metadata>
  <rdf:RDF>
   <cc:Work rdf:about="">
    <dc:format>image/svg+xml</dc:format>
    <dc:type rdf:resource="http://purl.org/dc/dcmitype/StillImage"/>
    <dc:title>equestrian</dc:title>
   </cc:Work>
  </rdf:RDF>
 </metadata>
 <g>
  <path opacity=".8" d="m445.81 69.469-38.703 32.683-68.654 69.262c-14.295-13.641-38.203-21.435-49.117-25.35-0.31216-13.328-5.059-26.655-13.553-36.986 8.54-10.137 14.21-22.07 14.21-36.57 0-29-26.956-58-58-58s-58 27.127-58 58c0 14.5 6.5362 27.553 14.5 37.473-11.34 13.73-14.5 26.68-14.5 35.03v58h-87c-43.5 0-72.5 29-72.5 72.5v72.5c1.4198 22.847 25.453 41.228 43.5 39.071l5.8626 121.08c2.442 28.306 15.782 49.208 45.141 48.79 29.359-0.41773 43.165-22.398 45.791-49.479l1.4747-50.55 30.76 70.962c9.546 21.888 35.275 30.689 58.123 20.956 22.848-9.7333 30.341-37.349 24.246-61.808l-35.47-95.52 4.38-14.5h66.18l4.0416 130.61c1.1075 26.878 21.598 49.211 48.443 49.354 26.845 0.14328 42.856-21.089 44.272-49.464l3.5795-152.58 59.814-119.61c21.329 5.7772 44.572 15.052 66.713 7.4316 32.054-13.967 39.567-63.246 12.941-85.998l-60.852-38.502 9.8217-31.179c3.09-14.559-14.77-43.559-47.46-17.59z" fill="#fff"/>
  <path d="m101.5 348-14.5 29 4 130.5c0 29 35.5 29 35.5 0l4-116 29-43.5v43.5l47.5 116c9.6827 29 45.664 19.39 35.5-12.5l-39.5-103.5 14.5-43.5h116l4 159.5c0 29 35.5 29 35.5 0l4-159.5 72.5-145 58 14.5c23.171 7.7561 34.606-29 14.5-43.5l-72.5-43.5 14.5-39.5-43.5 35.5-101.5 105.5h-58v-35l43.5 6c15.402 2.2242 14.789-18.177 3.0732-23l-46.57-12v-23c0-35.744-58-34.781-58 0v87h-116c-29 0-43.852 14.324-43.5 43.5v72.5c0 14.5 20.5 14.5 20.5 0l8.5-72.5c3.5366-14.5 14.5-21.22 29-21.573z" fill="#008040"/>
  <path d="m261 72.5a29 29 0 0 1 -29 29 29 29 0 0 1 -29 -29 29 29 0 0 1 29 -29 29 29 0 0 1 29 29z" fill="#008040"/>
 </g>
</svg>
