<?xml version="1.0" encoding="UTF-8" standalone="no"?>
<svg xmlns:rdf="http://www.w3.org/1999/02/22-rdf-syntax-ns#" xmlns="http://www.w3.org/2000/svg" height="580" width="580" version="1.0" xmlns:cc="http://creativecommons.org/ns#" xmlns:dc="http://purl.org/dc/elements/1.1/">
 <title>water_park</title>
 <metadata>
  <rdf:RDF>
   <cc:Work rdf:about="">
    <dc:format>image/svg+xml</dc:format>
    <dc:type rdf:resource="http://purl.org/dc/dcmitype/StillImage"/>
    <dc:title>water_park</dc:title>
   </cc:Work>
  </rdf:RDF>
 </metadata>
 <path opacity=".8" d="m290 21.75a188.5 188.5 0 0 0 -188.5 188.5 188.5 188.5 0 0 0 135.75 180.84c-12.97 6.88-25.02 12.91-34.25 12.91-21.75 0-58-31.1-86.96-31.1-28.97 0-50.79 33.1-79.79 33.1-21.75 0-36.25 7.25-36.25 34.02v59.96c0 22.02 14.5 31.9 35.17 31.9 30.08 0 51.83-32.42 80.83-32.42s58 31.78 87 31.38 58-31.65 87-32.21c29-0.55 58 30.9 87 30.9 29 0.01 59.27-30.19 87.64-30.19 28.36 0 42.86 29.02 71.79 29.02 21.82 0 43.57-6.36 43.57-28.11v-58c0-29.83-7.25-43.5-36.25-43.5s-50.75-26.79-80.26-26.35c-29.52 0.44-57.9 31.81-86.49 31.6-11.95-0.09-24.05-5.71-36.16-12.26a188.5 188.5 0 0 0 137.66 -181.49 188.5 188.5 0 0 0 -188.5 -188.5z" fill-rule="evenodd" fill="#fff"/>
 <path fill="#008040" d="m116 402.38c-23.225 0-64.914 32.62-87 32.62v65.25c23.368 0 66.356-32.625 87-32.625 21.934 0 63.775 32.625 87 32.625 20.684 0 64.915-32.625 87-32.625 21.934 0 66.195 32.625 87 32.625 21.934 0 66.356-32.625 87-32.625s65.066 32.625 87 32.625v-65.25c-18.06 0-63.78-33.92-87-32.62-20.8 0-63.74 32.62-87 32.62-19.35 0-65.07-32.62-87-32.62s-67.6 32.62-87 32.62c-20.684 0-63.775-32.625-87-32.625z"/>
 <g fill-rule="evenodd">
  <circle cx="290" cy="209.75" r="159.5" fill="#008040"/>
  <circle cx="290" cy="209.75" r="151.75" fill="#ecf7ec"/>
  <g fill="#008040">
   <path d="m215.61 100.1c7.8182-6.3644 15.854-9.8087 24.855-10.811 5.9673-14.093 16.54-27.118 26.213-29.488-28.425 4.29-53.18 16.939-69.425 29.839 6.5006 1.5349 12.997 5.4005 18.357 10.46z"/>
   <path d="m201.95 120.75c-20.832 4.66-47.795 21.542-56.096 41.576-13.767 40.172-9.9653 94.982 22.543 138.2-26.68-42.23-5.8727-114.36 38.013-161.75-4.7763-4.7628-5.8862-11.757-4.4599-18.024z"/>
   <path d="m261.4 95.353c41.423-23.077 79.568-27.285 114.14-10.945 45.042 30.398 71.359 85.155 65.444 140.55 4.2562-27.75-41.848-101.44-174.83-111.7 1.6515-7.9688-0.52164-13.577-4.7596-17.91z"/>
   <path d="m252.65 134.07c45.34 44.3 142.7 162.54 138.33 188.96-35.73 31.04-70.7 37.53-97.4 38.43-54.33-15.91-74.04-154.57-65.95-216.46 9.0994-1.1104 17.447-4.7256 25.017-10.936z"/>
  </g>
  <ellipse cy="229.86" transform="matrix(.82212 -.56931 .61043 .79207 0 0)" stroke="#008040" stroke-width="1" fill="#fff" rx="35.219" ry="24.723" cx="113.98"/>
 </g>
</svg>
