<?xml version="1.0" encoding="UTF-8" standalone="no"?>
<svg xmlns:rdf="http://www.w3.org/1999/02/22-rdf-syntax-ns#" xmlns="http://www.w3.org/2000/svg" height="580" width="580" version="1.0" xmlns:cc="http://creativecommons.org/ns#" xmlns:dc="http://purl.org/dc/elements/1.1/">
 <title>archery</title>
 <metadata>
  <rdf:RDF>
   <cc:Work rdf:about="">
    <dc:format>image/svg+xml</dc:format>
    <dc:type rdf:resource="http://purl.org/dc/dcmitype/StillImage"/>
    <dc:title>archery</dc:title>
   </cc:Work>
  </rdf:RDF>
 </metadata>
 <path opacity=".8" d="m217.5 6.6184c-43.5 0.2017-72.5 36.882-72.5 80.382 0 7.671 1.8921 14.77 4.5469 21.098l-46.003 0.55854c-28.39 0-46.995 21.84-46.836 48.44 0.16 26.61 19.548 45.9 44.786 45.9l28.98-0.45 0.02 145.45-21.57 172.76c-2.0915 23.755 9.7835 42.047 35.15 47.003 25.367 4.956 49.276-7.3796 59.294-39.619l14.183-68.074 20.304 76.43c5.7446 29 34.745 33.622 52.135 31 17.39-2.6217 43.5-21.771 36.34-55.439l-21.84-164.06v-81.42l51.84 52.42c13.687 6.389 24.809 4.4458 35.162 0 65.89-72.5 103.91-203-2-319h-35.5l-66.63 67.069c-6.81-33.348-36.3-60.606-69.87-60.451z" fill="#fff"/>
 <g fill="#008040">
  <path d="m261 79.804a43.5 43.5 0 0 1 -43.5 43.496 43.5 43.5 0 0 1 -43.5 -43.496 43.5 43.5 0 0 1 43.5 -43.5 43.5 43.5 0 0 1 43.5 43.5z"/>
  <path d="m371.79 20.615l-117.78 116.04c4.76 5.82 6.99 11.42 6.99 22.84 0 14.5-14.5 29-29 29h-72.5v159.5l-21.82 169.79c-3.62 25.85 30.16 29.7 36.32 4.21l36.27-174h14.94l35.79 174c4.39 26.06 38.66 21.36 35.77-3.01l-21.27-170.99v-147.73l96.29 96.28 8.09-8.7c32.35-35.66 48.52-79.42 48.52-131.26 0-51.44-16.38-91.19-49.15-127.26 0-0.001-2.49-2.905-7.46-8.715zm-7.46 23.635c24.46 28.617 38.83 61.28 41.67 100.75h-130.5v-11.2l88.83-89.55zm-88.83 129.75h130.5c-3.73 36.92-17.62 69.69-41.67 98.3l-88.83-88.83v-9.47z" fill-rule="evenodd"/>
  <path d="m226 174c20.631 0 20.223-36 0-36h-123c-22 0.20438-22 36 0 36z" fill-rule="evenodd"/>
 </g>
</svg>
