<?xml version="1.0" encoding="UTF-8" standalone="no"?>
<svg xmlns:rdf="http://www.w3.org/1999/02/22-rdf-syntax-ns#" xmlns="http://www.w3.org/2000/svg" height="580" width="580" version="1.0" xmlns:cc="http://creativecommons.org/ns#" xmlns:dc="http://purl.org/dc/elements/1.1/">
 <title>shooting</title>
 <metadata>
  <rdf:RDF>
   <cc:Work rdf:about="">
    <dc:format>image/svg+xml</dc:format>
    <dc:type rdf:resource="http://purl.org/dc/dcmitype/StillImage"/>
    <dc:title>shooting</dc:title>
   </cc:Work>
  </rdf:RDF>
 </metadata>
 <path opacity=".8" d="m217.5 6.6184c-43.5 0.2017-72.5 36.882-72.5 80.382 0 7.671 1.8921 14.77 4.5469 21.098l-46.003 0.55854c-28.39 0-46.995 21.84-46.836 48.44 0.16 26.61 19.548 45.9 44.786 45.9l28.98-0.45 0.02 145.45-21.57 172.76c-2.0915 23.755 9.7835 42.047 35.15 47.003 25.367 4.956 49.276-7.3796 59.294-39.619l14.183-68.074 20.304 76.43c5.7446 29 34.745 33.622 52.135 31 17.39-2.6217 43.5-21.771 36.34-55.439l-21.84-164.06v-145l14.5-14.5h29l17.857-23.832 141.63-4.6876c10.58-0.48 14.51-6.15 14.51-14.98v-43.5c0-9.194-9.02-14.5-14.5-14.5h-217.5c0-43.5-29-80.583-72.5-80.382z" fill="#fff"/>
 <g fill="#008040">
  <path d="m261 79.804a43.5 43.5 0 0 1 -43.5 43.496 43.5 43.5 0 0 1 -43.5 -43.496 43.5 43.5 0 0 1 43.5 -43.5 43.5 43.5 0 0 1 43.5 43.5z"/>
  <path d="m159.5 188.5v159.5l-21.821 169.78c-3.61 25.85 30.16 29.71 36.32 4.22l36.274-174h14.934l35.79 174c4.3867 26.061 38.657 21.365 35.767-3.0108l-21.27-170.99v-154.68l29-29h29l14.5-29 145-4.8173v-14.5h-226.49c-6.4892 5.814-7.3396 8.8607-17.963 14.5 6.5739 6.5834 12.456 14.5 12.456 29s-14.5 29-29 29z" fill-rule="evenodd"/>
  <path d="m226 174c20.631 0 20.223-36 0-36h-123c-22 0.20438-22 36 0 36z" fill-rule="evenodd"/>
 </g>
</svg>
