<?xml version="1.0" encoding="UTF-8" standalone="no"?>
<svg xmlns:rdf="http://www.w3.org/1999/02/22-rdf-syntax-ns#" xmlns="http://www.w3.org/2000/svg" height="580" width="580" version="1.0" xmlns:cc="http://creativecommons.org/ns#" xmlns:dc="http://purl.org/dc/elements/1.1/">
 <title>scuba_diving</title>
 <metadata>
  <rdf:RDF>
   <cc:Work rdf:about="">
    <dc:format>image/svg+xml</dc:format>
    <dc:type rdf:resource="http://purl.org/dc/dcmitype/StillImage"/>
    <dc:title>scuba_diving</dc:title>
   </cc:Work>
  </rdf:RDF>
 </metadata>
 <path opacity=".8" fill="#fff" d="m484.88 61.309-143.67 146.16l-14.343 5.3884-12.613-38.149c-9.1664-27.724-25.497-27.657-52.748-17.739l-89.502 32.576c-19.499 7.0969-28.165 25.682-26.219 46.055-9.0084-4.517-19.034-6.4857-29.01-6.1631-0.714-1.5416-4.5615-12.204-18.624-18.052 12.085-30.219-7.8579-52.386-30.801-55.468-26.593-4.5128-46.402 21.541-42.847 45.786-23.803 25.956-5.3201 71.982 33.742 66.1l2.4723 2.66s-5.4772 24.264-4.9414 35.486l-8.9442 11.936c-5.8239 7.7717 2.4196 19.018 12.255 26.191l30.13 25.579-68.032 81.542c-29 29.834-25.466 68.207-3.2476 85.081s52.433 15.827 75.748-9.0011l105.63-112.25 169.87-61.76c24.704-8.981 43.5-24.594 58-43.5l142.18-174c17.323-19.445 12.524-55.598-6.8265-75.279-19.351-19.681-55.752-21.827-77.641 0.80365z"/>
 <g fill="#008040">
  <path d="m71.988 508.78 111.46-117.72 187.35-68.19c8.1466-3.3928 14.796-8.0814 19.947-14.066l152.97-183.88c11.44-14.885 12.278-35.154-3.8321-46.803-15.07-10.898-28.809-4.6018-39.705 7.5062l-143.34 145.89-153.28 55.79c-8.6315 3.299-15.635 9.4312-20.785 15.415l-147.36 172.87c-9.8911 11.528-10.363 30.988 0.083 38.932 10.446 7.9418 25.311 7.4298 36.489-5.7363z"/>
  <path d="m176.04 218.94 95.379-34.715c13.626-4.9593 13.626-4.9593 18.585 8.6662l5.0831 13.966c4.8362 13.287 6.3961 12.72-8.7894 18.247l-95.379 34.715c-17.913 6.5199-33.383-34.141-14.878-40.877z"/>
  <path d="m106.06 259.84a36.25 36.25 0 0 0 -21.666 46.462 36.25 36.25 0 0 0 1.2679 2.9865l-10.51 11.764 21.641 19.313 10.682-11.965a36.25 36.25 0 0 0 23.382 -0.43321 36.25 36.25 0 0 0 21.666 -46.462 36.25 36.25 0 0 0 -46.462 -21.666z"/>
 </g>
 <g fill-rule="evenodd" fill="#008040">
  <path d="m42.253 232.91a10.875 10.875 0 0 0 13.939 6.4997 10.875 10.875 0 0 0 6.4997 -13.939 10.875 10.875 0 0 0 -13.939 -6.4997 10.875 10.875 0 0 0 -6.4997 13.939z"/>
  <path d="m78.183 246.84a7.25 7.191 70 0 0 9.237 4.3533 7.25 7.191 70 0 0 4.2777 -9.2722 7.25 7.191 70 0 0 -9.237 -4.3533 7.25 7.191 70 0 0 -4.2777 9.2722z"/>
  <path d="m52.773 198.22a10.875 10.875 0 0 0 13.939 6.4997 10.875 10.875 0 0 0 6.4997 -13.939 10.875 10.875 0 0 0 -13.939 -6.4997 10.875 10.875 0 0 0 -6.4997 13.939z"/>
 </g>
</svg>
