<?xml version="1.0" encoding="UTF-8" standalone="no"?>
<svg xmlns:rdf="http://www.w3.org/1999/02/22-rdf-syntax-ns#" xmlns="http://www.w3.org/2000/svg" height="580" width="580" version="1.0" xmlns:cc="http://creativecommons.org/ns#" xmlns:dc="http://purl.org/dc/elements/1.1/">
 <title>10pin</title>
 <metadata>
  <rdf:RDF>
   <cc:Work rdf:about="">
    <dc:format>image/svg+xml</dc:format>
    <dc:type rdf:resource="http://purl.org/dc/dcmitype/StillImage"/>
    <dc:title>10pin</dc:title>
   </cc:Work>
  </rdf:RDF>
 </metadata>
 <path opacity=".8" d="m76.956 116c-4.6574 44.214 17.027 91.095 6.5762 134.97-11.633 48.05-38.866 97.03-38.428 142.86 1.404 48.25 35.033 111.89 50.62 157.17h99.463l40.473-108.44c13.885 53.131 59.159 97.843 113.92 106.93 59.158 11.568 124.89-17.106 153.91-70.514 30.41-51.851 25.018-123.18-15.746-168.04-37.423-44.147-102.63-63.391-157.44-43.356-39.39 13.751-72.504 44.626-88.695 83.109 1.23-35.61-39.95-83.78-38.6-110.63-3.87-41.33 15.17-82.91 10.5-124.06-3.95-36.267-35.21-58-68.5-58s-65.526 20.893-68.044 58z" fill="#fff"/>
 <path fill="#008040" d="m145 87c-29 0-38.78 14.369-39 43.5-0.22016 29.131 9 58 9 72.5h60c0-14.5 9.486-43.504 9-72.5-0.37-29.09-10-43.5-39-43.5zm-29 130.5c0.15518 9.0566 0.62586 18.286-1 29h60c-1.459-10.512-1.311-19.768-1-29h-58zm-8.5 58c-6 29-33 72.5-33 101.5 0 58 27 101.5 41.5 145h58c14.5-43.5 41.5-87 41.5-145 0-29-27-72.5-33-101.5h-75z"/>
 <g>
  <path d="m493 406a116 116 0 0 1 -116 116 116 116 0 0 1 -116 -116 116 116 0 0 1 116 -116 116 116 0 0 1 116 116z" fill="#008040"/>
  <g fill="#fff">
   <path d="m348 333.5a14.5 14.5 0 0 1 -14.5 14.5 14.5 14.5 0 0 1 -14.5 -14.5 14.5 14.5 0 0 1 14.5 -14.5 14.5 14.5 0 0 1 14.5 14.5z"/>
   <path d="m406 333.5a14.5 14.5 0 0 1 -14.5 14.5 14.5 14.5 0 0 1 -14.5 -14.5 14.5 14.5 0 0 1 14.5 -14.5 14.5 14.5 0 0 1 14.5 14.5z"/>
   <path d="m377 391.5a14.5 14.5 0 0 1 -14.5 14.5 14.5 14.5 0 0 1 -14.5 -14.5 14.5 14.5 0 0 1 14.5 -14.5 14.5 14.5 0 0 1 14.5 14.5z"/>
  </g>
 </g>
</svg>
