<?xml version="1.0" encoding="UTF-8" standalone="no"?>
<svg xmlns:rdf="http://www.w3.org/1999/02/22-rdf-syntax-ns#" xmlns="http://www.w3.org/2000/svg" height="580" width="580" version="1.0" xmlns:cc="http://creativecommons.org/ns#" xmlns:dc="http://purl.org/dc/elements/1.1/">
 <title>soccer</title>
 <metadata>
  <rdf:RDF>
   <cc:Work rdf:about="">
    <dc:format>image/svg+xml</dc:format>
    <dc:type rdf:resource="http://purl.org/dc/dcmitype/StillImage"/>
    <dc:title>soccer</dc:title>
   </cc:Work>
  </rdf:RDF>
 </metadata>
 <g fill-rule="evenodd">
  <path opacity=".8" d="m551 290a261 261 0 0 1 -261 261 261 261 0 0 1 -261 -261 261 261 0 0 1 261 -261 261 261 0 0 1 261 261z" fill="#fff"/>
  <path d="m522 290a232 232 0 0 1 -232 232 232 232 0 0 1 -232 -232 232 232 0 0 1 232 -232 232 232 0 0 1 232 232z" fill="#ecf7ec"/>
  <path d="m290 58c-128.06 0-232 103.95-232 232.01 0 128.07 103.94 231.99 232 231.99s232-103.92 232-231.99c0-128.06-103.94-232.01-232-232.01zm-17.409 19.273 48.4 42.027-12.801 53.631-53.763 26.235-68.018-18.933-10.106-43.669 26.086-41.347 70.201-17.942zm120.51 22.414 62.305 53.659-17.544 67.102-56.942 8.9431-53.277-55.951 8.5158-50.829 56.942-22.924zm-224.24 9.9619c-2.2139 9.1342-4.4388 18.289-6.4946 27.423l-31.314 8.462c2.5302-4.8161 5.7175-9.2909 9.5127-13.443 3.3209-4.4841 6.7934-8.8234 11.695-12.311 4.9023-3.9858 9.8007-7.1424 16.6-10.132zm9.9706 88.045 62.763 18.424 15.98 71.404-65.458 53.15-56.942-1.6698-14.391-79.384 58.047-61.923zm266.93 40.499 31.934 56.489-44.115 76.554-55.353-5.4904-20.239-48.65 34.01-68.772 53.763-10.132zm-375.58 19.273 33.066 11.122 17.544 77.064-21.343 40.357c-5.0605 2.1543-9.8154-3.4921-14.876-15.113-5.5346-12.615-12.965-38.027-15.495-56.964-2.3721-19.103-2.216-37.694 1.1049-56.461zm437.43 31.046c0.15817 19.265-1.2802 35.543-4.2849 51.989-3.6372 16.271-9.0185 31.06-14.391 43.017-5.3723 11.289-10.288 19.279-15.98 24.593l-25.602-31.244 44.735-79.384 15.522-8.9714zm-237.39 12.792 71.333 19.612 22.771 56.29-39.372 54.31-88.875-19.584-29.267-61.47 63.41-49.159zm-41.42 124.55 94.264 17.461 27.03 43.498-6.7911 19.103c-13.126 2.0021-26.43 3.4885-40.504 3.8207-14.549 0.33217-30.04-0.0135-44.115-1.6698-15.023-2.325-28.947-6.4847-41.123-10.641-12.176-4.4794-21.501-9.4494-29.725-15.594l-1.1048-22.414 42.067-33.564z" stroke-miterlimit="10" stroke-width=".183" fill="#008040"/>
 </g>
</svg>
