<?xml version="1.0" encoding="UTF-8" standalone="no"?>
<svg xmlns:rdf="http://www.w3.org/1999/02/22-rdf-syntax-ns#" xmlns="http://www.w3.org/2000/svg" height="580" width="580" version="1.0" xmlns:cc="http://creativecommons.org/ns#" xmlns:dc="http://purl.org/dc/elements/1.1/">
 <title>tennis</title>
 <metadata>
  <rdf:RDF>
   <cc:Work rdf:about="">
    <dc:format>image/svg+xml</dc:format>
    <dc:type rdf:resource="http://purl.org/dc/dcmitype/StillImage"/>
    <dc:title>tennis</dc:title>
   </cc:Work>
  </rdf:RDF>
 </metadata>
 <g>
  <path opacity=".8" d="m173.7 45.055c-63.6 0.999-121.09 58.545-120.12 122.5 0.19515 49.789 26.661 96.082 62.122 129.61 15.555 15.133 33.461 28.579 52.48 38.468-40.258 0.95534-75.167 37.199-76.24 77.15 1.601 65.71 67.56 94.71 111.53 73.65 57.53-31.35 60.75-98.87 14.31-134.57 16.917 2.4027 34.262 1.0456 50.777-3.2051 19.371 7.6032 39.481 15.781 55.068 29.789l115.25 115.7c19.64 8.3604 42.155-2.0855 55.234-17.303 14.494-15.226 19.517-41.582 5.3254-58.643l-107.26-103.62c-14.806-9.6657-27.423-42.468-33.096-57.344 12.585-44.748-2.8112-93.336-31.098-128.88-35.66-48.532-92.38-85.38-154.28-83.305z" fill="#fff"/>
  <path fill="#008040" d="m222.14 413.93a50.55 50.55 0 0 1 -50.55 50.55 50.55 50.55 0 0 1 -50.55 -50.55 50.55 50.55 0 0 1 50.55 -50.55 50.55 50.55 0 0 1 50.55 50.55z"/>
  <path d="m285.11 120.12c-53.5-53.505-127.87-64.468-173.24-20.51-49.437 47.896-32.996 119.74 20.506 173.24 41.901 41.901 91.901 63.271 137.09 45.097 18.605 6.366 50.105 19.328 80.532 41.943-1.016 4.799 0.331 9.996 4.058 13.723l90.51 90.51c5.857 5.858 15.355 5.858 21.213 0.001l10.606-10.606c5.857-5.858 5.857-15.355 0-21.214l-90.51-90.509c-3.727-3.727-8.923-5.072-13.722-4.058-22.709-30.555-35.684-62.186-42.022-80.761 17.662-44.908-3.277-95.118-45.019-136.86zm58.886 211.62c-19.857-10.854-38.697-19.558-55.349-26.429 10.812-9.0586 20.485-18.766 28.908-28.945 6.876 16.658 15.582 35.506 26.441 55.374z" fill="#008040"/>
  <path opacity=".9" d="m130.61 117.86c-43.61 43.57-14.1 104.81 24.98 140.22 35.22 31.92 83.48 61.83 129.38 16.03 45.9-45.79 21.17-93.39-13.5-130.66s-97.24-69.164-140.86-25.59z" fill="#fff"/>
 </g>
 <g stroke="#008040" stroke-width="5" fill="none">
  <path d="m145 261 130.5-130.5"/>
  <path d="m116 232 130.5-130.5"/>
  <path d="m101.5 188.5 101.5-101.5"/>
  <path d="m174 290 130.5-130.5"/>
  <path d="m217.5 304.5 101.5-101.5"/>
  <path d="m116 101.5 174 174"/>
  <path d="m159.5 87 159.5 159.5"/>
  <path d="m101.5 145 159.5 159.5"/>
 </g>
</svg>
