<?xml version="1.0" encoding="UTF-8" standalone="no"?>
<svg xmlns:rdf="http://www.w3.org/1999/02/22-rdf-syntax-ns#" xmlns="http://www.w3.org/2000/svg" height="580" width="580" version="1.1" xmlns:cc="http://creativecommons.org/ns#" xmlns:dc="http://purl.org/dc/elements/1.1/">
 <title>caravan_site</title>
 <metadata>
  <rdf:RDF>
   <cc:Work rdf:about="">
    <dc:format>image/svg+xml</dc:format>
    <dc:type rdf:resource="http://purl.org/dc/dcmitype/StillImage"/>
    <dc:title>caravan_site</dc:title>
   </cc:Work>
  </rdf:RDF>
 </metadata>
 <path opacity=".8" d="m406 101.5h-304.5c-58 0-101.5 43.5-101.5 101.5v159.5c0 58 43.5 101.5 101.5 101.5h7.7715c0 39.428 35.729 72.5 79.229 72.5s79.6-32.851 79.6-72.5h88.46c0 38.784 34.94 72.5 78.44 72.5s77.653-32.441 77.653-72.5h9.35c29 0 58-14.5 58-58v-232c0-58-29-87-72.5-87h-58c-29 0 0 14.5-43.5 14.5z" fill="#fff"/>
 <g fill="#0069b6">
  <path d="m464 116c-29 0-29 29-29 29 0-14.5-14.5-14.5-29-14.5h-304.5c-43.5 0-72.5 29-72.5 72.5v159.5c0 43.5 29 72.5 72.5 72.5h1.55c7.39-43.5 43.65-72.5 85.45-72.5s77.77 29 85.8 72.5h74.9c7.79-43.5 44.36-72.5 85.8-72.5s78.16 29 85.8 72.5h1.2c29 0 29-14.5 29-43.5v-217.5c0-29-14.5-58-43.5-58h-43.5zm29 43.5c29 0 29 14.5 29 43.5v58c0 29 0 43.5-29 43.5s-29-14.5-29-43.5v-58c0-29 0-43.5 29-43.5zm-348 43.5h72.5c29 0 43.5 0 43.5 36s-14.5 36.5-43.5 36.5h-72.5c-29 0-43.5-0.5-43.5-36.5s14.5-36 43.5-36zm217.5 0c29 0 43.5 0 43.5 36s-14.5 36.5-43.5 36.5-43.5-0.5-43.5-36.5 14.5-36 43.5-36z"/>
  <path d="m188.5 406c-28.028 0-50.75 22.721-50.75 50.75s22.722 50.75 50.75 50.75 50.75-22.721 50.75-50.75-22.722-50.75-50.75-50.75z"/>
  <path d="m435 406c-28.028 0-50.75 22.721-50.75 50.75s22.722 50.75 50.75 50.75 50.75-22.721 50.75-50.75c0-28.03-22.72-50.75-50.75-50.75z"/>
 </g>
</svg>
