<?xml version="1.0" encoding="UTF-8" standalone="no"?>
<svg xmlns:rdf="http://www.w3.org/1999/02/22-rdf-syntax-ns#" xmlns="http://www.w3.org/2000/svg" height="580" width="580" version="1.0" xmlns:cc="http://creativecommons.org/ns#" xmlns:dc="http://purl.org/dc/elements/1.1/">
 <title>zoo</title>
 <metadata>
  <rdf:RDF>
   <cc:Work rdf:about="">
    <dc:format>image/svg+xml</dc:format>
    <dc:type rdf:resource="http://purl.org/dc/dcmitype/StillImage"/>
    <dc:title>zoo</dc:title>
   </cc:Work>
  </rdf:RDF>
 </metadata>
 <path opacity=".8" d="m170.2 83.902c-25.674 0.26612-48.019 15.841-65.935 32.896-25.199 20.356-47.307 48.066-51.155 81.223-4.1705 22.277-14.852 42.722-22.012 64.219-7.0763 27.585-2.2565 56.443-1.3711 84.197-2.3694 20.668-9.6045 43.238 0.50391 63.023 13.416 29.86 53.777 43.557 82.322 27.109 1.0052-0.1118 5.4006-4.2985 3.2656-1.1836-9.2266 16.58-3.9874 38.938 11.244 50.078 11.167 9.3703 26.36 9.4169 40.104 10.586 19.333 0.86625 38.861-2.2514 56.895-9.3027 10.149 21.698 38.773 32.48 60.55 21.975 14.505-5.2346 29.521-9.3813 44.327-12.995 9.8009-5.238 16.816-14.882 19.869-25.461 18.124 9.6807 39.334 10.605 59.42 11.252 4.2832 0.0183 9.0039-1.0834 12.951-0.70117 8.8121 16.371 28.314 22.304 45.578 24.49 22.574 4.5435 48.558 5.7277 68.107-8.4863 16.104-12.648 19.459-34.671 19.707-53.912 17.521-9.9343 21.837-34.338 13.285-51.601-4.4832-11.929-7.0889-25.428-2.5326-37.734 6.9349-42.862 9.5721-89.07-8.9121-129.57-14.104-29.228-42.887-46.928-69.449-63.508-20.304-12.948-40.69-27.49-64.452-33.164-26.322-4.3036-53.346 2.0522-79.432-3.8932-26.608-3.7577-53.46-6.0941-80.257-7.2728-27.702-7.8872-50.073-31.014-79.91-31.955-4.2266-0.35973-8.4731-0.31492-12.711-0.30664zm-7.6 197.5c5.0604 11.542 2.9883 25.13-3.4562 35.659-6.2888 17.625-6.3972 36.74-12.399 54.441-6.8285-10.644-17.871-17.941-29.582-22.252 6.7743-17.624 11.098-36.078 16.42-54.123 8.9154-2.4619 17.245-6.8954 24.48-12.52 1.4112-0.33392 3.3527-1.845 4.5371-1.2051z" fill="#fff"/>
 <path d="m108.83 396.09c5.6451 1.6647 19.51 0.264 14.758-9.1015-2.6367-5.1969-15.042-11.739-20.522-13.291-8.2571-2.3391-22.13 7.8126-11.528 14.323l-2.3056 6.9169c-8.8783-4.2424-11.409-17.225-10.686-26.515 0.50828-6.533 6.4071-13.422 8.744-19.598 6.3841-16.872 11.628-33.452 16.593-50.724 1.9848-6.9042 2.5727-19.97 8.575-24.523 5.624-4.2666 14.261-4.888 20.576-8.0305 4.6551-2.3172 7.6962-7.0841 12.703-8.6323 10.75-3.3236 21.341-2.467 26.498-14.15 10.887 16.436 19.976 31.751 21.783 51.877 1.2842 14.308-8.4824 28.977-11.78 42.654-2.3045 9.5603-1.5944 19.298-4.1052 28.82-3.1322 11.874-9.241 22.849-12.221 34.585-1.7984 7.0794-0.18676 15.134-2.3967 21.902-3.9553 12.115-26.536 19.355-23.851 34.58 1.2404 7.0357 9.4439 8.419 15.278 9.6134 13.548 2.7725 28.132 1.0618 41.501-1.0318 4.4522-0.69746 9.8578 0.1637 13.334-3.312 8.3914-8.3902-1.5229-24.245 1.1955-34.084 1.9471-7.0518 8.6173-13.196 12.101-19.598 7.574-13.921 13.987-28.586 18.33-43.807h1.1528c0.27667 13.416 3.5149 30.232 8.6623 42.654 3.2498 7.8438 11.618 19.098 11.39 27.668-0.39196 14.687-22.645 24.293-11.972 41.48 10.737 17.289 36.116-0.1049 49.561-3.1472 7.3711-1.6681 17.255 0.51531 20.873-8.4087 4.994-12.317-5.1427-23.992-6.8431-35.688-1.9471-13.384 0.56719-26.85-1.8849-40.349-1.7938-9.8785-9.8347-21.373-9.5649-31.126 0.18906-6.8627 5.0609-14.989 6.6425-21.904l43.807 20.572 18.445 10.554c0.0807 9.799-0.18791 21.507 1.5321 31.126 0.82196 4.594 5.1358 9.2352 3.8204 13.984-2.565 9.2525-25.212 18.746-20.116 28.55 2.8014 5.3883 10.534 7.2339 15.916 8.6173 13.629 3.5046 49.335 8.7695 59.354-4.0095 4.4153-5.6315 4.0487-15.002 4.051-21.779 0.007-17.082 1.8076-35.181-2.3056-51.877 14.834 9.1476 18.208 27.53 25.643 42.654 2.5754 5.2384 7.9418 13.546 6.186 19.581-2.7091 9.3079-30.477 23.841-17.629 36.408 3.5622 3.485 10.038 3.7444 14.62 5.1393 13.26 4.0349 53.508 10.62 59.776-6.963 5.8575-16.432 4.3623-45.45 0.2859-62.235-2.399-9.8785-7.9717-18.447-8.9459-28.82-0.89574-9.5442 5.7157-19.204 6.4212-28.82 0.98104-13.388-3.1576-25.144-3.5691-38.043-0.264-8.298 2.5201-16.843 2.5201-25.362 12.663 33.564-0.59255 69.678 8.6242 103.75 1.3419 4.9606 1.8664 33.093 11.803 30.259 3.7259-1.0617 4.828-7.5221 4.0798-10.661-3.2625-13.698-9.1718-25.808-9.2041-40.349-0.0161-7.2305 3.2878-14.682 4.096-21.904 4.7715-42.645 11.436-101.95-25.167-133.22-16.322-13.943-34.001-24.128-51.872-35.672-13.985-9.0343-28.297-19.582-44.96-23.177-12.222-2.6374-25.62 1.2604-38.043 0.65653-27.087-1.3168-53.693-6.4437-80.697-8.9806-12.29-1.17-24.46 1.2-36.89-1.14-26.705-5.0225-46.456-25.203-72.628-31.803-8.2899-2.0905-22.656-0.65791-31.126 0.82992-7.9983 1.4052-12.234 7.0078-18.462 11.443-18.088 12.88-41.809 33.535-51.825 53.888-6.1482 12.494-6.8074 29.191-10.752 42.655-5.749 19.624-16.67 35.952-19.903 56.488-3.3855 21.508 1.8009 44.101 1.7995 65.711-0.001 16.246-9.0887 36.118-3.3046 51.877 8.0854 22.029 51.007 29.308 54.029 0z" fill="#672400"/>
</svg>
