<?xml version="1.0" encoding="UTF-8" standalone="no"?>
<svg xmlns:rdf="http://www.w3.org/1999/02/22-rdf-syntax-ns#" xmlns="http://www.w3.org/2000/svg" height="580" width="580" version="1.0" xmlns:cc="http://creativecommons.org/ns#" xmlns:dc="http://purl.org/dc/elements/1.1/">
 <title>theme_park</title>
 <metadata>
  <rdf:RDF>
   <cc:Work rdf:about="">
    <dc:format>image/svg+xml</dc:format>
    <dc:type rdf:resource="http://purl.org/dc/dcmitype/StillImage"/>
    <dc:title>theme_park</dc:title>
   </cc:Work>
  </rdf:RDF>
 </metadata>
 <path opacity=".8" d="m75.389 56.334c-21.393-0.349-46.229 6.849-56.496 27.348-11.29 21.648 2.948 49.778 24.607 58.058v365.76h58v-362.15c10.211 3.2912 19.998 8.413 29 14.355v347.8h58v-299.03c10.028 10.17 19.633 20.769 29 31.605v267.42h58v-197.64c9.4067 11.105 19.005 22.02 29 32.539v165.11h58v-116.2c9.3392 6.1505 19.017 11.758 29 16.707v99.494h58v-79.637c9.7232 1.7233 19.963 3.2213 29 4.2227v75.414h58v-76.938c32.57-12.52 36.32-53.58 10.06-73.81-26.05-16.17-36.34-8.77-60.17-8.77 0.96069-10.672-5.7885-22.255-12.877-31.076 31.26-20.818 24.439-77.043-17.927-77.657 1.4578-51.246-67.318-42.986-72.574-2.6692-6.01-15.65-35.01-8.86-48.7 9.3l-41.24-43.14c17.988-16.921 20.814-54.573 5.6371-67.566 39.53-24.12 20.29-65.507-15.56-67.517-1.7-46.263-60.76-53.173-73.13-5.807-21.06-14.547-33.94-5.523-52.91 12.732-20.98-16.598-41.11-16.598-81.721-18.264z" fill="#fff"/>
 <g fill="#c4aa9c" fill-rule="evenodd">
  <path d="m58.509 102.01v391.48h28.981v-391.48z"/>
  <path d="m144.99 130.99v362.02h29.02v-362.02z"/>
  <path d="m232.44 203.44v290.12h29.121v-290.12z"/>
  <path d="m318.36 304.86v188.79h29.289v-188.79z"/>
  <path d="m406.28 377.28v116.44h29.44v-116.44z"/>
  <path d="m493.26 391.76v100.98h29.478v-100.98z"/>
 </g>
 <path stroke-linejoin="round" d="m58 101.5c58-14.5 130.5 29 232 159.5s166.16 128.22 232 130.5" stroke="#672400" stroke-linecap="round" stroke-width="29" fill="none"/>
 <g fill-rule="evenodd" fill="#672400">
  <path d="m284.93 90.483c-6.0848-5.2063-15.238-4.4942-20.444 1.5906-5.2063 6.0848-4.4942 15.238 1.5906 20.444 6.0848 5.2063 15.238 4.4942 20.444-1.5906 5.2063-6.0848 4.4942-15.238-1.5906-20.444z"/>
  <path d="m199.39 87.627c-5.1795-4.4318-15.063-4.6989-20.444 1.5906l-18.854 22.035c-5.4101 6.3229-4.341 15.369 1.5906 20.444l66.105 56.561c11.017 9.4269 27.338 12.656 40.889-3.1812 14.73-17.215 7.8363-31.462-3.1812-40.889z"/>
  <path d="m255.93 61.482c-6.0848-5.2063-15.238-4.4942-20.444 1.5906-5.2063 6.0848-4.4942 15.238 1.5906 20.444 6.0848 5.2063 15.238 4.4942 20.444-1.5906 5.2064-6.0848 4.4942-15.238-1.5906-20.444z"/>
  <path d="m458.63 264.23c-6.2218-5.0418-15.353-4.0852-20.394 2.1366-5.0418 6.2218-4.0852 15.353 2.1366 20.394 6.2218 5.0418 15.353 4.0852 20.394-2.1366 5.0418-6.2218 4.0852-15.353-2.1366-20.394z"/>
  <path d="m374.45 263.99c-5.2961-4.2917-15.183-4.2945-20.394 2.1366l-18.258 22.531c-5.2391 6.4652-3.9285 15.48 2.1366 20.394l67.593 54.774c11.266 9.129 27.666 11.921 40.789-4.2732 14.264-17.603 6.9923-31.66-4.2732-40.789z"/>
  <path d="m429.63 235.23c-6.2218-5.0418-15.353-4.0852-20.394 2.1366-5.0418 6.2218-4.0852 15.353 2.1366 20.394 6.2218 5.0418 15.353 4.0852 20.394-2.1366 5.0418-6.2218 4.0852-15.353-2.1366-20.394z"/>
 </g>
</svg>
