<?xml version="1.0" encoding="UTF-8" standalone="no"?>
<svg xmlns:rdf="http://www.w3.org/1999/02/22-rdf-syntax-ns#" xmlns="http://www.w3.org/2000/svg" height="580" width="580" version="1.0" xmlns:cc="http://creativecommons.org/ns#" xmlns:dc="http://purl.org/dc/elements/1.1/">
 <title>attraction</title>
 <metadata>
  <rdf:RDF>
   <cc:Work rdf:about="">
    <dc:format>image/svg+xml</dc:format>
    <dc:type rdf:resource="http://purl.org/dc/dcmitype/StillImage"/>
    <dc:title>attraction</dc:title>
   </cc:Work>
  </rdf:RDF>
 </metadata>
 <path opacity=".8" d="m290 29c-44.88 0-51.85 84.73-56.31 125.01-30.69-20.63-100.5-85.04-129.86-47.51-29.359 37.526 25.746 96.398 50.592 127.3-39.34 10.17-125.51 9.35-125.42 56.2 0.08577 46.847 85.654 49.797 125.1 56.379-23.287 34.779-80.424 98.567-48.652 128.87 31.772 30.306 95.116-25.619 128.17-49.057 7.08 40.33 13.74 124.81 56.38 124.81 42.641 0 46.994-82.532 56.504-125.03 35.736 17.639 99.375 85.436 128.12 49.352 28.74-36.08-25.32-96.28-48.7-129.12 36.1-5.45 125.08-10.39 125.08-56.2 0-48.13-85.4-49.79-124.92-56.36 24.69-34.16 81.16-96.58 49.43-128.44-31.73-31.856-92.51 20.88-129.39 48.39-5.38-39.65-11.24-124.59-56.12-124.59z" fill="#fff"/>
 <g fill="#672400">
  <circle cx="290" cy="290" r="72.5"/>
  <g fill-rule="evenodd">
   <path d="m261 174h58c0-1.5443-14.5-116-29-116s-29 114.42-29 116z"/>
   <path d="m406 261v58c1.5443 0 116-14.5 116-29s-114.42-29-116-29z"/>
   <path d="m319 406h-58c0 1.5443 14.5 116 29 116s29-114.42 29-116z"/>
   <path d="m174 319v-58c-1.5443 0-116 14.5-116 29s114.42 29 116 29z"/>
   <path d="m351.52 187.47 41.012 41.012c1.092-1.092 71.771-92.277 61.518-102.53s-101.41 60.399-102.53 61.518z"/>
   <path d="m392.53 351.52-41.012 41.012c1.092 1.092 92.277 71.771 102.53 61.518s-60.399-101.41-61.518-102.53z"/>
   <path d="m228.48 392.53-41.012-41.012c-1.092 1.092-71.771 92.277-61.518 102.53s101.41-60.399 102.53-61.518z"/>
   <path d="m187.47 228.48 41.012-41.012c-1.092-1.092-92.277-71.771-102.53-61.518s60.399 101.41 61.518 102.53z"/>
  </g>
 </g>
</svg>
