<?xml version="1.0" encoding="UTF-8" standalone="no"?>
<svg xmlns:rdf="http://www.w3.org/1999/02/22-rdf-syntax-ns#" xmlns="http://www.w3.org/2000/svg" height="580" width="580" version="1.1" xmlns:cc="http://creativecommons.org/ns#" xmlns:dc="http://purl.org/dc/elements/1.1/">
 <title>camp_site</title>
 <metadata>
  <rdf:RDF>
   <cc:Work rdf:about="">
    <dc:format>image/svg+xml</dc:format>
    <dc:type rdf:resource="http://purl.org/dc/dcmitype/StillImage"/>
    <dc:title>camp_site</dc:title>
   </cc:Work>
  </rdf:RDF>
 </metadata>
 <g fill-rule="evenodd">
  <path opacity=".8" d="m232 174-203 319c-16.743 29 0 43.5 43.5 43.5h435c43.5 0 60.24-14.5 43.5-43.5l-199.49-320 54.49-86c19.546-29 0-43.5-14.5-43.5h-58c-21.714 0-29 29-43.5 43.5-14.5-14.5-20.87-43.5-43.5-43.5h-58c-14.5 0-33.83 14.5-14.5 43.5z" fill="#fff"/>
  <path d="m203 72.5 65.3 102.95-210.3 332.05h464l-210.25-332.06 65.25-102.94h-43.5l-43.48 68.65-43.52-68.65z" fill="#0069b6"/>
  <path d="m159.5 478.5h261l-130.5-191z" fill="#fff"/>
 </g>
</svg>
