<?xml version="1.0" encoding="UTF-8" standalone="no"?>
<svg xmlns:rdf="http://www.w3.org/1999/02/22-rdf-syntax-ns#" xmlns="http://www.w3.org/2000/svg" height="580" width="580" version="1.1" xmlns:cc="http://creativecommons.org/ns#" xmlns:dc="http://purl.org/dc/elements/1.1/">
 <title>weir</title>
 <metadata>
  <rdf:RDF>
   <cc:Work rdf:about="">
    <dc:format>image/svg+xml</dc:format>
    <dc:type rdf:resource="http://purl.org/dc/dcmitype/StillImage"/>
    <dc:title>weir</dc:title>
   </cc:Work>
  </rdf:RDF>
 </metadata>
 <path opacity=".8" d="m29.412 110.71c-19.79-0.25-29.061 14.1-29.412 34.29v377h319v-14.5c24.559 12.243 54.805 24.793 81.805 15.494 22.351-6.8821 41.57-23.573 65.641-24.584 30.03 7.4086 55.89 30.062 87.979 29.158 17.19 0.17 25.57-20.07 25.57-34.57v-116c0-20.735-13.2-21.593-29-29-27.874-12.319-58-29-87-29s-58.505 20.784-83.852 26.568c-5.79-68.54-31.39-136.76-78.26-187.83-28.47-29.18-68.86-50.16-110.5-46.01-25.18 3.03-46.39 27.53-75.39 26.68s-54.184-27.84-86.588-27.7z" fill-rule="evenodd" fill="#fff"/>
 <path d="m29 246.5h159.5c87 0 87 188.5 87 246.5h-246.5z" fill-rule="evenodd" fill="#8f8f8f"/>
 <g fill="#0064fe">
  <path d="m319 477.3c19.402 8.6474 34.217 19.7 58 19.7s58-29 87-29 58.633 28.529 87 29v-33c-31.121-4.8995-58-29-87-29s-62.104 29-87 29-38.484-15.206-58-23z"/>
  <path d="m30 141v33c31.121 4.8995 59 29 87 29s61.821-29 87-29 52.96 24.08 70.449 50.119c22.96 36.881 42.183 103.67 44.561 153.45l32.98-1.1367c-2.04-59.08-23.11-129.93-48.41-167.75-19.76-34.13-67.83-67.68-99.58-67.68-31.748 0-59 29-87 29s-58.633-28.529-87-29z"/>
  <path d="m319 390.3c19.402 8.6474 34.217 19.7 58 19.7s58-29 87-29 58.633 28.529 87 29v-33c-31.121-4.8995-58-29-87-29s-62.104 29-87 29-38.484-15.206-58-23z"/>
 </g>
</svg>
