<?xml version="1.0" encoding="UTF-8" standalone="no"?>
<svg xmlns:rdf="http://www.w3.org/1999/02/22-rdf-syntax-ns#" xmlns="http://www.w3.org/2000/svg" height="580" width="580" version="1.1" xmlns:cc="http://creativecommons.org/ns#" xmlns:dc="http://purl.org/dc/elements/1.1/">
 <title>dog_park</title>
 <metadata>
  <rdf:RDF>
   <cc:Work rdf:about="">
    <dc:format>image/svg+xml</dc:format>
    <dc:type rdf:resource="http://purl.org/dc/dcmitype/StillImage"/>
    <dc:title>dog_park</dc:title>
   </cc:Work>
  </rdf:RDF>
 </metadata>
 <g>
  <path fill="#cdf6ca" d="m0 0h580v580h-580z"/>
  <path d="m177.22 36.708c-16.07 1.5621-25.494 18.978-26.93 34.228-2.1409 13.541 3.4709 30.973 17.673 34.353 12.337 1.327 22.379-10.104 26.619-21.105 5.0209-13.775 5.4965-32.283-5.887-42.878-3.1639-2.8441-7.2604-4.6113-11.475-4.5986zm-65.43-0.457c-13.356 0.723-20.477 16.105-19.775 28.569-0.18635 16.646 8.6111 35.53 25.205 39.782 12.405 1.57 20.932-11.462 21.914-22.975 1.9066-17.612-5.5212-39.123-23.123-44.769-1.3687-0.40538-2.792-0.61957-4.2165-0.60802zm106.25 55.395c-17.926 0.98732-29.594 19.86-30.684 37.086-1.1454 11.211 5.8512 25.462 18.079 24.91 18.301-1.6044 29.683-21.762 29.55-39.459 0.069-10.185-6.1742-21.918-16.944-22.538zm-163.46 20.314c-2.0045 19.073 10.971 40.908 30.369 42.465 11.784-0.57 17.582-14.14 16.432-24.98-0.79-15.98-11.16-32.511-24.984-34.897-13.824-2.387-21.851 7.267-21.816 17.417zm91.88 17.971c-18.206-0.29192-35.068 11.314-44.261 27.258-7.6748 11.901-14.017 25.416-15.438 39.774 0.05263 11.094 10.466 20.517 21.116 18.5 15.17-1.6898 28.884-11.954 44.586-9.6988 13.06 1.282 23.662 11.62 36.869 11.712 12.813 0.71387 20.476-13.844 15.796-25.442-4.9624-16.573-14.903-31.089-25.619-44.196-8.5615-9.6725-19.852-18.091-33.052-17.909z" fill="#a8dbb2"/>
  <path fill="#a8dbb2" d="m449.1 326.71c-16.07 1.5621-25.494 18.978-26.93 34.228-2.1409 13.541 3.4709 30.973 17.673 34.353 12.337 1.327 22.379-10.104 26.619-21.105 5.0209-13.775 5.4965-32.283-5.887-42.878-3.1639-2.8441-7.2604-4.6113-11.475-4.5986zm-65.429-0.45763c-13.361 0.72345-20.482 16.105-19.78 28.569-0.18635 16.646 8.6111 35.53 25.205 39.782 12.405 1.57 20.932-11.462 21.914-22.975 1.9066-17.612-5.5212-39.123-23.123-44.769-1.3687-0.40539-2.792-0.61957-4.2165-0.60803zm106.25 55.395c-17.926 0.98732-29.594 19.86-30.684 37.086-1.1454 11.211 5.8512 25.462 18.079 24.91 18.301-1.6044 29.683-21.762 29.55-39.459 0.069-10.185-6.1742-21.918-16.944-22.538zm-163.46 20.311c-2.0045 19.073 10.971 40.908 30.369 42.465 11.784-0.57262 17.582-14.141 16.43-24.981-0.78546-15.977-11.158-32.512-24.982-34.898-13.824-2.3866-21.851 7.2646-21.816 17.416zm91.88 17.971c-18.206-0.29192-35.068 11.314-44.261 27.258-7.6748 11.901-14.017 25.416-15.438 39.774 0.0526 11.094 10.466 20.517 21.116 18.5 15.17-1.6898 28.884-11.954 44.586-9.6988 13.06 1.282 23.662 11.62 36.869 11.712 12.813 0.71387 20.476-13.844 15.796-25.442-4.9624-16.573-14.903-31.089-25.619-44.196-8.5615-9.6725-19.852-18.091-33.052-17.909z"/>
 </g>
</svg>
