<?xml version="1.0" encoding="UTF-8" standalone="no"?>
<svg xmlns:rdf="http://www.w3.org/1999/02/22-rdf-syntax-ns#" xmlns="http://www.w3.org/2000/svg" height="580" width="580" version="1.1" xmlns:cc="http://creativecommons.org/ns#" xmlns:dc="http://purl.org/dc/elements/1.1/">
 <title>friedhof-muslimisch</title>
 <metadata>
  <rdf:RDF>
   <cc:Work rdf:about="">
    <dc:format>image/svg+xml</dc:format>
    <dc:type rdf:resource="http://purl.org/dc/dcmitype/StillImage"/>
    <dc:title>friedhof-muslimisch</dc:title>
   </cc:Work>
  </rdf:RDF>
 </metadata>
 <path d="m0 0v580h580v-580z" fill-rule="evenodd" fill="#b0d490"/>
 <g fill="#8ba825">
  <path d="m111.95 272.51c-29.62-5.49-54.921-27.15-67.264-54.3-12.897-29.01-9.688-65.42 9.689-91.33 13.577-18.52 33.818-33.946 57.395-37.032 14.441-3.209 29.498-2.6536 43.815 1.9748 10.121 3.5176 21.908 11.046 29.004 19.501-5.0604 4.4432-16.6-2.0982-23.944-2.0982-31.473-4.6901-58.626 11.108-71.586 39.495-8.0225 16.662-8.1459 36.41-4.0113 54.306 9.627 30.239 33.756 49.986 66.031 50.604 11.293-0.30856 22.216-4.9369 33.324-4.3815-3.9495 7.7757-14.811 15.551-22.71 19.131-15.736 5.3072-32.707 7.2203-49.308 4.2581"/>
  <path d="m144.41 168.62h75.375l-60.973 44.311 23.315-71.715 23.315 71.715z"/>
  <path d="m438.2 526.26c-29.622-5.4923-54.923-27.153-67.266-54.306-12.898-29.004-9.6887-65.414 9.6887-91.333 13.577-18.514 33.818-33.941 57.392-37.027 14.441-3.209 29.498-2.6536 43.815 1.9748 10.121 3.5176 21.908 11.046 29.004 19.501-5.0604 4.4432-16.6-2.0982-23.944-2.0982-31.473-4.6901-58.626 11.108-71.586 39.495-8.0225 16.662-8.1459 36.41-4.0113 54.306 9.627 30.239 33.756 49.986 66.031 50.604 11.293-0.30856 22.216-4.9369 33.324-4.3815-3.9495 7.7757-14.811 15.551-22.71 19.131-15.736 5.3072-32.707 7.2203-49.308 4.2581"/>
  <path d="m470.66 422.37h75.375l-60.973 44.311 23.315-71.715 23.315 71.715z"/>
 </g>
</svg>
