<?xml version="1.0" encoding="UTF-8" standalone="no"?>
<svg xmlns:rdf="http://www.w3.org/1999/02/22-rdf-syntax-ns#" xmlns="http://www.w3.org/2000/svg" height="580" width="580" version="1.1" xmlns:cc="http://creativecommons.org/ns#" xmlns:dc="http://purl.org/dc/elements/1.1/">
 <title>friedhof-juedisch</title>
 <metadata>
  <rdf:RDF>
   <cc:Work rdf:about="">
    <dc:format>image/svg+xml</dc:format>
    <dc:type rdf:resource="http://purl.org/dc/dcmitype/StillImage"/>
    <dc:title>friedhof-juedisch</dc:title>
   </cc:Work>
  </rdf:RDF>
 </metadata>
 <path d="m0 0v580h580v-580z" fill-rule="evenodd" fill="#b0d490"/>
 <path d="m127.63 73.147-30.68 53.893h-60.419l30.212 54.373-30.206 54.373h60.412l30.681 54.862 30.206-54.862h59.944l-29.738-54.373 29.738-54.38h-59.944l-30.206-53.885zm0 37.871 8.9688 16.02h-17.938l8.9688-16.02zm-58.999 33.98h18.407l-9.438 16.51-8.969-16.51zm40.119 0h37.762l19.825 36.412-19.825 36.412h-37.762l-19.835-36.41 19.825-36.41zm59 0h18.881l-9.4375 16.991-9.44-16.99zm9.4438 55.833 9.4375 16.991h-18.881l9.4438-16.991zm-99.59 0.48l9.4375 16.509h-18.406l8.968-16.51zm41.062 34.47h17.938l-8.9688 16.027-8.9688-16.027z" fill="#8ba825"/>
 <path fill="#8ba825" d="m453.88 326.25-30.68 53.89h-60.419l30.212 54.373-30.206 54.373h60.412l30.681 54.862 30.206-54.862h59.944l-29.738-54.373 29.738-54.38h-59.944l-30.21-53.89zm0 37.871 8.9688 16.02h-17.938l8.9688-16.02zm-59 33.982h18.406l-9.4375 16.509-8.9688-16.509zm40.119 0h37.762l19.825 36.412-19.825 36.412h-37.762l-19.82-36.41 19.82-36.41zm59 0h18.881l-9.4375 16.991-9.44-16.99zm9.4438 55.833 9.4375 16.991h-18.881l9.4438-16.991zm-99.594 0.48215 9.4375 16.509h-18.406l8.9688-16.509zm41.062 34.47h17.938l-8.9688 16.027-8.9688-16.027z"/>
</svg>
